<?xml version="1.0" standalone="no"?>
<!DOCTYPE svg PUBLIC "-//W3C//DTD SVG 1.1//EN" "http://www.w3.org/Graphics/SVG/1.1/DTD/svg11.dtd" >
<svg xmlns="http://www.w3.org/2000/svg">
<metadata></metadata>
<defs>
<font id="nexa_rust_handmadeextended" horiz-adv-x="2648" >
<font-face units-per-em="2048" ascent="1536" descent="-512" />
<missing-glyph horiz-adv-x="512" />
<glyph horiz-adv-x="0" />
<glyph horiz-adv-x="682" />
<glyph unicode=" "  horiz-adv-x="512" />
<glyph unicode="&#x09;" horiz-adv-x="512" />
<glyph unicode="&#xa0;" horiz-adv-x="512" />
<glyph unicode="!" d="M379 1008l31 -68h30l-131 289h-28l-129 -289h30l31 68h166zM594 940l121 289h-33l-104 -258l-109 258h-31l123 -289h33zM942 1008l29 -68h30l-129 289h-28l-131 -289h30l31 68h168zM1051 940h28v289h-28v-289zM1188 1229h-29v-289h191v27h-162v262zM1591 1008l31 -68h31 l-129 289h-29l-131 -289h31l30 68h166zM1825 1229h-123v-289h123q44 0 74 18.5t30 59.5q0 23 -14 42.5t-39 26.5q45 16 45 62q0 40 -27 60t-69 20zM2021 1229h-28v-289h188v27h-160v262zM2435 940v27h-178v104h168v27h-168v104h176v27h-205v-289h207zM1731 1102v100h94 q67 0 67 -53q0 -47 -65 -47h-96zM223 1032l72 166l74 -166h-146zM784 1032l74 166l72 -166h-146zM1436 1032l73 166l72 -166h-145zM1731 967v108h96q30 0 52 -14.5t22 -42.5q0 -51 -76 -51h-94zM102 575h29v289h-29v-289zM416 629l-187 235h-18v-289h29v232l186 -232h18v289 h-28v-235zM688 836v-261h29v261h102v28h-233v-28h102zM1069 575h29v289h-29v-135h-174v135h-29v-289h29v127h174v-127zM1386 575v27h-178v105h166v26h-166v103h174v28h-204v-289h208zM1556 575h29v125h164v27h-164v109h170v28h-199v-289zM2042 864h-29v-178 q0 -43 -24.5 -65.5t-61.5 -22.5q-38 0 -62 24t-24 64v178h-29v-178q0 -56 33 -85.5t82 -29.5q50 0 82.5 29.5t32.5 85.5v178zM2148 864h-30v-289h190v27h-160v262zM2384 864h-29v-289h191v27h-162v262zM1438 438l24 15q-35 51 -108 51q-43 0 -77 -20t-34 -60 q0 -20 8.5 -34.5t27 -22.5t33 -12t40.5 -9q28 -5 44 -9.5t30 -17t14 -30.5q0 -56 -86 -56q-70 0 -94 50l-27 -15q16 -32 49.5 -47.5t71.5 -15.5q48 0 82 19.5t34 64.5q0 29 -18.5 47t-39 24.5t-56.5 12.5q-28 5 -43 9t-28 15t-13 27q0 28 24.5 39.5t57.5 11.5q64 0 84 -37z M1913 354q0 61 -39 105.5t-109 44.5q-67 0 -106 -43.5t-39 -106.5q0 -62 38 -106t107 -43q69 -1 108.5 43t39.5 106zM522 209l121 291h-33l-104 -258l-109 258h-30l122 -291h33zM901 209v29h-178v104h166v27h-166v102h174v29h-203v-291h207zM1202 209l-100 108q43 3 65.5 29 t22.5 62q0 39 -25.5 65.5t-70.5 26.5h-129v-291h28v106h74l96 -106h39zM1530 209h29v291h-29v-291zM2179 264l-186 236h-19v-291h29v233l186 -233h17v291h-29v-140zM1765 231q-55 0 -84.5 35.5t-31.5 87.5t29 87t87 34q57 1 88 -34.5t31 -86.5t-31 -87t-88 -36zM993 471h101 q32 0 49.5 -17.5t17.5 -45.5q0 -29 -17.5 -46.5t-51.5 -17.5h-99v127z" />
<glyph unicode="&#x22;" d="M379 1008l31 -68h30l-131 289h-28l-129 -289h30l31 68h166zM594 940l121 289h-33l-104 -258l-109 258h-31l123 -289h33zM942 1008l29 -68h30l-129 289h-28l-131 -289h30l31 68h168zM1051 940h28v289h-28v-289zM1188 1229h-29v-289h191v27h-162v262zM1591 1008l31 -68h31 l-129 289h-29l-131 -289h31l30 68h166zM1825 1229h-123v-289h123q44 0 74 18.5t30 59.5q0 23 -14 42.5t-39 26.5q45 16 45 62q0 40 -27 60t-69 20zM2021 1229h-28v-289h188v27h-160v262zM2435 940v27h-178v104h168v27h-168v104h176v27h-205v-289h207zM1731 1102v100h94 q67 0 67 -53q0 -47 -65 -47h-96zM223 1032l72 166l74 -166h-146zM784 1032l74 166l72 -166h-146zM1436 1032l73 166l72 -166h-145zM1731 967v108h96q30 0 52 -14.5t22 -42.5q0 -51 -76 -51h-94zM102 575h29v289h-29v-289zM416 629l-187 235h-18v-289h29v232l186 -232h18v289 h-28v-235zM688 836v-261h29v261h102v28h-233v-28h102zM1069 575h29v289h-29v-135h-174v135h-29v-289h29v127h174v-127zM1386 575v27h-178v105h166v26h-166v103h174v28h-204v-289h208zM1556 575h29v125h164v27h-164v109h170v28h-199v-289zM2042 864h-29v-178 q0 -43 -24.5 -65.5t-61.5 -22.5q-38 0 -62 24t-24 64v178h-29v-178q0 -56 33 -85.5t82 -29.5q50 0 82.5 29.5t32.5 85.5v178zM2148 864h-30v-289h190v27h-160v262zM2384 864h-29v-289h191v27h-162v262zM1438 438l24 15q-35 51 -108 51q-43 0 -77 -20t-34 -60 q0 -20 8.5 -34.5t27 -22.5t33 -12t40.5 -9q28 -5 44 -9.5t30 -17t14 -30.5q0 -56 -86 -56q-70 0 -94 50l-27 -15q16 -32 49.5 -47.5t71.5 -15.5q48 0 82 19.5t34 64.5q0 29 -18.5 47t-39 24.5t-56.5 12.5q-28 5 -43 9t-28 15t-13 27q0 28 24.5 39.5t57.5 11.5q64 0 84 -37z M1913 354q0 61 -39 105.5t-109 44.5q-67 0 -106 -43.5t-39 -106.5q0 -62 38 -106t107 -43q69 -1 108.5 43t39.5 106zM522 209l121 291h-33l-104 -258l-109 258h-30l122 -291h33zM901 209v29h-178v104h166v27h-166v102h174v29h-203v-291h207zM1202 209l-100 108q43 3 65.5 29 t22.5 62q0 39 -25.5 65.5t-70.5 26.5h-129v-291h28v106h74l96 -106h39zM1530 209h29v291h-29v-291zM2179 264l-186 236h-19v-291h29v233l186 -233h17v291h-29v-140zM1765 231q-55 0 -84.5 35.5t-31.5 87.5t29 87t87 34q57 1 88 -34.5t31 -86.5t-31 -87t-88 -36zM993 471h101 q32 0 49.5 -17.5t17.5 -45.5q0 -29 -17.5 -46.5t-51.5 -17.5h-99v127z" />
<glyph unicode="#" d="M379 1008l31 -68h30l-131 289h-28l-129 -289h30l31 68h166zM594 940l121 289h-33l-104 -258l-109 258h-31l123 -289h33zM942 1008l29 -68h30l-129 289h-28l-131 -289h30l31 68h168zM1051 940h28v289h-28v-289zM1188 1229h-29v-289h191v27h-162v262zM1591 1008l31 -68h31 l-129 289h-29l-131 -289h31l30 68h166zM1825 1229h-123v-289h123q44 0 74 18.5t30 59.5q0 23 -14 42.5t-39 26.5q45 16 45 62q0 40 -27 60t-69 20zM2021 1229h-28v-289h188v27h-160v262zM2435 940v27h-178v104h168v27h-168v104h176v27h-205v-289h207zM1731 1102v100h94 q67 0 67 -53q0 -47 -65 -47h-96zM223 1032l72 166l74 -166h-146zM784 1032l74 166l72 -166h-146zM1436 1032l73 166l72 -166h-145zM1731 967v108h96q30 0 52 -14.5t22 -42.5q0 -51 -76 -51h-94zM102 575h29v289h-29v-289zM416 629l-187 235h-18v-289h29v232l186 -232h18v289 h-28v-235zM688 836v-261h29v261h102v28h-233v-28h102zM1069 575h29v289h-29v-135h-174v135h-29v-289h29v127h174v-127zM1386 575v27h-178v105h166v26h-166v103h174v28h-204v-289h208zM1556 575h29v125h164v27h-164v109h170v28h-199v-289zM2042 864h-29v-178 q0 -43 -24.5 -65.5t-61.5 -22.5q-38 0 -62 24t-24 64v178h-29v-178q0 -56 33 -85.5t82 -29.5q50 0 82.5 29.5t32.5 85.5v178zM2148 864h-30v-289h190v27h-160v262zM2384 864h-29v-289h191v27h-162v262zM1438 438l24 15q-35 51 -108 51q-43 0 -77 -20t-34 -60 q0 -20 8.5 -34.5t27 -22.5t33 -12t40.5 -9q28 -5 44 -9.5t30 -17t14 -30.5q0 -56 -86 -56q-70 0 -94 50l-27 -15q16 -32 49.5 -47.5t71.5 -15.5q48 0 82 19.5t34 64.5q0 29 -18.5 47t-39 24.5t-56.5 12.5q-28 5 -43 9t-28 15t-13 27q0 28 24.5 39.5t57.5 11.5q64 0 84 -37z M1913 354q0 61 -39 105.5t-109 44.5q-67 0 -106 -43.5t-39 -106.5q0 -62 38 -106t107 -43q69 -1 108.5 43t39.5 106zM522 209l121 291h-33l-104 -258l-109 258h-30l122 -291h33zM901 209v29h-178v104h166v27h-166v102h174v29h-203v-291h207zM1202 209l-100 108q43 3 65.5 29 t22.5 62q0 39 -25.5 65.5t-70.5 26.5h-129v-291h28v106h74l96 -106h39zM1530 209h29v291h-29v-291zM2179 264l-186 236h-19v-291h29v233l186 -233h17v291h-29v-140zM1765 231q-55 0 -84.5 35.5t-31.5 87.5t29 87t87 34q57 1 88 -34.5t31 -86.5t-31 -87t-88 -36zM993 471h101 q32 0 49.5 -17.5t17.5 -45.5q0 -29 -17.5 -46.5t-51.5 -17.5h-99v127z" />
<glyph unicode="$" d="M379 1008l31 -68h30l-131 289h-28l-129 -289h30l31 68h166zM594 940l121 289h-33l-104 -258l-109 258h-31l123 -289h33zM942 1008l29 -68h30l-129 289h-28l-131 -289h30l31 68h168zM1051 940h28v289h-28v-289zM1188 1229h-29v-289h191v27h-162v262zM1591 1008l31 -68h31 l-129 289h-29l-131 -289h31l30 68h166zM1825 1229h-123v-289h123q44 0 74 18.5t30 59.5q0 23 -14 42.5t-39 26.5q45 16 45 62q0 40 -27 60t-69 20zM2021 1229h-28v-289h188v27h-160v262zM2435 940v27h-178v104h168v27h-168v104h176v27h-205v-289h207zM1731 1102v100h94 q67 0 67 -53q0 -47 -65 -47h-96zM223 1032l72 166l74 -166h-146zM784 1032l74 166l72 -166h-146zM1436 1032l73 166l72 -166h-145zM1731 967v108h96q30 0 52 -14.5t22 -42.5q0 -51 -76 -51h-94zM102 575h29v289h-29v-289zM416 629l-187 235h-18v-289h29v232l186 -232h18v289 h-28v-235zM688 836v-261h29v261h102v28h-233v-28h102zM1069 575h29v289h-29v-135h-174v135h-29v-289h29v127h174v-127zM1386 575v27h-178v105h166v26h-166v103h174v28h-204v-289h208zM1556 575h29v125h164v27h-164v109h170v28h-199v-289zM2042 864h-29v-178 q0 -43 -24.5 -65.5t-61.5 -22.5q-38 0 -62 24t-24 64v178h-29v-178q0 -56 33 -85.5t82 -29.5q50 0 82.5 29.5t32.5 85.5v178zM2148 864h-30v-289h190v27h-160v262zM2384 864h-29v-289h191v27h-162v262zM1438 438l24 15q-35 51 -108 51q-43 0 -77 -20t-34 -60 q0 -20 8.5 -34.5t27 -22.5t33 -12t40.5 -9q28 -5 44 -9.5t30 -17t14 -30.5q0 -56 -86 -56q-70 0 -94 50l-27 -15q16 -32 49.5 -47.5t71.5 -15.5q48 0 82 19.5t34 64.5q0 29 -18.5 47t-39 24.5t-56.5 12.5q-28 5 -43 9t-28 15t-13 27q0 28 24.5 39.5t57.5 11.5q64 0 84 -37z M1913 354q0 61 -39 105.5t-109 44.5q-67 0 -106 -43.5t-39 -106.5q0 -62 38 -106t107 -43q69 -1 108.5 43t39.5 106zM522 209l121 291h-33l-104 -258l-109 258h-30l122 -291h33zM901 209v29h-178v104h166v27h-166v102h174v29h-203v-291h207zM1202 209l-100 108q43 3 65.5 29 t22.5 62q0 39 -25.5 65.5t-70.5 26.5h-129v-291h28v106h74l96 -106h39zM1530 209h29v291h-29v-291zM2179 264l-186 236h-19v-291h29v233l186 -233h17v291h-29v-140zM1765 231q-55 0 -84.5 35.5t-31.5 87.5t29 87t87 34q57 1 88 -34.5t31 -86.5t-31 -87t-88 -36zM993 471h101 q32 0 49.5 -17.5t17.5 -45.5q0 -29 -17.5 -46.5t-51.5 -17.5h-99v127z" />
<glyph unicode="%" d="M379 1008l31 -68h30l-131 289h-28l-129 -289h30l31 68h166zM594 940l121 289h-33l-104 -258l-109 258h-31l123 -289h33zM942 1008l29 -68h30l-129 289h-28l-131 -289h30l31 68h168zM1051 940h28v289h-28v-289zM1188 1229h-29v-289h191v27h-162v262zM1591 1008l31 -68h31 l-129 289h-29l-131 -289h31l30 68h166zM1825 1229h-123v-289h123q44 0 74 18.5t30 59.5q0 23 -14 42.5t-39 26.5q45 16 45 62q0 40 -27 60t-69 20zM2021 1229h-28v-289h188v27h-160v262zM2435 940v27h-178v104h168v27h-168v104h176v27h-205v-289h207zM1731 1102v100h94 q67 0 67 -53q0 -47 -65 -47h-96zM223 1032l72 166l74 -166h-146zM784 1032l74 166l72 -166h-146zM1436 1032l73 166l72 -166h-145zM1731 967v108h96q30 0 52 -14.5t22 -42.5q0 -51 -76 -51h-94zM102 575h29v289h-29v-289zM416 629l-187 235h-18v-289h29v232l186 -232h18v289 h-28v-235zM688 836v-261h29v261h102v28h-233v-28h102zM1069 575h29v289h-29v-135h-174v135h-29v-289h29v127h174v-127zM1386 575v27h-178v105h166v26h-166v103h174v28h-204v-289h208zM1556 575h29v125h164v27h-164v109h170v28h-199v-289zM2042 864h-29v-178 q0 -43 -24.5 -65.5t-61.5 -22.5q-38 0 -62 24t-24 64v178h-29v-178q0 -56 33 -85.5t82 -29.5q50 0 82.5 29.5t32.5 85.5v178zM2148 864h-30v-289h190v27h-160v262zM2384 864h-29v-289h191v27h-162v262zM1438 438l24 15q-35 51 -108 51q-43 0 -77 -20t-34 -60 q0 -20 8.5 -34.5t27 -22.5t33 -12t40.5 -9q28 -5 44 -9.5t30 -17t14 -30.5q0 -56 -86 -56q-70 0 -94 50l-27 -15q16 -32 49.5 -47.5t71.5 -15.5q48 0 82 19.5t34 64.5q0 29 -18.5 47t-39 24.5t-56.5 12.5q-28 5 -43 9t-28 15t-13 27q0 28 24.5 39.5t57.5 11.5q64 0 84 -37z M1913 354q0 61 -39 105.5t-109 44.5q-67 0 -106 -43.5t-39 -106.5q0 -62 38 -106t107 -43q69 -1 108.5 43t39.5 106zM522 209l121 291h-33l-104 -258l-109 258h-30l122 -291h33zM901 209v29h-178v104h166v27h-166v102h174v29h-203v-291h207zM1202 209l-100 108q43 3 65.5 29 t22.5 62q0 39 -25.5 65.5t-70.5 26.5h-129v-291h28v106h74l96 -106h39zM1530 209h29v291h-29v-291zM2179 264l-186 236h-19v-291h29v233l186 -233h17v291h-29v-140zM1765 231q-55 0 -84.5 35.5t-31.5 87.5t29 87t87 34q57 1 88 -34.5t31 -86.5t-31 -87t-88 -36zM993 471h101 q32 0 49.5 -17.5t17.5 -45.5q0 -29 -17.5 -46.5t-51.5 -17.5h-99v127z" />
<glyph unicode="&#x26;" horiz-adv-x="1075" d="M469 1358q109 -1 172.5 -44t73.5 -112t-15.5 -152t-91 -170t-155.5 -159q139 -220 309 -416q76 107 84 238q2 32 53 23q50 -9 78 -40q13 -14 12 -28q-6 -90 -36.5 -168.5t-75.5 -134.5q29 -33 86 -70q34 -25 46 -60t-1 -58.5t-42.5 -32.5t-78.5 18q-43 23 -125 98 q-71 -47 -158 -71.5t-162 -24.5q-129 0 -215.5 54t-138.5 171q-38 89 -24.5 183t67 183t139.5 163q-60 104 -79.5 213.5t1 198t92.5 144t185 54.5zM469 1202q-59 0 -92.5 -35.5t-38.5 -89.5t8.5 -115t42.5 -114q108 98 153 201q47 108 -15 141q-22 12 -58 12zM360 612 q-88 -82 -115 -156.5t-14 -152.5q40 -140 185 -143q138 -4 239 41q-63 72 -120.5 150t-86.5 122t-88 139z" />
<glyph unicode="'" d="M379 1008l31 -68h30l-131 289h-28l-129 -289h30l31 68h166zM594 940l121 289h-33l-104 -258l-109 258h-31l123 -289h33zM942 1008l29 -68h30l-129 289h-28l-131 -289h30l31 68h168zM1051 940h28v289h-28v-289zM1188 1229h-29v-289h191v27h-162v262zM1591 1008l31 -68h31 l-129 289h-29l-131 -289h31l30 68h166zM1825 1229h-123v-289h123q44 0 74 18.5t30 59.5q0 23 -14 42.5t-39 26.5q45 16 45 62q0 40 -27 60t-69 20zM2021 1229h-28v-289h188v27h-160v262zM2435 940v27h-178v104h168v27h-168v104h176v27h-205v-289h207zM1731 1102v100h94 q67 0 67 -53q0 -47 -65 -47h-96zM223 1032l72 166l74 -166h-146zM784 1032l74 166l72 -166h-146zM1436 1032l73 166l72 -166h-145zM1731 967v108h96q30 0 52 -14.5t22 -42.5q0 -51 -76 -51h-94zM102 575h29v289h-29v-289zM416 629l-187 235h-18v-289h29v232l186 -232h18v289 h-28v-235zM688 836v-261h29v261h102v28h-233v-28h102zM1069 575h29v289h-29v-135h-174v135h-29v-289h29v127h174v-127zM1386 575v27h-178v105h166v26h-166v103h174v28h-204v-289h208zM1556 575h29v125h164v27h-164v109h170v28h-199v-289zM2042 864h-29v-178 q0 -43 -24.5 -65.5t-61.5 -22.5q-38 0 -62 24t-24 64v178h-29v-178q0 -56 33 -85.5t82 -29.5q50 0 82.5 29.5t32.5 85.5v178zM2148 864h-30v-289h190v27h-160v262zM2384 864h-29v-289h191v27h-162v262zM1438 438l24 15q-35 51 -108 51q-43 0 -77 -20t-34 -60 q0 -20 8.5 -34.5t27 -22.5t33 -12t40.5 -9q28 -5 44 -9.5t30 -17t14 -30.5q0 -56 -86 -56q-70 0 -94 50l-27 -15q16 -32 49.5 -47.5t71.5 -15.5q48 0 82 19.5t34 64.5q0 29 -18.5 47t-39 24.5t-56.5 12.5q-28 5 -43 9t-28 15t-13 27q0 28 24.5 39.5t57.5 11.5q64 0 84 -37z M1913 354q0 61 -39 105.5t-109 44.5q-67 0 -106 -43.5t-39 -106.5q0 -62 38 -106t107 -43q69 -1 108.5 43t39.5 106zM522 209l121 291h-33l-104 -258l-109 258h-30l122 -291h33zM901 209v29h-178v104h166v27h-166v102h174v29h-203v-291h207zM1202 209l-100 108q43 3 65.5 29 t22.5 62q0 39 -25.5 65.5t-70.5 26.5h-129v-291h28v106h74l96 -106h39zM1530 209h29v291h-29v-291zM2179 264l-186 236h-19v-291h29v233l186 -233h17v291h-29v-140zM1765 231q-55 0 -84.5 35.5t-31.5 87.5t29 87t87 34q57 1 88 -34.5t31 -86.5t-31 -87t-88 -36zM993 471h101 q32 0 49.5 -17.5t17.5 -45.5q0 -29 -17.5 -46.5t-51.5 -17.5h-99v127z" />
<glyph unicode="(" d="M379 1008l31 -68h30l-131 289h-28l-129 -289h30l31 68h166zM594 940l121 289h-33l-104 -258l-109 258h-31l123 -289h33zM942 1008l29 -68h30l-129 289h-28l-131 -289h30l31 68h168zM1051 940h28v289h-28v-289zM1188 1229h-29v-289h191v27h-162v262zM1591 1008l31 -68h31 l-129 289h-29l-131 -289h31l30 68h166zM1825 1229h-123v-289h123q44 0 74 18.5t30 59.5q0 23 -14 42.5t-39 26.5q45 16 45 62q0 40 -27 60t-69 20zM2021 1229h-28v-289h188v27h-160v262zM2435 940v27h-178v104h168v27h-168v104h176v27h-205v-289h207zM1731 1102v100h94 q67 0 67 -53q0 -47 -65 -47h-96zM223 1032l72 166l74 -166h-146zM784 1032l74 166l72 -166h-146zM1436 1032l73 166l72 -166h-145zM1731 967v108h96q30 0 52 -14.5t22 -42.5q0 -51 -76 -51h-94zM102 575h29v289h-29v-289zM416 629l-187 235h-18v-289h29v232l186 -232h18v289 h-28v-235zM688 836v-261h29v261h102v28h-233v-28h102zM1069 575h29v289h-29v-135h-174v135h-29v-289h29v127h174v-127zM1386 575v27h-178v105h166v26h-166v103h174v28h-204v-289h208zM1556 575h29v125h164v27h-164v109h170v28h-199v-289zM2042 864h-29v-178 q0 -43 -24.5 -65.5t-61.5 -22.5q-38 0 -62 24t-24 64v178h-29v-178q0 -56 33 -85.5t82 -29.5q50 0 82.5 29.5t32.5 85.5v178zM2148 864h-30v-289h190v27h-160v262zM2384 864h-29v-289h191v27h-162v262zM1438 438l24 15q-35 51 -108 51q-43 0 -77 -20t-34 -60 q0 -20 8.5 -34.5t27 -22.5t33 -12t40.5 -9q28 -5 44 -9.5t30 -17t14 -30.5q0 -56 -86 -56q-70 0 -94 50l-27 -15q16 -32 49.5 -47.5t71.5 -15.5q48 0 82 19.5t34 64.5q0 29 -18.5 47t-39 24.5t-56.5 12.5q-28 5 -43 9t-28 15t-13 27q0 28 24.5 39.5t57.5 11.5q64 0 84 -37z M1913 354q0 61 -39 105.5t-109 44.5q-67 0 -106 -43.5t-39 -106.5q0 -62 38 -106t107 -43q69 -1 108.5 43t39.5 106zM522 209l121 291h-33l-104 -258l-109 258h-30l122 -291h33zM901 209v29h-178v104h166v27h-166v102h174v29h-203v-291h207zM1202 209l-100 108q43 3 65.5 29 t22.5 62q0 39 -25.5 65.5t-70.5 26.5h-129v-291h28v106h74l96 -106h39zM1530 209h29v291h-29v-291zM2179 264l-186 236h-19v-291h29v233l186 -233h17v291h-29v-140zM1765 231q-55 0 -84.5 35.5t-31.5 87.5t29 87t87 34q57 1 88 -34.5t31 -86.5t-31 -87t-88 -36zM993 471h101 q32 0 49.5 -17.5t17.5 -45.5q0 -29 -17.5 -46.5t-51.5 -17.5h-99v127z" />
<glyph unicode=")" d="M379 1008l31 -68h30l-131 289h-28l-129 -289h30l31 68h166zM594 940l121 289h-33l-104 -258l-109 258h-31l123 -289h33zM942 1008l29 -68h30l-129 289h-28l-131 -289h30l31 68h168zM1051 940h28v289h-28v-289zM1188 1229h-29v-289h191v27h-162v262zM1591 1008l31 -68h31 l-129 289h-29l-131 -289h31l30 68h166zM1825 1229h-123v-289h123q44 0 74 18.5t30 59.5q0 23 -14 42.5t-39 26.5q45 16 45 62q0 40 -27 60t-69 20zM2021 1229h-28v-289h188v27h-160v262zM2435 940v27h-178v104h168v27h-168v104h176v27h-205v-289h207zM1731 1102v100h94 q67 0 67 -53q0 -47 -65 -47h-96zM223 1032l72 166l74 -166h-146zM784 1032l74 166l72 -166h-146zM1436 1032l73 166l72 -166h-145zM1731 967v108h96q30 0 52 -14.5t22 -42.5q0 -51 -76 -51h-94zM102 575h29v289h-29v-289zM416 629l-187 235h-18v-289h29v232l186 -232h18v289 h-28v-235zM688 836v-261h29v261h102v28h-233v-28h102zM1069 575h29v289h-29v-135h-174v135h-29v-289h29v127h174v-127zM1386 575v27h-178v105h166v26h-166v103h174v28h-204v-289h208zM1556 575h29v125h164v27h-164v109h170v28h-199v-289zM2042 864h-29v-178 q0 -43 -24.5 -65.5t-61.5 -22.5q-38 0 -62 24t-24 64v178h-29v-178q0 -56 33 -85.5t82 -29.5q50 0 82.5 29.5t32.5 85.5v178zM2148 864h-30v-289h190v27h-160v262zM2384 864h-29v-289h191v27h-162v262zM1438 438l24 15q-35 51 -108 51q-43 0 -77 -20t-34 -60 q0 -20 8.5 -34.5t27 -22.5t33 -12t40.5 -9q28 -5 44 -9.5t30 -17t14 -30.5q0 -56 -86 -56q-70 0 -94 50l-27 -15q16 -32 49.5 -47.5t71.5 -15.5q48 0 82 19.5t34 64.5q0 29 -18.5 47t-39 24.5t-56.5 12.5q-28 5 -43 9t-28 15t-13 27q0 28 24.5 39.5t57.5 11.5q64 0 84 -37z M1913 354q0 61 -39 105.5t-109 44.5q-67 0 -106 -43.5t-39 -106.5q0 -62 38 -106t107 -43q69 -1 108.5 43t39.5 106zM522 209l121 291h-33l-104 -258l-109 258h-30l122 -291h33zM901 209v29h-178v104h166v27h-166v102h174v29h-203v-291h207zM1202 209l-100 108q43 3 65.5 29 t22.5 62q0 39 -25.5 65.5t-70.5 26.5h-129v-291h28v106h74l96 -106h39zM1530 209h29v291h-29v-291zM2179 264l-186 236h-19v-291h29v233l186 -233h17v291h-29v-140zM1765 231q-55 0 -84.5 35.5t-31.5 87.5t29 87t87 34q57 1 88 -34.5t31 -86.5t-31 -87t-88 -36zM993 471h101 q32 0 49.5 -17.5t17.5 -45.5q0 -29 -17.5 -46.5t-51.5 -17.5h-99v127z" />
<glyph unicode="*" d="M379 1008l31 -68h30l-131 289h-28l-129 -289h30l31 68h166zM594 940l121 289h-33l-104 -258l-109 258h-31l123 -289h33zM942 1008l29 -68h30l-129 289h-28l-131 -289h30l31 68h168zM1051 940h28v289h-28v-289zM1188 1229h-29v-289h191v27h-162v262zM1591 1008l31 -68h31 l-129 289h-29l-131 -289h31l30 68h166zM1825 1229h-123v-289h123q44 0 74 18.5t30 59.5q0 23 -14 42.5t-39 26.5q45 16 45 62q0 40 -27 60t-69 20zM2021 1229h-28v-289h188v27h-160v262zM2435 940v27h-178v104h168v27h-168v104h176v27h-205v-289h207zM1731 1102v100h94 q67 0 67 -53q0 -47 -65 -47h-96zM223 1032l72 166l74 -166h-146zM784 1032l74 166l72 -166h-146zM1436 1032l73 166l72 -166h-145zM1731 967v108h96q30 0 52 -14.5t22 -42.5q0 -51 -76 -51h-94zM102 575h29v289h-29v-289zM416 629l-187 235h-18v-289h29v232l186 -232h18v289 h-28v-235zM688 836v-261h29v261h102v28h-233v-28h102zM1069 575h29v289h-29v-135h-174v135h-29v-289h29v127h174v-127zM1386 575v27h-178v105h166v26h-166v103h174v28h-204v-289h208zM1556 575h29v125h164v27h-164v109h170v28h-199v-289zM2042 864h-29v-178 q0 -43 -24.5 -65.5t-61.5 -22.5q-38 0 -62 24t-24 64v178h-29v-178q0 -56 33 -85.5t82 -29.5q50 0 82.5 29.5t32.5 85.5v178zM2148 864h-30v-289h190v27h-160v262zM2384 864h-29v-289h191v27h-162v262zM1438 438l24 15q-35 51 -108 51q-43 0 -77 -20t-34 -60 q0 -20 8.5 -34.5t27 -22.5t33 -12t40.5 -9q28 -5 44 -9.5t30 -17t14 -30.5q0 -56 -86 -56q-70 0 -94 50l-27 -15q16 -32 49.5 -47.5t71.5 -15.5q48 0 82 19.5t34 64.5q0 29 -18.5 47t-39 24.5t-56.5 12.5q-28 5 -43 9t-28 15t-13 27q0 28 24.5 39.5t57.5 11.5q64 0 84 -37z M1913 354q0 61 -39 105.5t-109 44.5q-67 0 -106 -43.5t-39 -106.5q0 -62 38 -106t107 -43q69 -1 108.5 43t39.5 106zM522 209l121 291h-33l-104 -258l-109 258h-30l122 -291h33zM901 209v29h-178v104h166v27h-166v102h174v29h-203v-291h207zM1202 209l-100 108q43 3 65.5 29 t22.5 62q0 39 -25.5 65.5t-70.5 26.5h-129v-291h28v106h74l96 -106h39zM1530 209h29v291h-29v-291zM2179 264l-186 236h-19v-291h29v233l186 -233h17v291h-29v-140zM1765 231q-55 0 -84.5 35.5t-31.5 87.5t29 87t87 34q57 1 88 -34.5t31 -86.5t-31 -87t-88 -36zM993 471h101 q32 0 49.5 -17.5t17.5 -45.5q0 -29 -17.5 -46.5t-51.5 -17.5h-99v127z" />
<glyph unicode="+" d="M379 1008l31 -68h30l-131 289h-28l-129 -289h30l31 68h166zM594 940l121 289h-33l-104 -258l-109 258h-31l123 -289h33zM942 1008l29 -68h30l-129 289h-28l-131 -289h30l31 68h168zM1051 940h28v289h-28v-289zM1188 1229h-29v-289h191v27h-162v262zM1591 1008l31 -68h31 l-129 289h-29l-131 -289h31l30 68h166zM1825 1229h-123v-289h123q44 0 74 18.5t30 59.5q0 23 -14 42.5t-39 26.5q45 16 45 62q0 40 -27 60t-69 20zM2021 1229h-28v-289h188v27h-160v262zM2435 940v27h-178v104h168v27h-168v104h176v27h-205v-289h207zM1731 1102v100h94 q67 0 67 -53q0 -47 -65 -47h-96zM223 1032l72 166l74 -166h-146zM784 1032l74 166l72 -166h-146zM1436 1032l73 166l72 -166h-145zM1731 967v108h96q30 0 52 -14.5t22 -42.5q0 -51 -76 -51h-94zM102 575h29v289h-29v-289zM416 629l-187 235h-18v-289h29v232l186 -232h18v289 h-28v-235zM688 836v-261h29v261h102v28h-233v-28h102zM1069 575h29v289h-29v-135h-174v135h-29v-289h29v127h174v-127zM1386 575v27h-178v105h166v26h-166v103h174v28h-204v-289h208zM1556 575h29v125h164v27h-164v109h170v28h-199v-289zM2042 864h-29v-178 q0 -43 -24.5 -65.5t-61.5 -22.5q-38 0 -62 24t-24 64v178h-29v-178q0 -56 33 -85.5t82 -29.5q50 0 82.5 29.5t32.5 85.5v178zM2148 864h-30v-289h190v27h-160v262zM2384 864h-29v-289h191v27h-162v262zM1438 438l24 15q-35 51 -108 51q-43 0 -77 -20t-34 -60 q0 -20 8.5 -34.5t27 -22.5t33 -12t40.5 -9q28 -5 44 -9.5t30 -17t14 -30.5q0 -56 -86 -56q-70 0 -94 50l-27 -15q16 -32 49.5 -47.5t71.5 -15.5q48 0 82 19.5t34 64.5q0 29 -18.5 47t-39 24.5t-56.5 12.5q-28 5 -43 9t-28 15t-13 27q0 28 24.5 39.5t57.5 11.5q64 0 84 -37z M1913 354q0 61 -39 105.5t-109 44.5q-67 0 -106 -43.5t-39 -106.5q0 -62 38 -106t107 -43q69 -1 108.5 43t39.5 106zM522 209l121 291h-33l-104 -258l-109 258h-30l122 -291h33zM901 209v29h-178v104h166v27h-166v102h174v29h-203v-291h207zM1202 209l-100 108q43 3 65.5 29 t22.5 62q0 39 -25.5 65.5t-70.5 26.5h-129v-291h28v106h74l96 -106h39zM1530 209h29v291h-29v-291zM2179 264l-186 236h-19v-291h29v233l186 -233h17v291h-29v-140zM1765 231q-55 0 -84.5 35.5t-31.5 87.5t29 87t87 34q57 1 88 -34.5t31 -86.5t-31 -87t-88 -36zM993 471h101 q32 0 49.5 -17.5t17.5 -45.5q0 -29 -17.5 -46.5t-51.5 -17.5h-99v127z" />
<glyph unicode="," horiz-adv-x="348" d="M276 68q0 -100 -12 -170t-45 -162q-15 -17 -51 -17t-69.5 18.5t-24.5 41.5q26 67 32.5 120t6.5 158q0 41 40.5 58.5t81.5 3t41 -50.5z" />
<glyph unicode="-" d="M379 1008l31 -68h30l-131 289h-28l-129 -289h30l31 68h166zM594 940l121 289h-33l-104 -258l-109 258h-31l123 -289h33zM942 1008l29 -68h30l-129 289h-28l-131 -289h30l31 68h168zM1051 940h28v289h-28v-289zM1188 1229h-29v-289h191v27h-162v262zM1591 1008l31 -68h31 l-129 289h-29l-131 -289h31l30 68h166zM1825 1229h-123v-289h123q44 0 74 18.5t30 59.5q0 23 -14 42.5t-39 26.5q45 16 45 62q0 40 -27 60t-69 20zM2021 1229h-28v-289h188v27h-160v262zM2435 940v27h-178v104h168v27h-168v104h176v27h-205v-289h207zM1731 1102v100h94 q67 0 67 -53q0 -47 -65 -47h-96zM223 1032l72 166l74 -166h-146zM784 1032l74 166l72 -166h-146zM1436 1032l73 166l72 -166h-145zM1731 967v108h96q30 0 52 -14.5t22 -42.5q0 -51 -76 -51h-94zM102 575h29v289h-29v-289zM416 629l-187 235h-18v-289h29v232l186 -232h18v289 h-28v-235zM688 836v-261h29v261h102v28h-233v-28h102zM1069 575h29v289h-29v-135h-174v135h-29v-289h29v127h174v-127zM1386 575v27h-178v105h166v26h-166v103h174v28h-204v-289h208zM1556 575h29v125h164v27h-164v109h170v28h-199v-289zM2042 864h-29v-178 q0 -43 -24.5 -65.5t-61.5 -22.5q-38 0 -62 24t-24 64v178h-29v-178q0 -56 33 -85.5t82 -29.5q50 0 82.5 29.5t32.5 85.5v178zM2148 864h-30v-289h190v27h-160v262zM2384 864h-29v-289h191v27h-162v262zM1438 438l24 15q-35 51 -108 51q-43 0 -77 -20t-34 -60 q0 -20 8.5 -34.5t27 -22.5t33 -12t40.5 -9q28 -5 44 -9.5t30 -17t14 -30.5q0 -56 -86 -56q-70 0 -94 50l-27 -15q16 -32 49.5 -47.5t71.5 -15.5q48 0 82 19.5t34 64.5q0 29 -18.5 47t-39 24.5t-56.5 12.5q-28 5 -43 9t-28 15t-13 27q0 28 24.5 39.5t57.5 11.5q64 0 84 -37z M1913 354q0 61 -39 105.5t-109 44.5q-67 0 -106 -43.5t-39 -106.5q0 -62 38 -106t107 -43q69 -1 108.5 43t39.5 106zM522 209l121 291h-33l-104 -258l-109 258h-30l122 -291h33zM901 209v29h-178v104h166v27h-166v102h174v29h-203v-291h207zM1202 209l-100 108q43 3 65.5 29 t22.5 62q0 39 -25.5 65.5t-70.5 26.5h-129v-291h28v106h74l96 -106h39zM1530 209h29v291h-29v-291zM2179 264l-186 236h-19v-291h29v233l186 -233h17v291h-29v-140zM1765 231q-55 0 -84.5 35.5t-31.5 87.5t29 87t87 34q57 1 88 -34.5t31 -86.5t-31 -87t-88 -36zM993 471h101 q32 0 49.5 -17.5t17.5 -45.5q0 -29 -17.5 -46.5t-51.5 -17.5h-99v127z" />
<glyph unicode="." horiz-adv-x="329" d="M168 190q51 -1 72 -42.5t16 -94.5q-3 -36 -35.5 -59t-70.5 -23q-34 4 -54.5 29t-23 57.5t6 64t33 51.5t56.5 17z" />
<glyph unicode="/" d="M379 1008l31 -68h30l-131 289h-28l-129 -289h30l31 68h166zM594 940l121 289h-33l-104 -258l-109 258h-31l123 -289h33zM942 1008l29 -68h30l-129 289h-28l-131 -289h30l31 68h168zM1051 940h28v289h-28v-289zM1188 1229h-29v-289h191v27h-162v262zM1591 1008l31 -68h31 l-129 289h-29l-131 -289h31l30 68h166zM1825 1229h-123v-289h123q44 0 74 18.5t30 59.5q0 23 -14 42.5t-39 26.5q45 16 45 62q0 40 -27 60t-69 20zM2021 1229h-28v-289h188v27h-160v262zM2435 940v27h-178v104h168v27h-168v104h176v27h-205v-289h207zM1731 1102v100h94 q67 0 67 -53q0 -47 -65 -47h-96zM223 1032l72 166l74 -166h-146zM784 1032l74 166l72 -166h-146zM1436 1032l73 166l72 -166h-145zM1731 967v108h96q30 0 52 -14.5t22 -42.5q0 -51 -76 -51h-94zM102 575h29v289h-29v-289zM416 629l-187 235h-18v-289h29v232l186 -232h18v289 h-28v-235zM688 836v-261h29v261h102v28h-233v-28h102zM1069 575h29v289h-29v-135h-174v135h-29v-289h29v127h174v-127zM1386 575v27h-178v105h166v26h-166v103h174v28h-204v-289h208zM1556 575h29v125h164v27h-164v109h170v28h-199v-289zM2042 864h-29v-178 q0 -43 -24.5 -65.5t-61.5 -22.5q-38 0 -62 24t-24 64v178h-29v-178q0 -56 33 -85.5t82 -29.5q50 0 82.5 29.5t32.5 85.5v178zM2148 864h-30v-289h190v27h-160v262zM2384 864h-29v-289h191v27h-162v262zM1438 438l24 15q-35 51 -108 51q-43 0 -77 -20t-34 -60 q0 -20 8.5 -34.5t27 -22.5t33 -12t40.5 -9q28 -5 44 -9.5t30 -17t14 -30.5q0 -56 -86 -56q-70 0 -94 50l-27 -15q16 -32 49.5 -47.5t71.5 -15.5q48 0 82 19.5t34 64.5q0 29 -18.5 47t-39 24.5t-56.5 12.5q-28 5 -43 9t-28 15t-13 27q0 28 24.5 39.5t57.5 11.5q64 0 84 -37z M1913 354q0 61 -39 105.5t-109 44.5q-67 0 -106 -43.5t-39 -106.5q0 -62 38 -106t107 -43q69 -1 108.5 43t39.5 106zM522 209l121 291h-33l-104 -258l-109 258h-30l122 -291h33zM901 209v29h-178v104h166v27h-166v102h174v29h-203v-291h207zM1202 209l-100 108q43 3 65.5 29 t22.5 62q0 39 -25.5 65.5t-70.5 26.5h-129v-291h28v106h74l96 -106h39zM1530 209h29v291h-29v-291zM2179 264l-186 236h-19v-291h29v233l186 -233h17v291h-29v-140zM1765 231q-55 0 -84.5 35.5t-31.5 87.5t29 87t87 34q57 1 88 -34.5t31 -86.5t-31 -87t-88 -36zM993 471h101 q32 0 49.5 -17.5t17.5 -45.5q0 -29 -17.5 -46.5t-51.5 -17.5h-99v127z" />
<glyph unicode="0" horiz-adv-x="1091" d="M508 1405q23 5 47.5 -5t40.5 -26q117 -43 203 -120t131 -163.5t65 -185.5q24 -128 26 -241.5t-13 -229.5q-14 -86 -49 -161.5t-88.5 -137.5t-133 -98.5t-174.5 -36.5q-146 0 -247.5 42.5t-161.5 128.5t-86.5 201.5t-28.5 274.5q-2 276 119.5 474t349.5 284zM520 1245 q-120 -56 -192.5 -144.5t-102.5 -219.5q-26 -131 -27.5 -208t13.5 -202q3 -63 22.5 -116t58.5 -99.5t108.5 -73t162.5 -26.5q82 0 145 42.5t103 116.5q59 120 53 342q0 106 -35 281q-68 216 -309 307z" />
<glyph unicode="1" horiz-adv-x="935" d="M57 924q22 23 79.5 75.5t98.5 92.5t97.5 111.5t99.5 150.5q22 36 53 48.5t56 3.5t39 -36.5t4 -64.5q-22 -65 -27.5 -234t0.5 -344.5t8.5 -346.5t-2.5 -239q13 0 34.5 1t79 3.5t122.5 4.5q35 0 54 -35t9.5 -71t-45.5 -40q-98 -7 -200 -8.5t-254.5 0.5t-215.5 2 q-25 0 -36 38.5t-1.5 77t35.5 38.5q192 0 256 -5q11 105 10.5 476t10.5 497q-141 -183 -266 -280q-19 -14 -52 -0.5t-48 38t1 46.5z" />
<glyph unicode="2" horiz-adv-x="1116" d="M492 1423q109 2 193.5 -26.5t132.5 -79.5t67 -117.5t1.5 -145t-69.5 -157.5q-142 -251 -504 -694q122 43 322 -33q49 -18 96 -28.5t89 -8.5t57 21q21 29 18.5 80t-13.5 92t-23.5 84.5t-12.5 58.5q-12 41 32 57q44 15 85 -7q32 -17 36 -50q3 -41 14 -108.5t16.5 -113.5 t3.5 -97.5t-26 -86.5t-71 -53q-51 -21 -107.5 -24.5t-124 10.5t-126.5 33t-148 53q-59 22 -140 0.5t-151 -76.5q-63 -32 -99 -12q-41 23 0 97q28 48 91 110q38 38 85.5 95.5t80.5 101t95 128t91 123.5q11 15 33 44q51 68 75 101t57.5 86.5t47 89.5t23 83t6.5 94 q-3 39 -22 65t-53 38.5t-70.5 16.5t-87.5 3q-74 -1 -128.5 -49.5t-78.5 -116.5q-59 -154 -52 -240q-2 -25 -19 -43.5t-40 -23.5t-45.5 -1.5t-38.5 22t-16 46.5q-2 94 25.5 211.5t97.5 198.5q53 66 132.5 107t162.5 42z" />
<glyph unicode="3" horiz-adv-x="1030" d="M195 1391l571 6q67 6 91.5 -33.5t-15.5 -89.5q-34 -47 -99.5 -95.5t-141 -98t-114.5 -85.5q149 18 208 15q126 -6 202 -74q59 -58 86.5 -136t23 -164.5t-25 -170t-57.5 -170.5q-68 -154 -171 -224.5t-264 -70.5q-224 0 -322 96.5t-110 323.5q-2 101 9 207q9 28 48.5 35.5 t74.5 -9.5t32 -49q-3 -40 -5 -107t11.5 -149t38.5 -117q81 -92 217 -92q68 0 116.5 15.5t81 48.5t51 64.5t40.5 84.5q32 84 48.5 164t10 164t-46.5 137q-43 45 -105.5 59.5t-114 6t-118 -21.5t-98.5 -13q-53 0 -82 20t-28 48t28 55q94 97 389 301q-101 0 -245.5 -7 t-214.5 -20q-41 -5 -57.5 29.5t0.5 73t57 43.5z" />
<glyph unicode="4" horiz-adv-x="1284" d="M793 1372q27 45 60.5 55.5t57 -19.5t23.5 -93q0 -128 -5 -303.5t-3.5 -298.5t14.5 -275q95 6 197 2q25 -1 30 -37t-9.5 -72t-37.5 -36q-11 0 -49.5 1t-67.5 0.5t-51 -3.5q7 -158 -4 -213q-18 -48 -72 -69q-52 -19 -77 7q-17 17 -8 52q3 25 3.5 94.5t-1.5 109.5 q-131 -12 -210 -5.5t-207 5t-259 -21.5q-24 1 -46 24.5t-25 59.5t32 78q26 33 323 443.5t392 514.5zM782 1114q-268 -346 -503 -698q122 9 258 3.5t239 2.5q-13 137 6 692z" />
<glyph unicode="5" horiz-adv-x="966" d="M758 1415q75 8 86 -41q10 -41 -24 -81q-30 -36 -70 -36q-102 3 -204 -7t-159.5 -17.5t-181.5 0.5l12 -209q139 39 240 41q106 2 194 -28t153 -98.5t87 -168.5q6 -27 8 -77t2 -91t-1 -94t-1 -64q0 -116 -32 -202t-105 -150q-90 -83 -257.5 -92.5t-279.5 53.5 q-64 34 -103.5 90.5t-54 124t-19.5 128.5t-7.5 130t-9.5 103q-3 21 35 36t78.5 12t43.5 -24q2 -16 5.5 -127.5t19 -198t51.5 -114.5q87 -64 201.5 -65t193.5 59q37 25 55.5 71t18.5 95q0 2 2.5 130t1.5 156q-3 107 -40 156t-130 84q-70 23 -133 26.5t-119 -6.5t-143 -36 q-54 -28 -89.5 3t-21.5 83q3 35 -3.5 157t-6.5 140q-20 36 2 87t64 48q116 -8 201 -8.5t132.5 3t134 10t173.5 9.5z" />
<glyph unicode="6" horiz-adv-x="1146" d="M637 1419q67 0 119 -9t91.5 -29.5t68 -48.5t49 -70.5t34.5 -90.5t25 -114q4 -49 -28.5 -78.5t-71 -18.5t-50.5 62q-12 61 -25 99.5t-38.5 74.5t-68.5 53t-105 17q-102 0 -179.5 -64.5t-109.5 -163.5q-32 -121 -37 -290q185 174 344 174q52 0 94.5 -5t90.5 -21t83.5 -43 t64.5 -74t42 -111q31 -94 24.5 -225t-50.5 -232q-19 -49 -45.5 -86.5t-58.5 -61t-63.5 -39t-70 -22.5t-69 -9.5t-68.5 -2.5q-162 0 -271 73t-155 199q-37 95 -35 187q-78 -65 -122 -55q-31 7 -26 52q12 34 56 88t84 84q0 218 12 347q23 203 155.5 328.5t309.5 125.5z M655 768q-151 0 -342 -201q1 -26 3.5 -49t7 -48t7.5 -39.5t10 -44t9 -40.5q60 -201 279 -201q133 8 194 72q74 85 64 283q-8 135 -59 201.5t-173 66.5z" />
<glyph unicode="7" horiz-adv-x="1042" d="M872 1411q69 6 93.5 -30t3.5 -78q-181 -369 -252 -516.5t-158.5 -348.5t-155.5 -387q-11 -18 -49 -17.5t-75 19t-29 39.5q130 349 244 594q55 121 142.5 294t137.5 284q-107 0 -347.5 -9t-317.5 -2q-25 12 -30.5 50t9 71t37.5 31q139 -17 400.5 -3.5t346.5 9.5z" />
<glyph unicode="8" horiz-adv-x="1140" d="M518 1419q167 1 260 -69t107 -193q6 -64 -25.5 -147.5t-91.5 -137.5q62 -23 100.5 -40t83.5 -52t66 -78q115 -251 -35 -516q-35 -59 -96 -99t-127 -58.5t-140.5 -25t-134 -3t-110.5 13.5q-98 16 -168.5 63t-107 113.5t-50 140t-6.5 152.5q9 114 84 208t195 153 q-175 86 -156 278q6 59 32 112t69.5 94t108.5 65.5t142 25.5zM510 1266q-82 0 -132 -51t-50 -128q0 -86 63 -145.5t137 -56.5q75 5 136.5 72t62.5 165q1 73 -55.5 108.5t-161.5 35.5zM563 774q-77 -13 -141 -39t-114.5 -66.5t-77.5 -100t-23 -132.5q3 -77 25.5 -134.5 t60 -90t82.5 -51.5t101 -22.5t107.5 1.5t108.5 17q80 22 140.5 97t72.5 171q4 51 5 72t-8 62.5t-32 80.5q-22 38 -48.5 62t-69.5 38t-80 20.5t-109 14.5z" />
<glyph unicode="9" horiz-adv-x="940" d="M451 1446q74 0 137 -14t107.5 -39.5t80 -59.5t55 -74.5t32.5 -84.5t12.5 -89.5t-5.5 -89.5q-19 -119 -72 -266.5t-102 -250t-119.5 -241t-89.5 -178.5q-24 -49 -78 -56q-49 -7 -70 26q-16 25 -3 63q32 86 135 274.5t133 266.5l-23 -11.5l-25 -12.5t-28 -12.5t-31 -11 t-34 -8.5t-37 -4.5t-41 0.5q-76 6 -136 34t-98.5 70.5t-63 99.5t-34 117.5t-8.5 127.5q2 86 26.5 158.5t73 130t126.5 93t180 42.5zM455 1290q-71 -5 -122.5 -31.5t-77 -67t-37 -80.5t-13.5 -85q-3 -25 -0.5 -57t6 -64.5t18 -65t35 -59.5t57.5 -48t85 -30q65 0 120.5 22 t92.5 58.5t63 84t37 98.5t10 100t-14 90q-39 132 -260 135z" />
<glyph unicode=":" d="M379 1008l31 -68h30l-131 289h-28l-129 -289h30l31 68h166zM594 940l121 289h-33l-104 -258l-109 258h-31l123 -289h33zM942 1008l29 -68h30l-129 289h-28l-131 -289h30l31 68h168zM1051 940h28v289h-28v-289zM1188 1229h-29v-289h191v27h-162v262zM1591 1008l31 -68h31 l-129 289h-29l-131 -289h31l30 68h166zM1825 1229h-123v-289h123q44 0 74 18.5t30 59.5q0 23 -14 42.5t-39 26.5q45 16 45 62q0 40 -27 60t-69 20zM2021 1229h-28v-289h188v27h-160v262zM2435 940v27h-178v104h168v27h-168v104h176v27h-205v-289h207zM1731 1102v100h94 q67 0 67 -53q0 -47 -65 -47h-96zM223 1032l72 166l74 -166h-146zM784 1032l74 166l72 -166h-146zM1436 1032l73 166l72 -166h-145zM1731 967v108h96q30 0 52 -14.5t22 -42.5q0 -51 -76 -51h-94zM102 575h29v289h-29v-289zM416 629l-187 235h-18v-289h29v232l186 -232h18v289 h-28v-235zM688 836v-261h29v261h102v28h-233v-28h102zM1069 575h29v289h-29v-135h-174v135h-29v-289h29v127h174v-127zM1386 575v27h-178v105h166v26h-166v103h174v28h-204v-289h208zM1556 575h29v125h164v27h-164v109h170v28h-199v-289zM2042 864h-29v-178 q0 -43 -24.5 -65.5t-61.5 -22.5q-38 0 -62 24t-24 64v178h-29v-178q0 -56 33 -85.5t82 -29.5q50 0 82.5 29.5t32.5 85.5v178zM2148 864h-30v-289h190v27h-160v262zM2384 864h-29v-289h191v27h-162v262zM1438 438l24 15q-35 51 -108 51q-43 0 -77 -20t-34 -60 q0 -20 8.5 -34.5t27 -22.5t33 -12t40.5 -9q28 -5 44 -9.5t30 -17t14 -30.5q0 -56 -86 -56q-70 0 -94 50l-27 -15q16 -32 49.5 -47.5t71.5 -15.5q48 0 82 19.5t34 64.5q0 29 -18.5 47t-39 24.5t-56.5 12.5q-28 5 -43 9t-28 15t-13 27q0 28 24.5 39.5t57.5 11.5q64 0 84 -37z M1913 354q0 61 -39 105.5t-109 44.5q-67 0 -106 -43.5t-39 -106.5q0 -62 38 -106t107 -43q69 -1 108.5 43t39.5 106zM522 209l121 291h-33l-104 -258l-109 258h-30l122 -291h33zM901 209v29h-178v104h166v27h-166v102h174v29h-203v-291h207zM1202 209l-100 108q43 3 65.5 29 t22.5 62q0 39 -25.5 65.5t-70.5 26.5h-129v-291h28v106h74l96 -106h39zM1530 209h29v291h-29v-291zM2179 264l-186 236h-19v-291h29v233l186 -233h17v291h-29v-140zM1765 231q-55 0 -84.5 35.5t-31.5 87.5t29 87t87 34q57 1 88 -34.5t31 -86.5t-31 -87t-88 -36zM993 471h101 q32 0 49.5 -17.5t17.5 -45.5q0 -29 -17.5 -46.5t-51.5 -17.5h-99v127z" />
<glyph unicode=";" d="M379 1008l31 -68h30l-131 289h-28l-129 -289h30l31 68h166zM594 940l121 289h-33l-104 -258l-109 258h-31l123 -289h33zM942 1008l29 -68h30l-129 289h-28l-131 -289h30l31 68h168zM1051 940h28v289h-28v-289zM1188 1229h-29v-289h191v27h-162v262zM1591 1008l31 -68h31 l-129 289h-29l-131 -289h31l30 68h166zM1825 1229h-123v-289h123q44 0 74 18.5t30 59.5q0 23 -14 42.5t-39 26.5q45 16 45 62q0 40 -27 60t-69 20zM2021 1229h-28v-289h188v27h-160v262zM2435 940v27h-178v104h168v27h-168v104h176v27h-205v-289h207zM1731 1102v100h94 q67 0 67 -53q0 -47 -65 -47h-96zM223 1032l72 166l74 -166h-146zM784 1032l74 166l72 -166h-146zM1436 1032l73 166l72 -166h-145zM1731 967v108h96q30 0 52 -14.5t22 -42.5q0 -51 -76 -51h-94zM102 575h29v289h-29v-289zM416 629l-187 235h-18v-289h29v232l186 -232h18v289 h-28v-235zM688 836v-261h29v261h102v28h-233v-28h102zM1069 575h29v289h-29v-135h-174v135h-29v-289h29v127h174v-127zM1386 575v27h-178v105h166v26h-166v103h174v28h-204v-289h208zM1556 575h29v125h164v27h-164v109h170v28h-199v-289zM2042 864h-29v-178 q0 -43 -24.5 -65.5t-61.5 -22.5q-38 0 -62 24t-24 64v178h-29v-178q0 -56 33 -85.5t82 -29.5q50 0 82.5 29.5t32.5 85.5v178zM2148 864h-30v-289h190v27h-160v262zM2384 864h-29v-289h191v27h-162v262zM1438 438l24 15q-35 51 -108 51q-43 0 -77 -20t-34 -60 q0 -20 8.5 -34.5t27 -22.5t33 -12t40.5 -9q28 -5 44 -9.5t30 -17t14 -30.5q0 -56 -86 -56q-70 0 -94 50l-27 -15q16 -32 49.5 -47.5t71.5 -15.5q48 0 82 19.5t34 64.5q0 29 -18.5 47t-39 24.5t-56.5 12.5q-28 5 -43 9t-28 15t-13 27q0 28 24.5 39.5t57.5 11.5q64 0 84 -37z M1913 354q0 61 -39 105.5t-109 44.5q-67 0 -106 -43.5t-39 -106.5q0 -62 38 -106t107 -43q69 -1 108.5 43t39.5 106zM522 209l121 291h-33l-104 -258l-109 258h-30l122 -291h33zM901 209v29h-178v104h166v27h-166v102h174v29h-203v-291h207zM1202 209l-100 108q43 3 65.5 29 t22.5 62q0 39 -25.5 65.5t-70.5 26.5h-129v-291h28v106h74l96 -106h39zM1530 209h29v291h-29v-291zM2179 264l-186 236h-19v-291h29v233l186 -233h17v291h-29v-140zM1765 231q-55 0 -84.5 35.5t-31.5 87.5t29 87t87 34q57 1 88 -34.5t31 -86.5t-31 -87t-88 -36zM993 471h101 q32 0 49.5 -17.5t17.5 -45.5q0 -29 -17.5 -46.5t-51.5 -17.5h-99v127z" />
<glyph unicode="&#x3c;" d="M379 1008l31 -68h30l-131 289h-28l-129 -289h30l31 68h166zM594 940l121 289h-33l-104 -258l-109 258h-31l123 -289h33zM942 1008l29 -68h30l-129 289h-28l-131 -289h30l31 68h168zM1051 940h28v289h-28v-289zM1188 1229h-29v-289h191v27h-162v262zM1591 1008l31 -68h31 l-129 289h-29l-131 -289h31l30 68h166zM1825 1229h-123v-289h123q44 0 74 18.5t30 59.5q0 23 -14 42.5t-39 26.5q45 16 45 62q0 40 -27 60t-69 20zM2021 1229h-28v-289h188v27h-160v262zM2435 940v27h-178v104h168v27h-168v104h176v27h-205v-289h207zM1731 1102v100h94 q67 0 67 -53q0 -47 -65 -47h-96zM223 1032l72 166l74 -166h-146zM784 1032l74 166l72 -166h-146zM1436 1032l73 166l72 -166h-145zM1731 967v108h96q30 0 52 -14.5t22 -42.5q0 -51 -76 -51h-94zM102 575h29v289h-29v-289zM416 629l-187 235h-18v-289h29v232l186 -232h18v289 h-28v-235zM688 836v-261h29v261h102v28h-233v-28h102zM1069 575h29v289h-29v-135h-174v135h-29v-289h29v127h174v-127zM1386 575v27h-178v105h166v26h-166v103h174v28h-204v-289h208zM1556 575h29v125h164v27h-164v109h170v28h-199v-289zM2042 864h-29v-178 q0 -43 -24.5 -65.5t-61.5 -22.5q-38 0 -62 24t-24 64v178h-29v-178q0 -56 33 -85.5t82 -29.5q50 0 82.5 29.5t32.5 85.5v178zM2148 864h-30v-289h190v27h-160v262zM2384 864h-29v-289h191v27h-162v262zM1438 438l24 15q-35 51 -108 51q-43 0 -77 -20t-34 -60 q0 -20 8.5 -34.5t27 -22.5t33 -12t40.5 -9q28 -5 44 -9.5t30 -17t14 -30.5q0 -56 -86 -56q-70 0 -94 50l-27 -15q16 -32 49.5 -47.5t71.5 -15.5q48 0 82 19.5t34 64.5q0 29 -18.5 47t-39 24.5t-56.5 12.5q-28 5 -43 9t-28 15t-13 27q0 28 24.5 39.5t57.5 11.5q64 0 84 -37z M1913 354q0 61 -39 105.5t-109 44.5q-67 0 -106 -43.5t-39 -106.5q0 -62 38 -106t107 -43q69 -1 108.5 43t39.5 106zM522 209l121 291h-33l-104 -258l-109 258h-30l122 -291h33zM901 209v29h-178v104h166v27h-166v102h174v29h-203v-291h207zM1202 209l-100 108q43 3 65.5 29 t22.5 62q0 39 -25.5 65.5t-70.5 26.5h-129v-291h28v106h74l96 -106h39zM1530 209h29v291h-29v-291zM2179 264l-186 236h-19v-291h29v233l186 -233h17v291h-29v-140zM1765 231q-55 0 -84.5 35.5t-31.5 87.5t29 87t87 34q57 1 88 -34.5t31 -86.5t-31 -87t-88 -36zM993 471h101 q32 0 49.5 -17.5t17.5 -45.5q0 -29 -17.5 -46.5t-51.5 -17.5h-99v127z" />
<glyph unicode="=" d="M379 1008l31 -68h30l-131 289h-28l-129 -289h30l31 68h166zM594 940l121 289h-33l-104 -258l-109 258h-31l123 -289h33zM942 1008l29 -68h30l-129 289h-28l-131 -289h30l31 68h168zM1051 940h28v289h-28v-289zM1188 1229h-29v-289h191v27h-162v262zM1591 1008l31 -68h31 l-129 289h-29l-131 -289h31l30 68h166zM1825 1229h-123v-289h123q44 0 74 18.5t30 59.5q0 23 -14 42.5t-39 26.5q45 16 45 62q0 40 -27 60t-69 20zM2021 1229h-28v-289h188v27h-160v262zM2435 940v27h-178v104h168v27h-168v104h176v27h-205v-289h207zM1731 1102v100h94 q67 0 67 -53q0 -47 -65 -47h-96zM223 1032l72 166l74 -166h-146zM784 1032l74 166l72 -166h-146zM1436 1032l73 166l72 -166h-145zM1731 967v108h96q30 0 52 -14.5t22 -42.5q0 -51 -76 -51h-94zM102 575h29v289h-29v-289zM416 629l-187 235h-18v-289h29v232l186 -232h18v289 h-28v-235zM688 836v-261h29v261h102v28h-233v-28h102zM1069 575h29v289h-29v-135h-174v135h-29v-289h29v127h174v-127zM1386 575v27h-178v105h166v26h-166v103h174v28h-204v-289h208zM1556 575h29v125h164v27h-164v109h170v28h-199v-289zM2042 864h-29v-178 q0 -43 -24.5 -65.5t-61.5 -22.5q-38 0 -62 24t-24 64v178h-29v-178q0 -56 33 -85.5t82 -29.5q50 0 82.5 29.5t32.5 85.5v178zM2148 864h-30v-289h190v27h-160v262zM2384 864h-29v-289h191v27h-162v262zM1438 438l24 15q-35 51 -108 51q-43 0 -77 -20t-34 -60 q0 -20 8.5 -34.5t27 -22.5t33 -12t40.5 -9q28 -5 44 -9.5t30 -17t14 -30.5q0 -56 -86 -56q-70 0 -94 50l-27 -15q16 -32 49.5 -47.5t71.5 -15.5q48 0 82 19.5t34 64.5q0 29 -18.5 47t-39 24.5t-56.5 12.5q-28 5 -43 9t-28 15t-13 27q0 28 24.5 39.5t57.5 11.5q64 0 84 -37z M1913 354q0 61 -39 105.5t-109 44.5q-67 0 -106 -43.5t-39 -106.5q0 -62 38 -106t107 -43q69 -1 108.5 43t39.5 106zM522 209l121 291h-33l-104 -258l-109 258h-30l122 -291h33zM901 209v29h-178v104h166v27h-166v102h174v29h-203v-291h207zM1202 209l-100 108q43 3 65.5 29 t22.5 62q0 39 -25.5 65.5t-70.5 26.5h-129v-291h28v106h74l96 -106h39zM1530 209h29v291h-29v-291zM2179 264l-186 236h-19v-291h29v233l186 -233h17v291h-29v-140zM1765 231q-55 0 -84.5 35.5t-31.5 87.5t29 87t87 34q57 1 88 -34.5t31 -86.5t-31 -87t-88 -36zM993 471h101 q32 0 49.5 -17.5t17.5 -45.5q0 -29 -17.5 -46.5t-51.5 -17.5h-99v127z" />
<glyph unicode="&#x3e;" d="M379 1008l31 -68h30l-131 289h-28l-129 -289h30l31 68h166zM594 940l121 289h-33l-104 -258l-109 258h-31l123 -289h33zM942 1008l29 -68h30l-129 289h-28l-131 -289h30l31 68h168zM1051 940h28v289h-28v-289zM1188 1229h-29v-289h191v27h-162v262zM1591 1008l31 -68h31 l-129 289h-29l-131 -289h31l30 68h166zM1825 1229h-123v-289h123q44 0 74 18.5t30 59.5q0 23 -14 42.5t-39 26.5q45 16 45 62q0 40 -27 60t-69 20zM2021 1229h-28v-289h188v27h-160v262zM2435 940v27h-178v104h168v27h-168v104h176v27h-205v-289h207zM1731 1102v100h94 q67 0 67 -53q0 -47 -65 -47h-96zM223 1032l72 166l74 -166h-146zM784 1032l74 166l72 -166h-146zM1436 1032l73 166l72 -166h-145zM1731 967v108h96q30 0 52 -14.5t22 -42.5q0 -51 -76 -51h-94zM102 575h29v289h-29v-289zM416 629l-187 235h-18v-289h29v232l186 -232h18v289 h-28v-235zM688 836v-261h29v261h102v28h-233v-28h102zM1069 575h29v289h-29v-135h-174v135h-29v-289h29v127h174v-127zM1386 575v27h-178v105h166v26h-166v103h174v28h-204v-289h208zM1556 575h29v125h164v27h-164v109h170v28h-199v-289zM2042 864h-29v-178 q0 -43 -24.5 -65.5t-61.5 -22.5q-38 0 -62 24t-24 64v178h-29v-178q0 -56 33 -85.5t82 -29.5q50 0 82.5 29.5t32.5 85.5v178zM2148 864h-30v-289h190v27h-160v262zM2384 864h-29v-289h191v27h-162v262zM1438 438l24 15q-35 51 -108 51q-43 0 -77 -20t-34 -60 q0 -20 8.5 -34.5t27 -22.5t33 -12t40.5 -9q28 -5 44 -9.5t30 -17t14 -30.5q0 -56 -86 -56q-70 0 -94 50l-27 -15q16 -32 49.5 -47.5t71.5 -15.5q48 0 82 19.5t34 64.5q0 29 -18.5 47t-39 24.5t-56.5 12.5q-28 5 -43 9t-28 15t-13 27q0 28 24.5 39.5t57.5 11.5q64 0 84 -37z M1913 354q0 61 -39 105.5t-109 44.5q-67 0 -106 -43.5t-39 -106.5q0 -62 38 -106t107 -43q69 -1 108.5 43t39.5 106zM522 209l121 291h-33l-104 -258l-109 258h-30l122 -291h33zM901 209v29h-178v104h166v27h-166v102h174v29h-203v-291h207zM1202 209l-100 108q43 3 65.5 29 t22.5 62q0 39 -25.5 65.5t-70.5 26.5h-129v-291h28v106h74l96 -106h39zM1530 209h29v291h-29v-291zM2179 264l-186 236h-19v-291h29v233l186 -233h17v291h-29v-140zM1765 231q-55 0 -84.5 35.5t-31.5 87.5t29 87t87 34q57 1 88 -34.5t31 -86.5t-31 -87t-88 -36zM993 471h101 q32 0 49.5 -17.5t17.5 -45.5q0 -29 -17.5 -46.5t-51.5 -17.5h-99v127z" />
<glyph unicode="?" horiz-adv-x="915" d="M473 1348q50 0 99 -9.5t98.5 -33t87 -58.5t61.5 -90t25 -123q1 -66 -26 -131t-70.5 -119.5t-88.5 -101t-92.5 -96.5t-70.5 -86q-19 -33 -24 -64.5t-1 -77.5t4 -55q0 -25 -39.5 -44.5t-79 -16.5t-39.5 34q0 199 39 271q22 43 65.5 96t87.5 100t85.5 96t67.5 98t26 91 q0 51 -17 79.5t-50 53.5q-35 25 -72 32t-100 7q-81 0 -137 -45t-79 -137q-6 -21 0 -98q0 -48 -51 -79q-46 -29 -80 -13q-23 10 -24 40q-14 99 6.5 197.5t91.5 169.5q116 113 297 113zM416 193q65 -9 65 -105q-5 -44 -31 -69.5t-63 -12.5q-38 8 -56.5 38.5t-15 63.5t30.5 59 t70 26z" />
<glyph unicode="@" horiz-adv-x="1703" d="M850 1536q413 -1 602.5 -214.5t189.5 -635.5q0 -194 -19.5 -326.5t-59.5 -207.5t-94 -106.5t-130 -31.5q-188 0 -237 168q-64 -78 -155 -125t-191 -51q-116 -4 -197.5 53.5t-122.5 158t-49 239.5q-5 63 1 138.5t24 161.5t56 164.5t89.5 142t131 101t175.5 35.5 q65 0 145.5 -41t110.5 -92q34 70 80 80q38 8 51 -29q8 -25 0 -63q-14 -69 -20 -113q-4 -37 -4.5 -118t1 -197.5t1.5 -153.5q-6 -143 0 -188q15 -110 100 -120q9 -1 19 -1q66 0 99.5 127t31.5 366q-1 144 -22.5 257t-63 190.5t-95 131t-126 83.5t-148 42.5t-168.5 12.5 q-320 0 -474 -205t-159 -624q-1 -133 18 -242.5t53 -188.5t85 -140t107.5 -99.5t126 -63t136 -35t142.5 -12.5q94 -3 175.5 13.5t111.5 38.5q14 9 32.5 4t34.5 -23t26.5 -38t9 -41t-18.5 -33q-38 -28 -147.5 -53.5t-229.5 -26.5q-85 4 -165.5 21t-163 52.5t-154 86.5 t-134.5 127.5t-108 171.5t-71.5 222.5t-27.5 276.5q11 250 72 438t165.5 304.5t242.5 174t309 56.5zM864 1053q-57 0 -105.5 -23t-81.5 -62.5t-59.5 -91.5t-40 -110t-23 -118.5t-8 -116t4.5 -103.5q13 -129 67 -197.5t130 -68.5q130 0 224.5 93.5t102.5 211.5q5 40 1.5 233 t2.5 254q-95 99 -215 99z" />
<glyph unicode="A" horiz-adv-x="1296" d="M698 1341q-13 48 -44 66.5t-66 -2.5t-58 -78q-44 -98 -127 -358.5t-124 -354.5h-86q-62 1 -81 -37q-16 -34 18 -63q31 -28 91 -31q-41 -69 -86.5 -189t-68.5 -204q-32 -85 18 -117q35 -22 79 -2q30 14 40 43q30 102 103.5 261t92.5 208h480q11 -30 74.5 -173t93.5 -249 q18 -61 73 -90q52 -28 81 -1q35 33 3 126q-25 65 -81.5 192.5t-80.5 192.5q9 0 29 1t29 1q86 8 112 59q22 41 -11 74q-29 29 -87 29q-27 -1 -68.5 -4t-58.5 -4q-91 164 -289 704zM621 1118q85 -260 192 -479q-30 1 -192 -2.5t-164 -3.5q25 58 83 240t81 245z" />
<glyph unicode="B" horiz-adv-x="1378" d="M76 1393q353 31 548 15q431 -36 431 -275q0 -67 -90.5 -123.5t-216.5 -71.5q179 -26 276 -78q61 -34 102 -63t80.5 -70.5t59.5 -94.5t20 -118q0 -95 -23 -174t-61.5 -134.5t-95 -99.5t-116 -71.5t-132.5 -48.5q-61 -16 -153.5 -21t-200 7t-185.5 42q-14 -28 -37.5 -45.5 t-47.5 -19.5t-44 6t-29 32t-1 58q-31 17 -45 29q-69 52 -68 104q0 38 39 46q28 6 66 -9q19 -5 41 -18q34 288 34 645q-120 -9 -151 48q-21 37 9 75q26 32 69 32h71q-6 126 -16 240h-49q-74 0 -104 60q-23 45 -6 78q9 17 26 18zM365 1251q15 -155 20 -250q191 -2 349.5 33.5 t158.5 95.5q0 34 -30.5 58.5t-81.5 37.5t-108 20.5t-121 8t-107.5 0t-79.5 -3.5zM449 842h-66q0 -103 -7 -270t-15 -288.5t-11 -121.5q92 -22 162 -32.5t147 -9t154 18.5q158 36 236.5 131.5t78.5 235.5q0 79 -59.5 146.5t-146.5 113.5q-88 37 -237.5 58t-235.5 18z" />
<glyph unicode="C" horiz-adv-x="1241" d="M680 1427q75 0 136 -8.5t105.5 -22.5t78.5 -38.5t56 -48.5t35.5 -60.5t20 -67.5t7.5 -77t-0.5 -80.5t-6.5 -85.5q0 -69 -54 -89q-45 -17 -83 11q-43 31 -27 88q10 62 11 106.5t-12 88.5t-45 71t-91 43.5t-145 16.5q-105 0 -194 -53.5t-147 -157.5t-67 -242q-3 -37 -3 -83 t4 -109t17 -125.5t32.5 -122.5t54 -110t79.5 -78q103 -61 206.5 -70.5t191.5 43.5q62 43 89.5 88.5t71.5 159.5q7 22 48 25t79.5 -13t38.5 -39q-53 -144 -103.5 -222.5t-133.5 -135.5q-54 -35 -131 -54t-142 -17t-118 15q-65 17 -129 52t-127 90.5t-110 141t-64 187.5 q-13 92 -18 145.5t-5.5 74.5t1 66.5t1.5 86.5q7 149 55 266.5t127.5 192t183.5 113t226 38.5z" />
<glyph unicode="D" horiz-adv-x="1560" d="M723 1419q145 -13 256 -39t203 -73.5t151 -117.5t92 -170.5t35 -232.5q1 -105 -20.5 -198t-61.5 -166.5t-94.5 -136.5t-121 -109t-139.5 -83.5t-150.5 -61.5t-153 -40t-149.5 -22.5t-137.5 -6.5t-117.5 7q-47 0 -72.5 34.5t-27.5 76.5q11 226 15 388.5t-0.5 367.5 t-22.5 370q-37 -15 -43 -16q-50 -24 -82.5 4t-27.5 75t46 70q241 80 623 80zM717 1255q-44 4 -160 0.5t-192 -14.5q54 -444 16 -1116q92 -11 211 2.5t239 50.5q212 67 336.5 231t124.5 367q0 126 -38.5 216.5t-115.5 145.5t-179.5 83t-241.5 34z" />
<glyph unicode="E" horiz-adv-x="1253" d="M1020 1401q53 2 74.5 -35t0 -76t-74.5 -43q-34 0 -211 3t-299 4t-199 -1q12 -249 15 -442q134 -9 343 -5t337 19q43 3 74.5 -10.5t41.5 -34.5t-6 -48t-59 -50q-89 -16 -204.5 -23.5t-196.5 -7t-190.5 3t-137.5 2.5q0 -40 6 -278t10 -268q95 -4 264 3.5t314.5 17 t164.5 9.5q76 -6 91 -52q14 -38 -25 -71q-35 -30 -96 -30q-128 0 -242 -8q-2 0 -98.5 -8.5t-193 -11.5t-261.5 -3q-12 0 -38 18.5t-27 38.5q-11 43 -16.5 88.5t-6 76.5t-0.5 96v24q1 36 -1 113t-4.5 145t-2.5 74q-14 530 -14 614l-35 -6q-40 -1 -62.5 19t-23 46t17 52 t49.5 35q71 9 90 10q80 8 382 7.5t450 -7.5z" />
<glyph unicode="F" horiz-adv-x="1232" d="M127 1380q480 27 634 25q205 -1 296 -33q50 -20 74.5 -58t15.5 -74t-47 -50q-36 -13 -72.5 13t-36.5 57q-74 8 -184 7t-280 -6.5t-183 -5.5q4 0 24 -258t17 -272q41 0 134 -5.5t172.5 -10.5t168.5 -3t141 15q17 7 35 -2t30.5 -28t19 -40.5t1 -40.5t-23.5 -26 q-105 -25 -210 -29.5t-253.5 3t-214.5 7.5l-2 -530q0 -45 -40 -61.5t-80 5t-40 68.5q0 272 -8 696q0 38 -7.5 234t-4.5 256l-64 -2q-40 5 -62 22.5t-23.5 39.5t17.5 46t56 41z" />
<glyph unicode="G" horiz-adv-x="1363" d="M631 1403q105 6 203.5 -10.5t184.5 -54.5t140 -110t58 -169q0 -37 -36.5 -62t-75 -13.5t-44.5 63.5q-4 58 -40.5 99.5t-87.5 59.5t-110 29t-108.5 8.5t-81.5 -2.5q-84 -4 -151.5 -43.5t-137.5 -107.5q-56 -56 -83.5 -146t-26 -182.5t15.5 -188.5q15 -90 41.5 -174.5 t54.5 -128.5q62 -81 171.5 -117t217.5 -27t191 50q69 31 112 90.5t43 149.5q0 12 2 96.5t2 116.5h-340q-26 0 -39.5 35.5t-8 71.5t27.5 36q12 0 114 -2t171 -2.5t127 2.5q34 0 64.5 -22t35.5 -76q0 -38 1.5 -101t2.5 -98.5t-2.5 -88.5t-11.5 -85.5t-25.5 -75t-44 -72 t-68 -60.5t-96.5 -56q-101 -40 -212 -54t-220 -0.5t-206.5 70t-159.5 150.5q-76 128 -109 356q-13 92 -13.5 179.5t13.5 175.5t52 164.5t98 129.5q109 93 199.5 142t195.5 55z" />
<glyph unicode="H" horiz-adv-x="1501" d="M1305 1382q0 -135 5.5 -294t16 -328t18.5 -278.5t20 -264t13 -166.5q0 -52 -39 -77t-78.5 -6.5t-39.5 71.5q-6 200 -31 416q-43 0 -225 -3.5t-302 -4.5t-255 4q5 -46 8 -121l-2 -336q0 -32 -40 -52t-80 -10.5t-40 48.5q0 9 1.5 78t2 130.5t-2.5 140t-11 128.5l-66 -1 q-67 -2 -84 -1q-31 2 -34.5 42t16 78.5t43.5 36.5h108q-4 30 -7 171.5t-5 346.5t-2 216q0 34 39.5 52.5t79.5 8t41 -46.5q2 -68 3.5 -248.5t4.5 -320t10 -181.5q77 -5 138.5 -7t142 -2t126 1t175 3.5t205.5 4.5q-31 348 -31 762q0 27 39.5 42.5t79 7t39.5 -39.5z" />
<glyph unicode="I" horiz-adv-x="1013" d="M117 1386q71 0 251.5 10.5t317.5 10.5q111 0 159.5 -29t49.5 -96q0 -24 -22.5 -37t-58.5 -8t-69 31q-21 0 -99 -3.5t-107 -4.5q0 -466 10 -609q14 -203 14 -534q216 -10 301 0q28 6 37 -34q10 -47 -14 -86q-16 -27 -43 -28q-123 -6 -339.5 2.5t-363.5 -2.5 q-30 -2 -51.5 32t-9 72.5t66.5 45.5q48 4 142 5t112 -1q0 148 -0.5 238.5t-2.5 204.5t-3 161t-6 233t-8 297q-22 0 -117 -7t-149 -7q-33 0 -48.5 36t-1.5 72t52 35z" />
<glyph unicode="J" horiz-adv-x="1146" d="M965 1417q42 -4 65 -25.5t22 -48t-16 -51.5q0 -40 11 -305.5t10 -310.5q-3 -194 -29.5 -307.5t-75.5 -184.5q-56 -78 -109.5 -121.5t-135 -68.5t-203.5 -29q-219 31 -326 154q-18 20 -31.5 46.5t-21 59t-12.5 59t-7 64.5t-2.5 55t0.5 51v33q-1 26 38 36t79 -1t41 -37 q1 -13 3.5 -60t5 -78.5t12 -71.5t24.5 -64q61 -90 209 -98q71 -5 155 27.5t138 103.5q36 47 58 120.5t27.5 162.5t6 159.5t-3.5 158.5t-4 113q-11 150 -14 299q-60 6 -265 -4t-268 -4q-53 6 -73.5 46.5t2 77t75.5 32.5q136 -13 339 2t276 10z" />
<glyph unicode="K" horiz-adv-x="1204" d="M229 1372q38 -231 45 -606q162 80 379 274q88 79 140.5 167.5t52.5 142.5q0 23 39.5 42t79 16.5t39.5 -30.5q0 -91 -47 -195.5t-154 -203.5q-132 -122 -279 -221q79 -60 169.5 -142t184.5 -180.5t164 -201.5t88 -181q2 -29 -9 -51t-28.5 -32t-36 -12t-35.5 8t-24 30 q-52 141 -233 335.5t-381 346.5q-75 -33 -108 -62l-1 -2q0 -41 -2 -300t-2 -306q0 -24 -39 -40t-78.5 -9.5t-39.5 35.5q0 32 3 239.5t3 358t-11.5 364.5t-35.5 365q-8 47 41 78q46 29 84 14q27 -10 32 -41z" />
<glyph unicode="L" horiz-adv-x="1142" d="M229 1331q0 -215 18 -458.5t32.5 -439t7.5 -335.5q121 8 242.5 5.5t263.5 -8.5t165 -5q-4 0 -6.5 39t-2 88t4.5 74q5 21 40.5 31.5t68 3t29.5 -30.5q-2 -21 0 -135.5t-7 -155.5q-14 -47 -98 -47q-5 0 -112 3.5t-221.5 6.5t-247.5 1t-203 -11q-41 0 -60.5 35t-19.5 74 q9 221 -21 649t-28 614q0 33 16 55.5t39 28t45.5 0.5t38.5 -27t16 -55z" />
<glyph unicode="M" horiz-adv-x="1804" d="M1208 1376q-126 -258 -338 -1095q-76 165 -141.5 378.5t-121.5 438.5t-68 264q-11 40 -36.5 55.5t-50.5 8t-46 -31.5t-25 -55q-61 -193 -153 -644t-158 -652q-9 -56 20.5 -83.5t70.5 -11t60 69.5q18 54 36.5 121.5t32.5 123.5t38 160.5t37.5 165.5t46 210t49.5 227 q162 -657 350 -1008q19 -36 43.5 -51t45 -9.5t37 21.5t24.5 37q58 169 146 515.5t150 539.5q24 -103 112 -379t104 -342q27 -129 51.5 -208t66.5 -158q31 -35 73 -32t69.5 38.5t5.5 70.5q-12 22 -25 52t-21 52t-21 63.5t-17.5 56t-18 62t-14.5 52.5q-18 70 -125.5 429.5 t-138.5 506.5q-4 47 -33 69.5t-63.5 14t-53.5 -42.5z" />
<glyph unicode="N" horiz-adv-x="1298" d="M1174 1382q0 -95 20.5 -590t5.5 -716q-3 -49 -29.5 -72.5t-62 -6.5t-59.5 73q-115 164 -195 272.5t-240.5 310.5t-371.5 449q28 -361 31.5 -558.5t-19.5 -500.5q-9 -55 -55 -74t-84 8t-29 84q17 163 20 366.5t-2.5 370.5t-19.5 419q-9 96 -4 135q4 49 31.5 72.5t62 8 t53.5 -68.5q103 -142 377 -449q69 -78 205 -258.5t244 -334.5q-1 38 -21 443t-20 607q0 34 40.5 49t81 3.5t40.5 -42.5z" />
<glyph unicode="O" horiz-adv-x="1341" d="M721 1423q167 -53 292 -181t175 -290q54 -174 57 -329q0 -141 -9.5 -198t-51.5 -144q-67 -137 -207 -220t-328 -90q-72 -3 -137.5 15.5t-119 55.5t-93.5 75t-80 88q-67 87 -103.5 174t-43.5 227q-13 171 -11 220q6 134 85 264q15 26 34 53q112 149 373 235q23 50 68.5 58 t99.5 -13zM686 1264q-80 -13 -195 -73t-174 -126q-33 -39 -53 -81t-26.5 -88t-8 -77t1 -81.5t2.5 -67.5q0 -74 10.5 -135t31.5 -108t38.5 -75t44.5 -63q135 -164 289 -164q85 0 172.5 37t153.5 104t84 144q42 160 12 309q-20 112 -48.5 197t-72.5 158.5t-109.5 121 t-152.5 68.5z" />
<glyph unicode="P" horiz-adv-x="1241" d="M754 1411q219 -14 333 -158q83 -115 74.5 -251.5t-100.5 -264.5q-39 -57 -110.5 -112.5t-133.5 -87.5q-216 -103 -448 -117q5 -268 24 -359q6 -41 -15 -68t-51 -30.5t-59 15t-35 57.5q-28 129 -28 387l-49 6q-40 14 -57.5 41t-6 54t46.5 40q29 8 51 6q-36 331 -36 586 q-20 -7 -31 -14q-16 -10 -41 0t-42.5 31t-25 44.5t10.5 40.5q112 71 372 123q213 43 357 31zM741 1272q-125 14 -219 -2.5t-205 -63.5q0 -240 35 -643q174 -5 420 117q48 24 108 72t89 98q39 66 42.5 137t-25.5 130t-93 101.5t-152 53.5z" />
<glyph unicode="Q" horiz-adv-x="1314" d="M717 1415q174 -51 294 -185.5t173 -305.5q51 -171 51 -320q2 -135 -6 -193.5t-47 -134.5q-23 -48 -69 -99t-97 -91l37 -55q17 -25 17.5 -48t-14.5 -39t-34 -24.5t-40.5 -5t-35.5 19.5q-6 10 -30.5 41t-30.5 41q-121 -47 -240 -53q-239 -9 -430 234q-64 79 -101.5 170.5 t-47.5 230.5q-5 59 -5.5 111.5t7.5 121.5t26 127t53.5 122t85.5 115t128 96.5t176 74.5q8 34 71.5 46t108.5 3zM696 1251q-256 -51 -365.5 -191.5t-109.5 -395.5q0 -74 11.5 -135.5t34 -109t39.5 -74.5t46 -64q136 -166 289 -166q64 0 150 28q-53 68 -66 99q-19 38 -10 64 t29.5 39t49 7t48.5 -33q22 -40 73 -106q118 95 140 186q23 88 26 158t-14 152q-20 111 -46.5 195t-69.5 156.5t-106.5 120.5t-148.5 70z" />
<glyph unicode="R" horiz-adv-x="1292" d="M287 1417q133 9 290.5 -12.5t299.5 -83.5q127 -55 206 -158.5t72 -249.5q-2 -53 -24 -96t-55 -71.5t-81 -49.5t-94 -32.5t-104.5 -18t-102.5 -8.5t-96 -2q20 -17 106.5 -113t171 -186.5t181 -161t149.5 -59.5q38 8 45 -35q8 -46 -20 -87q-20 -30 -49 -32 q-68 -4 -152.5 47t-166.5 134t-159 169.5t-155 167.5t-129 113q-50 21 -113 33q2 -79 21 -641q-2 -24 -40 -29t-75.5 8.5t-38.5 34.5q-43 879 -29 1239q-49 -11 -63 -18q-23 -10 -45 25t-22 72.5t24 53.5q43 14 62.5 20.5t73 15.5t112.5 11zM313 1266q-6 -212 -6 -484 q50 -7 90.5 -12t100.5 -10.5t109 -5.5t105.5 2.5t100.5 13.5t83.5 28t66 46t36.5 67q12 78 -35.5 151t-140.5 114q-123 52 -270 76t-240 14z" />
<glyph unicode="S" horiz-adv-x="1142" d="M965 1356q2 -24 7 -188t15 -224q0 -21 -19.5 -33.5t-44 -14t-45.5 7t-24 24.5q-36 260 -186 317q-73 36 -146.5 37.5t-136.5 -39.5q-42 -46 -25 -124.5t74 -129.5q49 -43 127.5 -96.5t146 -99t137 -101t123 -125.5t81.5 -151q32 -86 11.5 -166.5t-74 -143t-143.5 -101 t-196 -40.5q-328 -7 -510 244q-38 59 -67.5 143t-30.5 148q-1 28 39.5 46t82 13t42.5 -33q7 -150 84 -258q53 -66 153 -108.5t193 -42.5q128 0 206.5 60.5t59.5 178.5q-9 62 -57 126t-120 120t-143 104t-148.5 99t-115.5 84q-74 67 -102.5 152.5t-12 162t69.5 129.5 q71 69 182.5 79.5t216 -32t162.5 -118.5q0 7 -4 44t-4 44q-4 31 30.5 41t71.5 -2t40 -33z" />
<glyph unicode="T" horiz-adv-x="1159" d="M63 1413q111 -7 553 -8t471 -2q29 -3 32.5 -40t-14.5 -73t-42 -35q-133 3 -197 8q-27 1 -122 -2q-62 -2 -107 -4q18 -113 21 -299.5t-3 -348t-13 -342t-7 -247.5q-5 -35 -45 -50t-78.5 -4t-38.5 40q0 118 17.5 424t17.5 447q0 111 -25 383q-62 -2 -225.5 -1.5t-218.5 3.5 q-31 2 -34.5 40t15 75t43.5 36z" />
<glyph unicode="U" horiz-adv-x="1236" d="M965 1364q-4 37 43 45q50 9 94 -18q32 -20 31 -48q-1 -73 5.5 -234.5t9.5 -284.5t-10 -266.5t-48 -233.5q-30 -69 -74.5 -133t-102 -119t-131 -87.5t-149.5 -31.5q-106 2 -204 46.5t-175 125t-123 204.5t-47 271q0 463 -23 746q-3 35 18 57t49.5 25.5t57.5 -13.5t41 -51 q19 -265 19 -719q2 -150 46.5 -271t133 -195.5t205.5 -74.5q60 0 113.5 26.5t93 73t68.5 98.5t50 112q34 97 39.5 294t-4.5 354.5t-26 301.5z" />
<glyph unicode="V" horiz-adv-x="1095" d="M154 1393q49 -97 103 -267t95 -323t103.5 -323t128.5 -275q145 828 258 1169q11 32 34.5 49t47 16t44 -13.5t26 -41t-6.5 -65.5q-18 -56 -36 -120t-33 -117.5t-34 -131t-30.5 -124t-31 -135.5t-28 -126t-29 -135t-26 -123.5t-27 -130.5t-24.5 -119q-10 -44 -32 -68.5 t-48 -26t-52.5 17t-45.5 53.5q-87 127 -162.5 309.5t-121 340.5t-105.5 342t-115 296q-23 48 15 93q34 39 76 34q40 -5 57 -55z" />
<glyph unicode="W" horiz-adv-x="1738" d="M182 1397q30 -92 59.5 -200t60 -245t48 -220t50 -245t40.5 -200q30 76 153.5 472t145.5 517q3 45 52 40q48 -6 86 -45q20 -22 24 -44q18 -101 128.5 -431t193.5 -524q38 119 143 539t154 547q20 41 75 50q54 9 78 -23q18 -24 4 -64q-63 -168 -185 -646t-185 -646 q-21 -55 -48 -72t-55 4t-51 76q-54 125 -172 460t-170 494q-37 -108 -91 -274t-122 -377.5t-98 -304.5q-14 -35 -40.5 -55.5t-52 -22.5t-46.5 17t-25 57q-16 143 -123.5 635t-177.5 671q-19 37 13 71t72 32.5t62 -43.5z" />
<glyph unicode="X" horiz-adv-x="1161" d="M313 1391q192 -283 287 -463q105 165 252 438q18 37 80 41q60 3 85 -27q20 -23 3 -55q-35 -62 -93 -152.5t-136 -208.5t-109 -165q296 -525 436 -703q19 -29 6.5 -57.5t-40.5 -42.5t-57.5 -17.5t-45.5 17.5q-122 168 -377 635q-82 -146 -213.5 -369t-157.5 -264 q-40 -44 -110 -42q-59 1 -76 34q-14 26 16 61q83 108 208.5 313t240.5 433q-40 96 -136 243t-181 258q-13 23 -10 44t19.5 36.5t36.5 24.5t40.5 6t31.5 -18z" />
<glyph unicode="Y" horiz-adv-x="1071" d="M182 1380q87 -188 189 -379q81 -155 142.5 -241t152.5 -182q41 127 111.5 443t82.5 363q6 41 55 36q48 -5 79 -41q21 -24 18 -50q-15 -49 -30 -109.5t-33 -137.5t-27 -115q-9 -37 -46 -199t-57.5 -241.5t-62 -205.5t-86.5 -217q-38 -84 -114.5 -121.5t-159 -26 t-148.5 63.5q-41 31 -65 79t-30.5 101t-5.5 96t7 85q13 57 54.5 65t76.5 -23.5t30 -72.5q-7 -31 -5.5 -73.5t8.5 -81.5t31.5 -68t62.5 -33q26 -2 48.5 8t40 33t31 47t25.5 60.5t19.5 62t17 64.5t14.5 55q-66 52 -143.5 142t-136.5 188q-184 317 -287 549q-14 31 16 66 t67 39.5t58 -28.5z" />
<glyph unicode="Z" horiz-adv-x="1105" d="M166 1409q150 0 329 -6t256 -7.5t265 7.5q38 -1 57 -30t8 -68q-108 -114 -231 -293t-214.5 -335t-197 -321t-178.5 -250q51 0 360 7t345 0q24 -3 29 -39.5t-9.5 -72t-36.5 -34.5q-234 7 -470.5 -1t-356.5 1q-51 3 -69 36t9 93q79 69 189 230t202.5 323t201 339t177.5 263 q-102 0 -255 6t-228.5 8t-200.5 -5q-26 -2 -31.5 35.5t10 75.5t40.5 38z" />
<glyph unicode="[" d="M379 1008l31 -68h30l-131 289h-28l-129 -289h30l31 68h166zM594 940l121 289h-33l-104 -258l-109 258h-31l123 -289h33zM942 1008l29 -68h30l-129 289h-28l-131 -289h30l31 68h168zM1051 940h28v289h-28v-289zM1188 1229h-29v-289h191v27h-162v262zM1591 1008l31 -68h31 l-129 289h-29l-131 -289h31l30 68h166zM1825 1229h-123v-289h123q44 0 74 18.5t30 59.5q0 23 -14 42.5t-39 26.5q45 16 45 62q0 40 -27 60t-69 20zM2021 1229h-28v-289h188v27h-160v262zM2435 940v27h-178v104h168v27h-168v104h176v27h-205v-289h207zM1731 1102v100h94 q67 0 67 -53q0 -47 -65 -47h-96zM223 1032l72 166l74 -166h-146zM784 1032l74 166l72 -166h-146zM1436 1032l73 166l72 -166h-145zM1731 967v108h96q30 0 52 -14.5t22 -42.5q0 -51 -76 -51h-94zM102 575h29v289h-29v-289zM416 629l-187 235h-18v-289h29v232l186 -232h18v289 h-28v-235zM688 836v-261h29v261h102v28h-233v-28h102zM1069 575h29v289h-29v-135h-174v135h-29v-289h29v127h174v-127zM1386 575v27h-178v105h166v26h-166v103h174v28h-204v-289h208zM1556 575h29v125h164v27h-164v109h170v28h-199v-289zM2042 864h-29v-178 q0 -43 -24.5 -65.5t-61.5 -22.5q-38 0 -62 24t-24 64v178h-29v-178q0 -56 33 -85.5t82 -29.5q50 0 82.5 29.5t32.5 85.5v178zM2148 864h-30v-289h190v27h-160v262zM2384 864h-29v-289h191v27h-162v262zM1438 438l24 15q-35 51 -108 51q-43 0 -77 -20t-34 -60 q0 -20 8.5 -34.5t27 -22.5t33 -12t40.5 -9q28 -5 44 -9.5t30 -17t14 -30.5q0 -56 -86 -56q-70 0 -94 50l-27 -15q16 -32 49.5 -47.5t71.5 -15.5q48 0 82 19.5t34 64.5q0 29 -18.5 47t-39 24.5t-56.5 12.5q-28 5 -43 9t-28 15t-13 27q0 28 24.5 39.5t57.5 11.5q64 0 84 -37z M1913 354q0 61 -39 105.5t-109 44.5q-67 0 -106 -43.5t-39 -106.5q0 -62 38 -106t107 -43q69 -1 108.5 43t39.5 106zM522 209l121 291h-33l-104 -258l-109 258h-30l122 -291h33zM901 209v29h-178v104h166v27h-166v102h174v29h-203v-291h207zM1202 209l-100 108q43 3 65.5 29 t22.5 62q0 39 -25.5 65.5t-70.5 26.5h-129v-291h28v106h74l96 -106h39zM1530 209h29v291h-29v-291zM2179 264l-186 236h-19v-291h29v233l186 -233h17v291h-29v-140zM1765 231q-55 0 -84.5 35.5t-31.5 87.5t29 87t87 34q57 1 88 -34.5t31 -86.5t-31 -87t-88 -36zM993 471h101 q32 0 49.5 -17.5t17.5 -45.5q0 -29 -17.5 -46.5t-51.5 -17.5h-99v127z" />
<glyph unicode="\" d="M379 1008l31 -68h30l-131 289h-28l-129 -289h30l31 68h166zM594 940l121 289h-33l-104 -258l-109 258h-31l123 -289h33zM942 1008l29 -68h30l-129 289h-28l-131 -289h30l31 68h168zM1051 940h28v289h-28v-289zM1188 1229h-29v-289h191v27h-162v262zM1591 1008l31 -68h31 l-129 289h-29l-131 -289h31l30 68h166zM1825 1229h-123v-289h123q44 0 74 18.5t30 59.5q0 23 -14 42.5t-39 26.5q45 16 45 62q0 40 -27 60t-69 20zM2021 1229h-28v-289h188v27h-160v262zM2435 940v27h-178v104h168v27h-168v104h176v27h-205v-289h207zM1731 1102v100h94 q67 0 67 -53q0 -47 -65 -47h-96zM223 1032l72 166l74 -166h-146zM784 1032l74 166l72 -166h-146zM1436 1032l73 166l72 -166h-145zM1731 967v108h96q30 0 52 -14.5t22 -42.5q0 -51 -76 -51h-94zM102 575h29v289h-29v-289zM416 629l-187 235h-18v-289h29v232l186 -232h18v289 h-28v-235zM688 836v-261h29v261h102v28h-233v-28h102zM1069 575h29v289h-29v-135h-174v135h-29v-289h29v127h174v-127zM1386 575v27h-178v105h166v26h-166v103h174v28h-204v-289h208zM1556 575h29v125h164v27h-164v109h170v28h-199v-289zM2042 864h-29v-178 q0 -43 -24.5 -65.5t-61.5 -22.5q-38 0 -62 24t-24 64v178h-29v-178q0 -56 33 -85.5t82 -29.5q50 0 82.5 29.5t32.5 85.5v178zM2148 864h-30v-289h190v27h-160v262zM2384 864h-29v-289h191v27h-162v262zM1438 438l24 15q-35 51 -108 51q-43 0 -77 -20t-34 -60 q0 -20 8.5 -34.5t27 -22.5t33 -12t40.5 -9q28 -5 44 -9.5t30 -17t14 -30.5q0 -56 -86 -56q-70 0 -94 50l-27 -15q16 -32 49.5 -47.5t71.5 -15.5q48 0 82 19.5t34 64.5q0 29 -18.5 47t-39 24.5t-56.5 12.5q-28 5 -43 9t-28 15t-13 27q0 28 24.5 39.5t57.5 11.5q64 0 84 -37z M1913 354q0 61 -39 105.5t-109 44.5q-67 0 -106 -43.5t-39 -106.5q0 -62 38 -106t107 -43q69 -1 108.5 43t39.5 106zM522 209l121 291h-33l-104 -258l-109 258h-30l122 -291h33zM901 209v29h-178v104h166v27h-166v102h174v29h-203v-291h207zM1202 209l-100 108q43 3 65.5 29 t22.5 62q0 39 -25.5 65.5t-70.5 26.5h-129v-291h28v106h74l96 -106h39zM1530 209h29v291h-29v-291zM2179 264l-186 236h-19v-291h29v233l186 -233h17v291h-29v-140zM1765 231q-55 0 -84.5 35.5t-31.5 87.5t29 87t87 34q57 1 88 -34.5t31 -86.5t-31 -87t-88 -36zM993 471h101 q32 0 49.5 -17.5t17.5 -45.5q0 -29 -17.5 -46.5t-51.5 -17.5h-99v127z" />
<glyph unicode="]" d="M379 1008l31 -68h30l-131 289h-28l-129 -289h30l31 68h166zM594 940l121 289h-33l-104 -258l-109 258h-31l123 -289h33zM942 1008l29 -68h30l-129 289h-28l-131 -289h30l31 68h168zM1051 940h28v289h-28v-289zM1188 1229h-29v-289h191v27h-162v262zM1591 1008l31 -68h31 l-129 289h-29l-131 -289h31l30 68h166zM1825 1229h-123v-289h123q44 0 74 18.5t30 59.5q0 23 -14 42.5t-39 26.5q45 16 45 62q0 40 -27 60t-69 20zM2021 1229h-28v-289h188v27h-160v262zM2435 940v27h-178v104h168v27h-168v104h176v27h-205v-289h207zM1731 1102v100h94 q67 0 67 -53q0 -47 -65 -47h-96zM223 1032l72 166l74 -166h-146zM784 1032l74 166l72 -166h-146zM1436 1032l73 166l72 -166h-145zM1731 967v108h96q30 0 52 -14.5t22 -42.5q0 -51 -76 -51h-94zM102 575h29v289h-29v-289zM416 629l-187 235h-18v-289h29v232l186 -232h18v289 h-28v-235zM688 836v-261h29v261h102v28h-233v-28h102zM1069 575h29v289h-29v-135h-174v135h-29v-289h29v127h174v-127zM1386 575v27h-178v105h166v26h-166v103h174v28h-204v-289h208zM1556 575h29v125h164v27h-164v109h170v28h-199v-289zM2042 864h-29v-178 q0 -43 -24.5 -65.5t-61.5 -22.5q-38 0 -62 24t-24 64v178h-29v-178q0 -56 33 -85.5t82 -29.5q50 0 82.5 29.5t32.5 85.5v178zM2148 864h-30v-289h190v27h-160v262zM2384 864h-29v-289h191v27h-162v262zM1438 438l24 15q-35 51 -108 51q-43 0 -77 -20t-34 -60 q0 -20 8.5 -34.5t27 -22.5t33 -12t40.5 -9q28 -5 44 -9.5t30 -17t14 -30.5q0 -56 -86 -56q-70 0 -94 50l-27 -15q16 -32 49.5 -47.5t71.5 -15.5q48 0 82 19.5t34 64.5q0 29 -18.5 47t-39 24.5t-56.5 12.5q-28 5 -43 9t-28 15t-13 27q0 28 24.5 39.5t57.5 11.5q64 0 84 -37z M1913 354q0 61 -39 105.5t-109 44.5q-67 0 -106 -43.5t-39 -106.5q0 -62 38 -106t107 -43q69 -1 108.5 43t39.5 106zM522 209l121 291h-33l-104 -258l-109 258h-30l122 -291h33zM901 209v29h-178v104h166v27h-166v102h174v29h-203v-291h207zM1202 209l-100 108q43 3 65.5 29 t22.5 62q0 39 -25.5 65.5t-70.5 26.5h-129v-291h28v106h74l96 -106h39zM1530 209h29v291h-29v-291zM2179 264l-186 236h-19v-291h29v233l186 -233h17v291h-29v-140zM1765 231q-55 0 -84.5 35.5t-31.5 87.5t29 87t87 34q57 1 88 -34.5t31 -86.5t-31 -87t-88 -36zM993 471h101 q32 0 49.5 -17.5t17.5 -45.5q0 -29 -17.5 -46.5t-51.5 -17.5h-99v127z" />
<glyph unicode="^" d="M379 1008l31 -68h30l-131 289h-28l-129 -289h30l31 68h166zM594 940l121 289h-33l-104 -258l-109 258h-31l123 -289h33zM942 1008l29 -68h30l-129 289h-28l-131 -289h30l31 68h168zM1051 940h28v289h-28v-289zM1188 1229h-29v-289h191v27h-162v262zM1591 1008l31 -68h31 l-129 289h-29l-131 -289h31l30 68h166zM1825 1229h-123v-289h123q44 0 74 18.5t30 59.5q0 23 -14 42.5t-39 26.5q45 16 45 62q0 40 -27 60t-69 20zM2021 1229h-28v-289h188v27h-160v262zM2435 940v27h-178v104h168v27h-168v104h176v27h-205v-289h207zM1731 1102v100h94 q67 0 67 -53q0 -47 -65 -47h-96zM223 1032l72 166l74 -166h-146zM784 1032l74 166l72 -166h-146zM1436 1032l73 166l72 -166h-145zM1731 967v108h96q30 0 52 -14.5t22 -42.5q0 -51 -76 -51h-94zM102 575h29v289h-29v-289zM416 629l-187 235h-18v-289h29v232l186 -232h18v289 h-28v-235zM688 836v-261h29v261h102v28h-233v-28h102zM1069 575h29v289h-29v-135h-174v135h-29v-289h29v127h174v-127zM1386 575v27h-178v105h166v26h-166v103h174v28h-204v-289h208zM1556 575h29v125h164v27h-164v109h170v28h-199v-289zM2042 864h-29v-178 q0 -43 -24.5 -65.5t-61.5 -22.5q-38 0 -62 24t-24 64v178h-29v-178q0 -56 33 -85.5t82 -29.5q50 0 82.5 29.5t32.5 85.5v178zM2148 864h-30v-289h190v27h-160v262zM2384 864h-29v-289h191v27h-162v262zM1438 438l24 15q-35 51 -108 51q-43 0 -77 -20t-34 -60 q0 -20 8.5 -34.5t27 -22.5t33 -12t40.5 -9q28 -5 44 -9.5t30 -17t14 -30.5q0 -56 -86 -56q-70 0 -94 50l-27 -15q16 -32 49.5 -47.5t71.5 -15.5q48 0 82 19.5t34 64.5q0 29 -18.5 47t-39 24.5t-56.5 12.5q-28 5 -43 9t-28 15t-13 27q0 28 24.5 39.5t57.5 11.5q64 0 84 -37z M1913 354q0 61 -39 105.5t-109 44.5q-67 0 -106 -43.5t-39 -106.5q0 -62 38 -106t107 -43q69 -1 108.5 43t39.5 106zM522 209l121 291h-33l-104 -258l-109 258h-30l122 -291h33zM901 209v29h-178v104h166v27h-166v102h174v29h-203v-291h207zM1202 209l-100 108q43 3 65.5 29 t22.5 62q0 39 -25.5 65.5t-70.5 26.5h-129v-291h28v106h74l96 -106h39zM1530 209h29v291h-29v-291zM2179 264l-186 236h-19v-291h29v233l186 -233h17v291h-29v-140zM1765 231q-55 0 -84.5 35.5t-31.5 87.5t29 87t87 34q57 1 88 -34.5t31 -86.5t-31 -87t-88 -36zM993 471h101 q32 0 49.5 -17.5t17.5 -45.5q0 -29 -17.5 -46.5t-51.5 -17.5h-99v127z" />
<glyph unicode="_" d="M379 1008l31 -68h30l-131 289h-28l-129 -289h30l31 68h166zM594 940l121 289h-33l-104 -258l-109 258h-31l123 -289h33zM942 1008l29 -68h30l-129 289h-28l-131 -289h30l31 68h168zM1051 940h28v289h-28v-289zM1188 1229h-29v-289h191v27h-162v262zM1591 1008l31 -68h31 l-129 289h-29l-131 -289h31l30 68h166zM1825 1229h-123v-289h123q44 0 74 18.5t30 59.5q0 23 -14 42.5t-39 26.5q45 16 45 62q0 40 -27 60t-69 20zM2021 1229h-28v-289h188v27h-160v262zM2435 940v27h-178v104h168v27h-168v104h176v27h-205v-289h207zM1731 1102v100h94 q67 0 67 -53q0 -47 -65 -47h-96zM223 1032l72 166l74 -166h-146zM784 1032l74 166l72 -166h-146zM1436 1032l73 166l72 -166h-145zM1731 967v108h96q30 0 52 -14.5t22 -42.5q0 -51 -76 -51h-94zM102 575h29v289h-29v-289zM416 629l-187 235h-18v-289h29v232l186 -232h18v289 h-28v-235zM688 836v-261h29v261h102v28h-233v-28h102zM1069 575h29v289h-29v-135h-174v135h-29v-289h29v127h174v-127zM1386 575v27h-178v105h166v26h-166v103h174v28h-204v-289h208zM1556 575h29v125h164v27h-164v109h170v28h-199v-289zM2042 864h-29v-178 q0 -43 -24.5 -65.5t-61.5 -22.5q-38 0 -62 24t-24 64v178h-29v-178q0 -56 33 -85.5t82 -29.5q50 0 82.5 29.5t32.5 85.5v178zM2148 864h-30v-289h190v27h-160v262zM2384 864h-29v-289h191v27h-162v262zM1438 438l24 15q-35 51 -108 51q-43 0 -77 -20t-34 -60 q0 -20 8.5 -34.5t27 -22.5t33 -12t40.5 -9q28 -5 44 -9.5t30 -17t14 -30.5q0 -56 -86 -56q-70 0 -94 50l-27 -15q16 -32 49.5 -47.5t71.5 -15.5q48 0 82 19.5t34 64.5q0 29 -18.5 47t-39 24.5t-56.5 12.5q-28 5 -43 9t-28 15t-13 27q0 28 24.5 39.5t57.5 11.5q64 0 84 -37z M1913 354q0 61 -39 105.5t-109 44.5q-67 0 -106 -43.5t-39 -106.5q0 -62 38 -106t107 -43q69 -1 108.5 43t39.5 106zM522 209l121 291h-33l-104 -258l-109 258h-30l122 -291h33zM901 209v29h-178v104h166v27h-166v102h174v29h-203v-291h207zM1202 209l-100 108q43 3 65.5 29 t22.5 62q0 39 -25.5 65.5t-70.5 26.5h-129v-291h28v106h74l96 -106h39zM1530 209h29v291h-29v-291zM2179 264l-186 236h-19v-291h29v233l186 -233h17v291h-29v-140zM1765 231q-55 0 -84.5 35.5t-31.5 87.5t29 87t87 34q57 1 88 -34.5t31 -86.5t-31 -87t-88 -36zM993 471h101 q32 0 49.5 -17.5t17.5 -45.5q0 -29 -17.5 -46.5t-51.5 -17.5h-99v127z" />
<glyph unicode="`" horiz-adv-x="307" d="M164 1686q14 -20 56 -73.5t56 -72.5q21 -31 7 -56t-42 -26t-51 19q-18 21 -66.5 70.5t-66.5 70.5q-27 32 4 64q29 29 68 24q21 -4 35 -20z" />
<glyph unicode="a" horiz-adv-x="1189" d="M678 1280q-13 48 -44 66.5t-66 -2.5t-58 -78q-44 -99 -127.5 -359t-124.5 -354h-86q-62 1 -80 -37q-16 -34 18 -64q31 -27 91 -30q-7 -15 -28 -62.5t-32.5 -74t-28 -66t-28 -71.5t-18.5 -58q-31 -84 17 -116q35 -24 78 -5q33 14 42 45q8 26 16 51t14.5 44.5t16.5 43.5 t15 37.5t17 39t16 34.5t19 38t18.5 36t21.5 41.5t22 42.5q3 0 194.5 4.5t243.5 3.5q21 -57 76 -166t92 -203q24 -60 79 -89q53 -28 80 1q30 32 -1 123q-100 184 -156 332q9 0 28.5 1t28.5 1q72 7 100.5 45t1 73.5t-92.5 35.5q-26 -1 -67.5 -4.5t-59.5 -4.5 q-32 57 -72.5 174.5t-91.5 278.5t-84 252zM600 1057q25 -76 54 -180.5t51.5 -176.5t46.5 -122q-30 1 -171 -3t-145 -4q25 58 83 240t81 246z" />
<glyph unicode="b" horiz-adv-x="1226" d="M334 1341q13 -23 18 -57q123 0 212.5 -7t169.5 -26.5t128.5 -52.5t76.5 -86t28 -127q0 -68 -36.5 -120.5t-94.5 -84.5q12 -3 84 -30q126 -56 185.5 -132.5t59.5 -195.5q0 -75 -20 -134.5t-52 -99t-82.5 -70.5t-101 -49.5t-118.5 -35.5q-76 -21 -154.5 -22.5t-134 6.5 t-154.5 28q-19 4 -29 6q-33 -105 -106 -78q-34 12 -41.5 38t4.5 77l-24 12q-64 28 -79 88q-12 49 17 73q32 26 86 -5q7 -3 20.5 -10t20.5 -10q5 46 8.5 89t4.5 95l1.5 78t0 94t-0.5 88q-112 28 -128 84q-10 35 21 56q17 11 38 11h65q-6 242 -10 295h-10q-61 0 -87 57 q-19 44 -4 73q7 13 19 14l68 6q-3 66 44 89t87 -24zM365 1135q3 -24 14 -299q26 0 54.5 1t84 5t101.5 13.5t91.5 24t72 39.5t26.5 58q0 48 -37 82t-91.5 48.5t-117 23.5t-114.5 6.5t-84 -2.5zM389 688q-4 -83 -15.5 -209.5t-18.5 -205t-5 -78.5q227 -56 393 -21 q132 31 200.5 85.5t68.5 158.5q0 124 -170 205q-78 38 -208.5 54t-244.5 11z" />
<glyph unicode="c" horiz-adv-x="1144" d="M659 1329q93 -24 143.5 -56t98.5 -85q111 -123 154 -232q9 -20 0 -39.5t-30.5 -31.5t-46 -18.5t-47 -1t-32.5 21.5q-53 117 -125.5 193.5t-159.5 90.5q-58 9 -133.5 -31t-130.5 -102q-131 -163 -131 -434q0 -139 41 -228t121 -155q86 -70 209 -67q90 1 164.5 63.5 t126.5 159.5q18 21 47.5 25t54 -8t37.5 -36t-2 -61q-69 -136 -179.5 -217t-240.5 -84q-70 -1 -141.5 17t-124.5 50q-265 161 -279 492q-26 308 152 561q77 109 214 173.5t240 39.5z" />
<glyph unicode="d" horiz-adv-x="1265" d="M41 1272q223 70 437 64t411 -81q78 -37 140.5 -102t99 -140t55.5 -150.5t20 -143.5q3 -203 -88.5 -342.5t-271.5 -237.5q-154 -79 -319 -109t-300 -12q-46 0 -71.5 33.5t-22.5 69.5q12 228 16.5 358.5t0.5 319.5t-23 340l-12 -4q-43 -19 -76.5 11t-31 68.5t35.5 57.5z M279 1176q25 -183 27.5 -505.5t-11.5 -504.5q104 0 162.5 9.5t185.5 45.5q189 63 296.5 187t107.5 292q0 166 -94 294t-261 167q-190 43 -413 15z" />
<glyph unicode="e" horiz-adv-x="1212" d="M1020 1321q53 2 74.5 -35t0 -76t-74.5 -43q-34 0 -210.5 3t-299.5 4.5t-199 -0.5q12 -248 15 -443q134 -9 343 -5t337 19q43 3 74.5 -10.5t41.5 -34.5t-6 -48t-59 -50q-89 -16 -204 -23t-197 -6.5t-190 3t-138 2.5q0 -36 6 -236.5t10 -230.5q95 -4 264 3.5t314.5 17 t164.5 9.5q76 -6 91 -52q14 -38 -25 -71q-35 -30 -96 -30q-128 0 -242 -8q-2 0 -98.5 -8.5t-193 -11.5t-261.5 -3q-12 0 -38 18.5t-27 38.5q-11 43 -16.5 88.5t-6 76.5t-0.5 96v24q1 36 -1 93.5t-4.5 104.5t-2.5 54q-14 530 -14 614l-35 -6q-40 -1 -62.5 19t-23 46t17 52 t49.5 35q71 9 90 10q80 8 382 7.5t450 -7.5z" />
<glyph unicode="f" horiz-adv-x="1128" d="M193 1327q33 0 154 7t228.5 9t224.5 -3.5t190 -33t79 -77.5q6 -51 -16.5 -89t-57.5 -38q-26 0 -43 9t-25 20t-21.5 35t-24.5 38q-21 0 -284 -5t-298 -5q39 -471 39 -489q52 0 181.5 -8t233 -8t167.5 16q48 6 77 -11t32.5 -43.5t-15 -53.5t-53.5 -38q-86 -17 -205 -19 t-254.5 4.5t-163.5 6.5q0 -65 -2 -260.5t-2 -222.5q-5 -52 -42 -64.5t-72.5 12t-35.5 62.5q0 243 -8 635q0 8 -6 226t-4 241l-53 -4q-47 -4 -72 20.5t-16.5 58t47.5 54.5q41 21 121 18z" />
<glyph unicode="g" horiz-adv-x="1210" d="M555 1329q83 3 158.5 -4.5t148 -30.5t125.5 -59.5t87.5 -95.5t37.5 -135q1 -22 -33.5 -41t-72 -14t-43.5 42q-10 52 -46.5 90t-84.5 56t-102 29.5t-98.5 10t-74.5 -2.5q-140 -5 -248 -142q-45 -57 -70.5 -120t-30.5 -131.5t-2 -122t13 -126.5q16 -117 57 -202.5 t99.5 -132.5t132.5 -65t156 -6.5t170 48.5q147 72 147 227q0 7 2.5 87.5t1.5 97.5h-303q-38 0 -57 37t-8 73.5t47 36.5q282 0 370 8q39 4 73 -18t30 -70q0 -55 -1 -113t-1 -85q0 -159 -53 -258t-179 -156q-154 -64 -294 -66.5t-253.5 55.5t-192 189.5t-104.5 325.5 q-7 79 -6.5 141.5t11 148.5t45.5 165.5t94 146.5q163 177 352 182z" />
<glyph unicode="h" horiz-adv-x="1218" d="M1012 1280q0 -353 16 -582q23 -4 88 -4q26 0 33.5 -36.5t-4 -73t-31.5 -37.5q-41 -2 -72 4q2 -29 20 -220.5t21 -244.5q2 -31 -12.5 -53.5t-36.5 -29t-45.5 -3.5t-41 22.5t-19.5 49.5q-4 57 -24 265t-21 226q-44 3 -252.5 5.5t-278.5 6.5l8 -237q5 -197 5 -291 q0 -33 -40 -53t-80 -10t-40 49q0 14 1 88t1 136.5t-2 86.5q-9 104 -19 244q-36 4 -63 4q-36 0 -56 18t-20 41.5t15 47t42 34.5q32 4 74 0q-3 66 -8 239.5t-8 270.5q9 56 49 77t76.5 1.5t38.5 -64.5q8 -348 16 -528q36 -1 261 -8.5t269 -9.5q-8 81 -12 162.5t-4.5 122t0 142 t0.5 132.5q0 44 39 66.5t78 7t39 -63.5z" />
<glyph unicode="i" horiz-adv-x="851" d="M621 1346q59 0 97.5 -29.5t39.5 -85.5q0 -40 -24 -61.5t-56.5 -15.5t-54.5 38q-10 14 -27 19.5t-32.5 4.5t-44.5 -3.5t-48 -2.5q0 -440 10 -581q13 -203 13 -475q159 -13 254 0q34 2 45 -33t-6.5 -72.5t-53.5 -42.5q-14 -8 -233.5 -1.5t-362.5 1.5q-28 -3 -37 34.5t4 76 t39 39.5q27 2 62 2t74.5 -1t54.5 -1q8 153 -10 471q-3 58 -17 573q-32 0 -201 -12q-40 0 -48 35t10.5 70.5t44.5 37.5q85 4 142 7.5t78 4.5t84.5 2t203.5 1z" />
<glyph unicode="j" horiz-adv-x="966" d="M795 1319q35 -4 55 -24t19.5 -43.5t-11.5 -45.5q3 -130 25 -610q9 -104 -9.5 -211t-72.5 -188q-43 -57 -69.5 -86t-69 -56.5t-97 -39t-137.5 -15.5q-68 9 -119.5 24.5t-89 35t-64 51t-43 64t-26.5 83t-15 98t-8 119.5q-1 24 38 33t79 -2t41 -35q4 -63 9.5 -102t19 -81 t35.5 -66t59 -42t90 -24q136 -8 217 102q34 44 53.5 101.5t24 119t4 111t-5 107.5t-4.5 79q0 22 -3 97t-3 83q-8 125 -10 211q-46 5 -186.5 -6t-254.5 0q-39 3 -53.5 41t2.5 73.5t55 31.5q87 -6 185.5 -3t217.5 9t122 6z" />
<glyph unicode="k" horiz-adv-x="1011" d="M217 1282q20 -160 31 -332t8 -252q171 25 289 107q139 97 209 463q6 34 56 54q54 21 87 0q25 -16 18 -54q-38 -209 -90 -334t-145 -201q-52 -43 -117 -80q44 -73 121 -163.5t147.5 -184t118.5 -196.5q20 -57 -26 -91q-37 -27 -77 -14q-26 9 -34 35q-20 60 -75 141.5 t-112 149t-119.5 143.5t-88.5 119q-36 -12 -164 -35q0 -63 -5 -248t-5 -229q0 -34 -39 -60t-78 -16t-39 62q0 43 7.5 307t1.5 473.5t-34 386.5q2 46 50 80q47 33 80 13q20 -12 24 -44z" />
<glyph unicode="l" horiz-adv-x="978" d="M209 1262q-3 -230 14 -428t31 -360t6 -333q128 11 234.5 7.5t209.5 -11t117 -6.5q-2 14 -5 34t-7.5 72t0.5 64q6 34 42.5 55t71 8.5t35.5 -59.5q-2 -17 0.5 -114.5t-2.5 -124.5q-8 -32 -37.5 -52t-56.5 -20q-7 0 -97 3.5t-186.5 6t-212.5 1t-184 -10.5q-25 -2 -42 4.5 t-25 17.5t-13 25.5t-4.5 28.5t0.5 26q8 187 -4.5 359.5t-28 374t-12.5 430.5q0 31 16 52t39 26t46 0.5t39 -25.5t16 -51z" />
<glyph unicode="m" horiz-adv-x="1652" d="M535 1270q5 -17 34.5 -106.5t51 -157t45 -161t32.5 -159.5q2 -20 7 -43t13.5 -52t15 -50.5t20 -59t20 -55t22.5 -61t21 -56.5q90 220 133 365q113 396 209 602q17 32 52 43.5t65 -3.5t35 -50q17 -81 41.5 -267t66.5 -360q26 -106 89 -284t102 -251q17 -49 -14 -84.5 t-75.5 -34.5t-60.5 40q-39 75 -96 254t-94 319q-9 32 -19.5 89t-27 157t-19.5 119q-41 -124 -70.5 -221t-47.5 -161.5t-21 -74.5q-99 -275 -188 -436q-24 -39 -45.5 -51.5t-40 2t-33.5 38.5t-31 64q-134 338 -174 518q-47 209 -94 363q-29 -161 -107.5 -489t-138.5 -456 q-16 -35 -47 -50t-57.5 -9t-42 34.5t-3.5 69.5q45 97 80.5 218t60 239t47.5 234.5t54.5 237.5t69.5 214q15 45 49 67t67 10.5t44 -54.5z" />
<glyph unicode="n" horiz-adv-x="1169" d="M219 1317q68 -82 203 -299t149 -236q32 -56 88.5 -135.5t100.5 -136.5t107.5 -138t76.5 -98q-2 47 -14.5 148.5t-14.5 132.5l-30 707q-4 57 42 70q41 12 79 -18q32 -25 34 -67q8 -172 15.5 -348t10.5 -243.5t5 -90.5q4 -56 6 -246t6 -245q-1 -57 -46.5 -76t-82.5 16 q-5 6 -97 125.5t-132 173t-115 156.5t-131 186q-8 11 -91.5 149.5t-154.5 242.5q0 -102 5.5 -242t10.5 -245t4.5 -245t-11.5 -266q-16 -46 -56 -52t-71.5 20.5t-28.5 60.5q18 212 14 430t-12.5 363.5t6.5 408.5q1 32 22.5 48t50 12.5t52.5 -23.5z" />
<glyph unicode="o" horiz-adv-x="1150" d="M635 1335q246 -93 356.5 -272t110.5 -475q0 -115 -72.5 -262.5t-193.5 -251.5q-65 -57 -154 -77t-176 -4t-158 60q-127 77 -206.5 211.5t-88.5 288.5q-11 146 17 280t127 275q30 42 64.5 74.5t78.5 57t67.5 35t71.5 30.5q8 26 37 35.5t59.5 6.5t59.5 -12zM598 1194 q-67 -12 -142 -56t-128 -104q-121 -153 -121 -434q0 -126 51.5 -233t132.5 -174q73 -64 186 -63t183 69q112 114 157 243.5t25 249.5q-22 200 -117.5 331t-226.5 171z" />
<glyph unicode="p" horiz-adv-x="1191" d="M719 1331q190 -10 302.5 -115t108.5 -305q-13 -173 -96.5 -287.5t-226.5 -164.5q-158 -54 -455 -39q7 -204 29 -326q6 -41 -12.5 -66t-45 -27t-52.5 15.5t-33 51.5q-29 153 -35 348q-63 4 -88 12q-42 9 -60 35.5t-1.5 57.5t65.5 50q23 5 82 0q0 20 -5.5 249t-5.5 257 q-11 -6 -37.5 -15.5t-29.5 -10.5q-42 -13 -72 10.5t-28.5 59t36.5 53.5q167 77 341.5 120t318.5 37zM741 1180q-161 23 -407 -54q2 -54 7.5 -294.5t4.5 -276.5q94 -6 208.5 1t197.5 36q96 39 153 129t58 217q1 116 -57.5 171.5t-164.5 70.5z" />
<glyph unicode="q" horiz-adv-x="1146" d="M637 1309q134 -45 226 -115.5t142.5 -165.5t71.5 -200.5t21 -239.5q0 -294 -174 -449l30 -49q25 -40 8 -77t-51 -40t-63 29q-21 40 -41 66q-143 -54 -238 -54q-109 0 -201 45.5t-151.5 117t-100 159.5t-56 173.5t-9.5 158.5q9 104 24.5 178.5t44.5 143t75 117t115 89.5 t165 72q-1 30 27 46t67 14t68 -19zM610 1167q-127 -37 -204.5 -79.5t-122 -107t-59.5 -142.5t-15 -201q0 -194 107.5 -328.5t250.5 -142.5q97 -5 144 24q-36 45 -62 91q-17 42 1.5 71.5t53.5 28.5t60 -35q29 -48 63 -90q87 80 105 166q15 71 18 154.5t-13.5 179t-52 177 t-106.5 146t-168 88.5z" />
<glyph unicode="r" horiz-adv-x="1290" d="M297 1335q146 9 271.5 -6.5t258.5 -75.5q115 -47 192.5 -151.5t67.5 -241.5q-10 -76 -54 -133.5t-108 -89t-137.5 -44t-148.5 -5.5q24 -22 75.5 -81t102.5 -115t111 -113.5t122.5 -92.5t114.5 -36q48 0 56 -43q8 -41 -23 -75q-24 -26 -57 -26q-70 -2 -142 29.5 t-131.5 81.5t-123 116.5t-114.5 127t-108.5 119.5t-101.5 89q-55 23 -94 29q2 -85 9 -269t9 -266q-2 -25 -18 -41t-38 -18.5t-43.5 3t-36.5 24.5t-15 45q-32 781 -25 1095q-53 -13 -62 -14q-39 -8 -60 20t-13.5 64t39.5 49q104 41 225 45zM336 1188q-11 -159 -2 -438 q86 -27 181.5 -37.5t182.5 -2.5t148.5 46t73.5 102q12 71 -27.5 141.5t-118.5 106.5q-105 46 -229 68t-209 14z" />
<glyph unicode="s" horiz-adv-x="1075" d="M905 1309q6 -49 6.5 -186.5t14.5 -215.5q9 -33 -29 -45q-40 -12 -74 9q-28 18 -26 49q-8 75 -63 143t-118 98q-42 21 -83 31t-83 5.5t-69 -28.5q-28 -31 -36.5 -78.5t11.5 -103.5t70 -98q74 -63 250 -160q56 -32 98.5 -62.5t85.5 -71.5t73.5 -91.5t45.5 -108.5 q26 -105 -7 -194t-122.5 -143.5t-220.5 -57.5q-313 -8 -475 217q-34 52 -59.5 126.5t-28.5 133.5q-2 41 35 63t75.5 11t40.5 -51q6 -111 80 -217q46 -60 132.5 -101t164.5 -41q70 0 124.5 21t87 69.5t23.5 116.5q-14 58 -57.5 111.5t-105 96.5t-124 80t-129.5 80t-106 79 q-64 59 -95.5 128.5t-30 132t22.5 117t58 91.5q48 46 122 59.5t147.5 -2t141 -53t105.5 -86.5q5 29 -18 106q-8 24 24 40t71 11.5t50 -30.5z" />
<glyph unicode="t" horiz-adv-x="1136" d="M74 1341q75 -4 498 -5t448 -1q47 0 51 -44q5 -43 -27 -81q-21 -25 -47 -26q-72 3 -220 3.5t-169 -1.5q19 -227 15 -577t-19 -539q-4 -48 -43 -66t-77 -1t-38 54q0 45 9.5 211.5t17.5 325t4.5 333t-24.5 261.5q-54 -2 -201.5 -1.5t-204.5 3.5q-36 3 -42 39.5t15.5 72.5 t53.5 39z" />
<glyph unicode="u" horiz-adv-x="1134" d="M881 1303q1 19 18.5 29t42.5 9.5t50 -6.5t41.5 -19t15.5 -28q-2 -68 7 -289.5t1.5 -392.5t-45.5 -272q-28 -66 -68.5 -124.5t-92.5 -108.5t-119.5 -79t-139.5 -28q-85 2 -172.5 34.5t-145.5 86.5q-98 90 -142.5 192t-45.5 281q0 118 -1 345t-1 345q5 33 45.5 49.5t78.5 5 t36 -46.5v-659q2 -134 21 -218t79 -141q115 -112 250 -112q93 0 166 76t106 188q33 117 33 379q0 293 -18 504z" />
<glyph unicode="v" horiz-adv-x="1054" d="M1030 1243q-15 -62 -38.5 -129t-63.5 -154t-60 -127t-71 -141q-55 -110 -88 -181t-75 -182t-69 -216q-12 -77 -43.5 -100.5t-67.5 7t-61 101.5q-117 321 -161 444t-111.5 329.5t-104.5 354.5q-6 35 28 59.5t74.5 20t51.5 -40.5q86 -334 309 -999q38 142 94 291.5 t103 232.5q64 113 126 255t75 216q7 40 48.5 49.5t77 -17t27.5 -73.5z" />
<glyph unicode="w" horiz-adv-x="1720" d="M184 1296q67 -137 116 -283.5t72.5 -252.5t55 -241.5t61.5 -227.5q15 50 145.5 422.5t153.5 490.5q11 54 44.5 70t67.5 -7.5t46 -70.5q86 -226 175 -491.5t118 -403.5q180 655 247 857q23 67 42 116q22 52 77 60q48 7 73 -25q22 -28 5 -72q-199 -560 -387 -1182 q-10 -33 -31.5 -49t-44 -12.5t-43 27t-28.5 61.5q-27 140 -74.5 299t-112.5 348.5t-85 253.5q-48 -167 -162 -472.5t-162 -469.5q-14 -35 -44.5 -45.5t-60.5 5.5t-42 52q-27 83 -94 340.5t-135.5 483t-129.5 344.5q-11 25 -6 49t24 39t40.5 21.5t44 -2t34.5 -32.5z" />
<glyph unicode="x" horiz-adv-x="1124" d="M170 1323q30 -30 88.5 -105t105 -137.5t126.5 -173.5t102 -141q57 80 142 251t118 255q36 62 99 62q49 1 70 -34q21 -33 -3 -73q-198 -393 -340 -584q50 -78 109.5 -163t97.5 -135t98.5 -128t75.5 -98q16 -22 6.5 -50.5t-34 -46t-52.5 -24t-49 13.5q-205 268 -346 500 q-204 -270 -398 -487q-46 -51 -105 -41q-46 8 -59 44q-15 40 29 85q92 92 232.5 251t218.5 277q-68 99 -218.5 293t-234.5 276q-11 19 -6.5 42.5t18.5 41.5t33.5 32t39.5 13t36 -16z" />
<glyph unicode="y" horiz-adv-x="966" d="M772 1296q8 37 48 39t75.5 -24.5t30.5 -59.5q-40 -123 -73 -283t-57 -284.5t-48 -183.5q36 -15 50 -40t5.5 -49t-39 -42t-74.5 -19q-23 -58 -46 -104t-59 -97t-75 -84.5t-93 -53.5t-114 -15q-123 9 -166.5 83.5t-52.5 260.5q-1 23 38.5 33.5t79.5 -1.5t40 -44 q0 -77 12.5 -119t34 -56t59.5 -14q54 0 108.5 77.5t92.5 189.5q-203 101 -307 286q-47 90 -110 252.5t-105 292.5q-3 29 8 53t30.5 35t41 14t41 -8.5t28.5 -34.5q86 -265 176 -465q48 -108 111.5 -171.5t142.5 -104.5q44 121 88 377.5t78 363.5z" />
<glyph unicode="z" horiz-adv-x="1048" d="M883 1333q49 -3 72 -25.5t19.5 -53.5t-28.5 -62q-291 -518 -400 -690q-153 -243 -270 -359q45 -9 139.5 -9t183 5t193.5 11.5t144 7.5q41 2 54.5 -35t-5 -75t-57.5 -40q-455 -16 -758 -2q-62 2 -87 36t-10 79t58 80q82 68 186 214t183.5 285.5t167 291.5t129.5 210 q-133 4 -329.5 -4.5t-279.5 -3.5q-24 2 -31 36.5t8.5 68.5t47.5 34q166 -8 325 3.5t345 -3.5z" />
<glyph unicode="{" d="M379 1008l31 -68h30l-131 289h-28l-129 -289h30l31 68h166zM594 940l121 289h-33l-104 -258l-109 258h-31l123 -289h33zM942 1008l29 -68h30l-129 289h-28l-131 -289h30l31 68h168zM1051 940h28v289h-28v-289zM1188 1229h-29v-289h191v27h-162v262zM1591 1008l31 -68h31 l-129 289h-29l-131 -289h31l30 68h166zM1825 1229h-123v-289h123q44 0 74 18.5t30 59.5q0 23 -14 42.5t-39 26.5q45 16 45 62q0 40 -27 60t-69 20zM2021 1229h-28v-289h188v27h-160v262zM2435 940v27h-178v104h168v27h-168v104h176v27h-205v-289h207zM1731 1102v100h94 q67 0 67 -53q0 -47 -65 -47h-96zM223 1032l72 166l74 -166h-146zM784 1032l74 166l72 -166h-146zM1436 1032l73 166l72 -166h-145zM1731 967v108h96q30 0 52 -14.5t22 -42.5q0 -51 -76 -51h-94zM102 575h29v289h-29v-289zM416 629l-187 235h-18v-289h29v232l186 -232h18v289 h-28v-235zM688 836v-261h29v261h102v28h-233v-28h102zM1069 575h29v289h-29v-135h-174v135h-29v-289h29v127h174v-127zM1386 575v27h-178v105h166v26h-166v103h174v28h-204v-289h208zM1556 575h29v125h164v27h-164v109h170v28h-199v-289zM2042 864h-29v-178 q0 -43 -24.5 -65.5t-61.5 -22.5q-38 0 -62 24t-24 64v178h-29v-178q0 -56 33 -85.5t82 -29.5q50 0 82.5 29.5t32.5 85.5v178zM2148 864h-30v-289h190v27h-160v262zM2384 864h-29v-289h191v27h-162v262zM1438 438l24 15q-35 51 -108 51q-43 0 -77 -20t-34 -60 q0 -20 8.5 -34.5t27 -22.5t33 -12t40.5 -9q28 -5 44 -9.5t30 -17t14 -30.5q0 -56 -86 -56q-70 0 -94 50l-27 -15q16 -32 49.5 -47.5t71.5 -15.5q48 0 82 19.5t34 64.5q0 29 -18.5 47t-39 24.5t-56.5 12.5q-28 5 -43 9t-28 15t-13 27q0 28 24.5 39.5t57.5 11.5q64 0 84 -37z M1913 354q0 61 -39 105.5t-109 44.5q-67 0 -106 -43.5t-39 -106.5q0 -62 38 -106t107 -43q69 -1 108.5 43t39.5 106zM522 209l121 291h-33l-104 -258l-109 258h-30l122 -291h33zM901 209v29h-178v104h166v27h-166v102h174v29h-203v-291h207zM1202 209l-100 108q43 3 65.5 29 t22.5 62q0 39 -25.5 65.5t-70.5 26.5h-129v-291h28v106h74l96 -106h39zM1530 209h29v291h-29v-291zM2179 264l-186 236h-19v-291h29v233l186 -233h17v291h-29v-140zM1765 231q-55 0 -84.5 35.5t-31.5 87.5t29 87t87 34q57 1 88 -34.5t31 -86.5t-31 -87t-88 -36zM993 471h101 q32 0 49.5 -17.5t17.5 -45.5q0 -29 -17.5 -46.5t-51.5 -17.5h-99v127z" />
<glyph unicode="|" d="M379 1008l31 -68h30l-131 289h-28l-129 -289h30l31 68h166zM594 940l121 289h-33l-104 -258l-109 258h-31l123 -289h33zM942 1008l29 -68h30l-129 289h-28l-131 -289h30l31 68h168zM1051 940h28v289h-28v-289zM1188 1229h-29v-289h191v27h-162v262zM1591 1008l31 -68h31 l-129 289h-29l-131 -289h31l30 68h166zM1825 1229h-123v-289h123q44 0 74 18.5t30 59.5q0 23 -14 42.5t-39 26.5q45 16 45 62q0 40 -27 60t-69 20zM2021 1229h-28v-289h188v27h-160v262zM2435 940v27h-178v104h168v27h-168v104h176v27h-205v-289h207zM1731 1102v100h94 q67 0 67 -53q0 -47 -65 -47h-96zM223 1032l72 166l74 -166h-146zM784 1032l74 166l72 -166h-146zM1436 1032l73 166l72 -166h-145zM1731 967v108h96q30 0 52 -14.5t22 -42.5q0 -51 -76 -51h-94zM102 575h29v289h-29v-289zM416 629l-187 235h-18v-289h29v232l186 -232h18v289 h-28v-235zM688 836v-261h29v261h102v28h-233v-28h102zM1069 575h29v289h-29v-135h-174v135h-29v-289h29v127h174v-127zM1386 575v27h-178v105h166v26h-166v103h174v28h-204v-289h208zM1556 575h29v125h164v27h-164v109h170v28h-199v-289zM2042 864h-29v-178 q0 -43 -24.5 -65.5t-61.5 -22.5q-38 0 -62 24t-24 64v178h-29v-178q0 -56 33 -85.5t82 -29.5q50 0 82.5 29.5t32.5 85.5v178zM2148 864h-30v-289h190v27h-160v262zM2384 864h-29v-289h191v27h-162v262zM1438 438l24 15q-35 51 -108 51q-43 0 -77 -20t-34 -60 q0 -20 8.5 -34.5t27 -22.5t33 -12t40.5 -9q28 -5 44 -9.5t30 -17t14 -30.5q0 -56 -86 -56q-70 0 -94 50l-27 -15q16 -32 49.5 -47.5t71.5 -15.5q48 0 82 19.5t34 64.5q0 29 -18.5 47t-39 24.5t-56.5 12.5q-28 5 -43 9t-28 15t-13 27q0 28 24.5 39.5t57.5 11.5q64 0 84 -37z M1913 354q0 61 -39 105.5t-109 44.5q-67 0 -106 -43.5t-39 -106.5q0 -62 38 -106t107 -43q69 -1 108.5 43t39.5 106zM522 209l121 291h-33l-104 -258l-109 258h-30l122 -291h33zM901 209v29h-178v104h166v27h-166v102h174v29h-203v-291h207zM1202 209l-100 108q43 3 65.5 29 t22.5 62q0 39 -25.5 65.5t-70.5 26.5h-129v-291h28v106h74l96 -106h39zM1530 209h29v291h-29v-291zM2179 264l-186 236h-19v-291h29v233l186 -233h17v291h-29v-140zM1765 231q-55 0 -84.5 35.5t-31.5 87.5t29 87t87 34q57 1 88 -34.5t31 -86.5t-31 -87t-88 -36zM993 471h101 q32 0 49.5 -17.5t17.5 -45.5q0 -29 -17.5 -46.5t-51.5 -17.5h-99v127z" />
<glyph unicode="}" d="M379 1008l31 -68h30l-131 289h-28l-129 -289h30l31 68h166zM594 940l121 289h-33l-104 -258l-109 258h-31l123 -289h33zM942 1008l29 -68h30l-129 289h-28l-131 -289h30l31 68h168zM1051 940h28v289h-28v-289zM1188 1229h-29v-289h191v27h-162v262zM1591 1008l31 -68h31 l-129 289h-29l-131 -289h31l30 68h166zM1825 1229h-123v-289h123q44 0 74 18.5t30 59.5q0 23 -14 42.5t-39 26.5q45 16 45 62q0 40 -27 60t-69 20zM2021 1229h-28v-289h188v27h-160v262zM2435 940v27h-178v104h168v27h-168v104h176v27h-205v-289h207zM1731 1102v100h94 q67 0 67 -53q0 -47 -65 -47h-96zM223 1032l72 166l74 -166h-146zM784 1032l74 166l72 -166h-146zM1436 1032l73 166l72 -166h-145zM1731 967v108h96q30 0 52 -14.5t22 -42.5q0 -51 -76 -51h-94zM102 575h29v289h-29v-289zM416 629l-187 235h-18v-289h29v232l186 -232h18v289 h-28v-235zM688 836v-261h29v261h102v28h-233v-28h102zM1069 575h29v289h-29v-135h-174v135h-29v-289h29v127h174v-127zM1386 575v27h-178v105h166v26h-166v103h174v28h-204v-289h208zM1556 575h29v125h164v27h-164v109h170v28h-199v-289zM2042 864h-29v-178 q0 -43 -24.5 -65.5t-61.5 -22.5q-38 0 -62 24t-24 64v178h-29v-178q0 -56 33 -85.5t82 -29.5q50 0 82.5 29.5t32.5 85.5v178zM2148 864h-30v-289h190v27h-160v262zM2384 864h-29v-289h191v27h-162v262zM1438 438l24 15q-35 51 -108 51q-43 0 -77 -20t-34 -60 q0 -20 8.5 -34.5t27 -22.5t33 -12t40.5 -9q28 -5 44 -9.5t30 -17t14 -30.5q0 -56 -86 -56q-70 0 -94 50l-27 -15q16 -32 49.5 -47.5t71.5 -15.5q48 0 82 19.5t34 64.5q0 29 -18.5 47t-39 24.5t-56.5 12.5q-28 5 -43 9t-28 15t-13 27q0 28 24.5 39.5t57.5 11.5q64 0 84 -37z M1913 354q0 61 -39 105.5t-109 44.5q-67 0 -106 -43.5t-39 -106.5q0 -62 38 -106t107 -43q69 -1 108.5 43t39.5 106zM522 209l121 291h-33l-104 -258l-109 258h-30l122 -291h33zM901 209v29h-178v104h166v27h-166v102h174v29h-203v-291h207zM1202 209l-100 108q43 3 65.5 29 t22.5 62q0 39 -25.5 65.5t-70.5 26.5h-129v-291h28v106h74l96 -106h39zM1530 209h29v291h-29v-291zM2179 264l-186 236h-19v-291h29v233l186 -233h17v291h-29v-140zM1765 231q-55 0 -84.5 35.5t-31.5 87.5t29 87t87 34q57 1 88 -34.5t31 -86.5t-31 -87t-88 -36zM993 471h101 q32 0 49.5 -17.5t17.5 -45.5q0 -29 -17.5 -46.5t-51.5 -17.5h-99v127z" />
<glyph unicode="~" d="M379 1008l31 -68h30l-131 289h-28l-129 -289h30l31 68h166zM594 940l121 289h-33l-104 -258l-109 258h-31l123 -289h33zM942 1008l29 -68h30l-129 289h-28l-131 -289h30l31 68h168zM1051 940h28v289h-28v-289zM1188 1229h-29v-289h191v27h-162v262zM1591 1008l31 -68h31 l-129 289h-29l-131 -289h31l30 68h166zM1825 1229h-123v-289h123q44 0 74 18.5t30 59.5q0 23 -14 42.5t-39 26.5q45 16 45 62q0 40 -27 60t-69 20zM2021 1229h-28v-289h188v27h-160v262zM2435 940v27h-178v104h168v27h-168v104h176v27h-205v-289h207zM1731 1102v100h94 q67 0 67 -53q0 -47 -65 -47h-96zM223 1032l72 166l74 -166h-146zM784 1032l74 166l72 -166h-146zM1436 1032l73 166l72 -166h-145zM1731 967v108h96q30 0 52 -14.5t22 -42.5q0 -51 -76 -51h-94zM102 575h29v289h-29v-289zM416 629l-187 235h-18v-289h29v232l186 -232h18v289 h-28v-235zM688 836v-261h29v261h102v28h-233v-28h102zM1069 575h29v289h-29v-135h-174v135h-29v-289h29v127h174v-127zM1386 575v27h-178v105h166v26h-166v103h174v28h-204v-289h208zM1556 575h29v125h164v27h-164v109h170v28h-199v-289zM2042 864h-29v-178 q0 -43 -24.5 -65.5t-61.5 -22.5q-38 0 -62 24t-24 64v178h-29v-178q0 -56 33 -85.5t82 -29.5q50 0 82.5 29.5t32.5 85.5v178zM2148 864h-30v-289h190v27h-160v262zM2384 864h-29v-289h191v27h-162v262zM1438 438l24 15q-35 51 -108 51q-43 0 -77 -20t-34 -60 q0 -20 8.5 -34.5t27 -22.5t33 -12t40.5 -9q28 -5 44 -9.5t30 -17t14 -30.5q0 -56 -86 -56q-70 0 -94 50l-27 -15q16 -32 49.5 -47.5t71.5 -15.5q48 0 82 19.5t34 64.5q0 29 -18.5 47t-39 24.5t-56.5 12.5q-28 5 -43 9t-28 15t-13 27q0 28 24.5 39.5t57.5 11.5q64 0 84 -37z M1913 354q0 61 -39 105.5t-109 44.5q-67 0 -106 -43.5t-39 -106.5q0 -62 38 -106t107 -43q69 -1 108.5 43t39.5 106zM522 209l121 291h-33l-104 -258l-109 258h-30l122 -291h33zM901 209v29h-178v104h166v27h-166v102h174v29h-203v-291h207zM1202 209l-100 108q43 3 65.5 29 t22.5 62q0 39 -25.5 65.5t-70.5 26.5h-129v-291h28v106h74l96 -106h39zM1530 209h29v291h-29v-291zM2179 264l-186 236h-19v-291h29v233l186 -233h17v291h-29v-140zM1765 231q-55 0 -84.5 35.5t-31.5 87.5t29 87t87 34q57 1 88 -34.5t31 -86.5t-31 -87t-88 -36zM993 471h101 q32 0 49.5 -17.5t17.5 -45.5q0 -29 -17.5 -46.5t-51.5 -17.5h-99v127z" />
<glyph unicode="&#xa1;" d="M379 1008l31 -68h30l-131 289h-28l-129 -289h30l31 68h166zM594 940l121 289h-33l-104 -258l-109 258h-31l123 -289h33zM942 1008l29 -68h30l-129 289h-28l-131 -289h30l31 68h168zM1051 940h28v289h-28v-289zM1188 1229h-29v-289h191v27h-162v262zM1591 1008l31 -68h31 l-129 289h-29l-131 -289h31l30 68h166zM1825 1229h-123v-289h123q44 0 74 18.5t30 59.5q0 23 -14 42.5t-39 26.5q45 16 45 62q0 40 -27 60t-69 20zM2021 1229h-28v-289h188v27h-160v262zM2435 940v27h-178v104h168v27h-168v104h176v27h-205v-289h207zM1731 1102v100h94 q67 0 67 -53q0 -47 -65 -47h-96zM223 1032l72 166l74 -166h-146zM784 1032l74 166l72 -166h-146zM1436 1032l73 166l72 -166h-145zM1731 967v108h96q30 0 52 -14.5t22 -42.5q0 -51 -76 -51h-94zM102 575h29v289h-29v-289zM416 629l-187 235h-18v-289h29v232l186 -232h18v289 h-28v-235zM688 836v-261h29v261h102v28h-233v-28h102zM1069 575h29v289h-29v-135h-174v135h-29v-289h29v127h174v-127zM1386 575v27h-178v105h166v26h-166v103h174v28h-204v-289h208zM1556 575h29v125h164v27h-164v109h170v28h-199v-289zM2042 864h-29v-178 q0 -43 -24.5 -65.5t-61.5 -22.5q-38 0 -62 24t-24 64v178h-29v-178q0 -56 33 -85.5t82 -29.5q50 0 82.5 29.5t32.5 85.5v178zM2148 864h-30v-289h190v27h-160v262zM2384 864h-29v-289h191v27h-162v262zM1438 438l24 15q-35 51 -108 51q-43 0 -77 -20t-34 -60 q0 -20 8.5 -34.5t27 -22.5t33 -12t40.5 -9q28 -5 44 -9.5t30 -17t14 -30.5q0 -56 -86 -56q-70 0 -94 50l-27 -15q16 -32 49.5 -47.5t71.5 -15.5q48 0 82 19.5t34 64.5q0 29 -18.5 47t-39 24.5t-56.5 12.5q-28 5 -43 9t-28 15t-13 27q0 28 24.5 39.5t57.5 11.5q64 0 84 -37z M1913 354q0 61 -39 105.5t-109 44.5q-67 0 -106 -43.5t-39 -106.5q0 -62 38 -106t107 -43q69 -1 108.5 43t39.5 106zM522 209l121 291h-33l-104 -258l-109 258h-30l122 -291h33zM901 209v29h-178v104h166v27h-166v102h174v29h-203v-291h207zM1202 209l-100 108q43 3 65.5 29 t22.5 62q0 39 -25.5 65.5t-70.5 26.5h-129v-291h28v106h74l96 -106h39zM1530 209h29v291h-29v-291zM2179 264l-186 236h-19v-291h29v233l186 -233h17v291h-29v-140zM1765 231q-55 0 -84.5 35.5t-31.5 87.5t29 87t87 34q57 1 88 -34.5t31 -86.5t-31 -87t-88 -36zM993 471h101 q32 0 49.5 -17.5t17.5 -45.5q0 -29 -17.5 -46.5t-51.5 -17.5h-99v127z" />
<glyph unicode="&#xa2;" d="M379 1008l31 -68h30l-131 289h-28l-129 -289h30l31 68h166zM594 940l121 289h-33l-104 -258l-109 258h-31l123 -289h33zM942 1008l29 -68h30l-129 289h-28l-131 -289h30l31 68h168zM1051 940h28v289h-28v-289zM1188 1229h-29v-289h191v27h-162v262zM1591 1008l31 -68h31 l-129 289h-29l-131 -289h31l30 68h166zM1825 1229h-123v-289h123q44 0 74 18.5t30 59.5q0 23 -14 42.5t-39 26.5q45 16 45 62q0 40 -27 60t-69 20zM2021 1229h-28v-289h188v27h-160v262zM2435 940v27h-178v104h168v27h-168v104h176v27h-205v-289h207zM1731 1102v100h94 q67 0 67 -53q0 -47 -65 -47h-96zM223 1032l72 166l74 -166h-146zM784 1032l74 166l72 -166h-146zM1436 1032l73 166l72 -166h-145zM1731 967v108h96q30 0 52 -14.5t22 -42.5q0 -51 -76 -51h-94zM102 575h29v289h-29v-289zM416 629l-187 235h-18v-289h29v232l186 -232h18v289 h-28v-235zM688 836v-261h29v261h102v28h-233v-28h102zM1069 575h29v289h-29v-135h-174v135h-29v-289h29v127h174v-127zM1386 575v27h-178v105h166v26h-166v103h174v28h-204v-289h208zM1556 575h29v125h164v27h-164v109h170v28h-199v-289zM2042 864h-29v-178 q0 -43 -24.5 -65.5t-61.5 -22.5q-38 0 -62 24t-24 64v178h-29v-178q0 -56 33 -85.5t82 -29.5q50 0 82.5 29.5t32.5 85.5v178zM2148 864h-30v-289h190v27h-160v262zM2384 864h-29v-289h191v27h-162v262zM1438 438l24 15q-35 51 -108 51q-43 0 -77 -20t-34 -60 q0 -20 8.5 -34.5t27 -22.5t33 -12t40.5 -9q28 -5 44 -9.5t30 -17t14 -30.5q0 -56 -86 -56q-70 0 -94 50l-27 -15q16 -32 49.5 -47.5t71.5 -15.5q48 0 82 19.5t34 64.5q0 29 -18.5 47t-39 24.5t-56.5 12.5q-28 5 -43 9t-28 15t-13 27q0 28 24.5 39.5t57.5 11.5q64 0 84 -37z M1913 354q0 61 -39 105.5t-109 44.5q-67 0 -106 -43.5t-39 -106.5q0 -62 38 -106t107 -43q69 -1 108.5 43t39.5 106zM522 209l121 291h-33l-104 -258l-109 258h-30l122 -291h33zM901 209v29h-178v104h166v27h-166v102h174v29h-203v-291h207zM1202 209l-100 108q43 3 65.5 29 t22.5 62q0 39 -25.5 65.5t-70.5 26.5h-129v-291h28v106h74l96 -106h39zM1530 209h29v291h-29v-291zM2179 264l-186 236h-19v-291h29v233l186 -233h17v291h-29v-140zM1765 231q-55 0 -84.5 35.5t-31.5 87.5t29 87t87 34q57 1 88 -34.5t31 -86.5t-31 -87t-88 -36zM993 471h101 q32 0 49.5 -17.5t17.5 -45.5q0 -29 -17.5 -46.5t-51.5 -17.5h-99v127z" />
<glyph unicode="&#xa3;" d="M379 1008l31 -68h30l-131 289h-28l-129 -289h30l31 68h166zM594 940l121 289h-33l-104 -258l-109 258h-31l123 -289h33zM942 1008l29 -68h30l-129 289h-28l-131 -289h30l31 68h168zM1051 940h28v289h-28v-289zM1188 1229h-29v-289h191v27h-162v262zM1591 1008l31 -68h31 l-129 289h-29l-131 -289h31l30 68h166zM1825 1229h-123v-289h123q44 0 74 18.5t30 59.5q0 23 -14 42.5t-39 26.5q45 16 45 62q0 40 -27 60t-69 20zM2021 1229h-28v-289h188v27h-160v262zM2435 940v27h-178v104h168v27h-168v104h176v27h-205v-289h207zM1731 1102v100h94 q67 0 67 -53q0 -47 -65 -47h-96zM223 1032l72 166l74 -166h-146zM784 1032l74 166l72 -166h-146zM1436 1032l73 166l72 -166h-145zM1731 967v108h96q30 0 52 -14.5t22 -42.5q0 -51 -76 -51h-94zM102 575h29v289h-29v-289zM416 629l-187 235h-18v-289h29v232l186 -232h18v289 h-28v-235zM688 836v-261h29v261h102v28h-233v-28h102zM1069 575h29v289h-29v-135h-174v135h-29v-289h29v127h174v-127zM1386 575v27h-178v105h166v26h-166v103h174v28h-204v-289h208zM1556 575h29v125h164v27h-164v109h170v28h-199v-289zM2042 864h-29v-178 q0 -43 -24.5 -65.5t-61.5 -22.5q-38 0 -62 24t-24 64v178h-29v-178q0 -56 33 -85.5t82 -29.5q50 0 82.5 29.5t32.5 85.5v178zM2148 864h-30v-289h190v27h-160v262zM2384 864h-29v-289h191v27h-162v262zM1438 438l24 15q-35 51 -108 51q-43 0 -77 -20t-34 -60 q0 -20 8.5 -34.5t27 -22.5t33 -12t40.5 -9q28 -5 44 -9.5t30 -17t14 -30.5q0 -56 -86 -56q-70 0 -94 50l-27 -15q16 -32 49.5 -47.5t71.5 -15.5q48 0 82 19.5t34 64.5q0 29 -18.5 47t-39 24.5t-56.5 12.5q-28 5 -43 9t-28 15t-13 27q0 28 24.5 39.5t57.5 11.5q64 0 84 -37z M1913 354q0 61 -39 105.5t-109 44.5q-67 0 -106 -43.5t-39 -106.5q0 -62 38 -106t107 -43q69 -1 108.5 43t39.5 106zM522 209l121 291h-33l-104 -258l-109 258h-30l122 -291h33zM901 209v29h-178v104h166v27h-166v102h174v29h-203v-291h207zM1202 209l-100 108q43 3 65.5 29 t22.5 62q0 39 -25.5 65.5t-70.5 26.5h-129v-291h28v106h74l96 -106h39zM1530 209h29v291h-29v-291zM2179 264l-186 236h-19v-291h29v233l186 -233h17v291h-29v-140zM1765 231q-55 0 -84.5 35.5t-31.5 87.5t29 87t87 34q57 1 88 -34.5t31 -86.5t-31 -87t-88 -36zM993 471h101 q32 0 49.5 -17.5t17.5 -45.5q0 -29 -17.5 -46.5t-51.5 -17.5h-99v127z" />
<glyph unicode="&#xa4;" d="M379 1008l31 -68h30l-131 289h-28l-129 -289h30l31 68h166zM594 940l121 289h-33l-104 -258l-109 258h-31l123 -289h33zM942 1008l29 -68h30l-129 289h-28l-131 -289h30l31 68h168zM1051 940h28v289h-28v-289zM1188 1229h-29v-289h191v27h-162v262zM1591 1008l31 -68h31 l-129 289h-29l-131 -289h31l30 68h166zM1825 1229h-123v-289h123q44 0 74 18.5t30 59.5q0 23 -14 42.5t-39 26.5q45 16 45 62q0 40 -27 60t-69 20zM2021 1229h-28v-289h188v27h-160v262zM2435 940v27h-178v104h168v27h-168v104h176v27h-205v-289h207zM1731 1102v100h94 q67 0 67 -53q0 -47 -65 -47h-96zM223 1032l72 166l74 -166h-146zM784 1032l74 166l72 -166h-146zM1436 1032l73 166l72 -166h-145zM1731 967v108h96q30 0 52 -14.5t22 -42.5q0 -51 -76 -51h-94zM102 575h29v289h-29v-289zM416 629l-187 235h-18v-289h29v232l186 -232h18v289 h-28v-235zM688 836v-261h29v261h102v28h-233v-28h102zM1069 575h29v289h-29v-135h-174v135h-29v-289h29v127h174v-127zM1386 575v27h-178v105h166v26h-166v103h174v28h-204v-289h208zM1556 575h29v125h164v27h-164v109h170v28h-199v-289zM2042 864h-29v-178 q0 -43 -24.5 -65.5t-61.5 -22.5q-38 0 -62 24t-24 64v178h-29v-178q0 -56 33 -85.5t82 -29.5q50 0 82.5 29.5t32.5 85.5v178zM2148 864h-30v-289h190v27h-160v262zM2384 864h-29v-289h191v27h-162v262zM1438 438l24 15q-35 51 -108 51q-43 0 -77 -20t-34 -60 q0 -20 8.5 -34.5t27 -22.5t33 -12t40.5 -9q28 -5 44 -9.5t30 -17t14 -30.5q0 -56 -86 -56q-70 0 -94 50l-27 -15q16 -32 49.5 -47.5t71.5 -15.5q48 0 82 19.5t34 64.5q0 29 -18.5 47t-39 24.5t-56.5 12.5q-28 5 -43 9t-28 15t-13 27q0 28 24.5 39.5t57.5 11.5q64 0 84 -37z M1913 354q0 61 -39 105.5t-109 44.5q-67 0 -106 -43.5t-39 -106.5q0 -62 38 -106t107 -43q69 -1 108.5 43t39.5 106zM522 209l121 291h-33l-104 -258l-109 258h-30l122 -291h33zM901 209v29h-178v104h166v27h-166v102h174v29h-203v-291h207zM1202 209l-100 108q43 3 65.5 29 t22.5 62q0 39 -25.5 65.5t-70.5 26.5h-129v-291h28v106h74l96 -106h39zM1530 209h29v291h-29v-291zM2179 264l-186 236h-19v-291h29v233l186 -233h17v291h-29v-140zM1765 231q-55 0 -84.5 35.5t-31.5 87.5t29 87t87 34q57 1 88 -34.5t31 -86.5t-31 -87t-88 -36zM993 471h101 q32 0 49.5 -17.5t17.5 -45.5q0 -29 -17.5 -46.5t-51.5 -17.5h-99v127z" />
<glyph unicode="&#xa5;" d="M379 1008l31 -68h30l-131 289h-28l-129 -289h30l31 68h166zM594 940l121 289h-33l-104 -258l-109 258h-31l123 -289h33zM942 1008l29 -68h30l-129 289h-28l-131 -289h30l31 68h168zM1051 940h28v289h-28v-289zM1188 1229h-29v-289h191v27h-162v262zM1591 1008l31 -68h31 l-129 289h-29l-131 -289h31l30 68h166zM1825 1229h-123v-289h123q44 0 74 18.5t30 59.5q0 23 -14 42.5t-39 26.5q45 16 45 62q0 40 -27 60t-69 20zM2021 1229h-28v-289h188v27h-160v262zM2435 940v27h-178v104h168v27h-168v104h176v27h-205v-289h207zM1731 1102v100h94 q67 0 67 -53q0 -47 -65 -47h-96zM223 1032l72 166l74 -166h-146zM784 1032l74 166l72 -166h-146zM1436 1032l73 166l72 -166h-145zM1731 967v108h96q30 0 52 -14.5t22 -42.5q0 -51 -76 -51h-94zM102 575h29v289h-29v-289zM416 629l-187 235h-18v-289h29v232l186 -232h18v289 h-28v-235zM688 836v-261h29v261h102v28h-233v-28h102zM1069 575h29v289h-29v-135h-174v135h-29v-289h29v127h174v-127zM1386 575v27h-178v105h166v26h-166v103h174v28h-204v-289h208zM1556 575h29v125h164v27h-164v109h170v28h-199v-289zM2042 864h-29v-178 q0 -43 -24.5 -65.5t-61.5 -22.5q-38 0 -62 24t-24 64v178h-29v-178q0 -56 33 -85.5t82 -29.5q50 0 82.5 29.5t32.5 85.5v178zM2148 864h-30v-289h190v27h-160v262zM2384 864h-29v-289h191v27h-162v262zM1438 438l24 15q-35 51 -108 51q-43 0 -77 -20t-34 -60 q0 -20 8.5 -34.5t27 -22.5t33 -12t40.5 -9q28 -5 44 -9.5t30 -17t14 -30.5q0 -56 -86 -56q-70 0 -94 50l-27 -15q16 -32 49.5 -47.5t71.5 -15.5q48 0 82 19.5t34 64.5q0 29 -18.5 47t-39 24.5t-56.5 12.5q-28 5 -43 9t-28 15t-13 27q0 28 24.5 39.5t57.5 11.5q64 0 84 -37z M1913 354q0 61 -39 105.5t-109 44.5q-67 0 -106 -43.5t-39 -106.5q0 -62 38 -106t107 -43q69 -1 108.5 43t39.5 106zM522 209l121 291h-33l-104 -258l-109 258h-30l122 -291h33zM901 209v29h-178v104h166v27h-166v102h174v29h-203v-291h207zM1202 209l-100 108q43 3 65.5 29 t22.5 62q0 39 -25.5 65.5t-70.5 26.5h-129v-291h28v106h74l96 -106h39zM1530 209h29v291h-29v-291zM2179 264l-186 236h-19v-291h29v233l186 -233h17v291h-29v-140zM1765 231q-55 0 -84.5 35.5t-31.5 87.5t29 87t87 34q57 1 88 -34.5t31 -86.5t-31 -87t-88 -36zM993 471h101 q32 0 49.5 -17.5t17.5 -45.5q0 -29 -17.5 -46.5t-51.5 -17.5h-99v127z" />
<glyph unicode="&#xa6;" d="M379 1008l31 -68h30l-131 289h-28l-129 -289h30l31 68h166zM594 940l121 289h-33l-104 -258l-109 258h-31l123 -289h33zM942 1008l29 -68h30l-129 289h-28l-131 -289h30l31 68h168zM1051 940h28v289h-28v-289zM1188 1229h-29v-289h191v27h-162v262zM1591 1008l31 -68h31 l-129 289h-29l-131 -289h31l30 68h166zM1825 1229h-123v-289h123q44 0 74 18.5t30 59.5q0 23 -14 42.5t-39 26.5q45 16 45 62q0 40 -27 60t-69 20zM2021 1229h-28v-289h188v27h-160v262zM2435 940v27h-178v104h168v27h-168v104h176v27h-205v-289h207zM1731 1102v100h94 q67 0 67 -53q0 -47 -65 -47h-96zM223 1032l72 166l74 -166h-146zM784 1032l74 166l72 -166h-146zM1436 1032l73 166l72 -166h-145zM1731 967v108h96q30 0 52 -14.5t22 -42.5q0 -51 -76 -51h-94zM102 575h29v289h-29v-289zM416 629l-187 235h-18v-289h29v232l186 -232h18v289 h-28v-235zM688 836v-261h29v261h102v28h-233v-28h102zM1069 575h29v289h-29v-135h-174v135h-29v-289h29v127h174v-127zM1386 575v27h-178v105h166v26h-166v103h174v28h-204v-289h208zM1556 575h29v125h164v27h-164v109h170v28h-199v-289zM2042 864h-29v-178 q0 -43 -24.5 -65.5t-61.5 -22.5q-38 0 -62 24t-24 64v178h-29v-178q0 -56 33 -85.5t82 -29.5q50 0 82.5 29.5t32.5 85.5v178zM2148 864h-30v-289h190v27h-160v262zM2384 864h-29v-289h191v27h-162v262zM1438 438l24 15q-35 51 -108 51q-43 0 -77 -20t-34 -60 q0 -20 8.5 -34.5t27 -22.5t33 -12t40.5 -9q28 -5 44 -9.5t30 -17t14 -30.5q0 -56 -86 -56q-70 0 -94 50l-27 -15q16 -32 49.5 -47.5t71.5 -15.5q48 0 82 19.5t34 64.5q0 29 -18.5 47t-39 24.5t-56.5 12.5q-28 5 -43 9t-28 15t-13 27q0 28 24.5 39.5t57.5 11.5q64 0 84 -37z M1913 354q0 61 -39 105.5t-109 44.5q-67 0 -106 -43.5t-39 -106.5q0 -62 38 -106t107 -43q69 -1 108.5 43t39.5 106zM522 209l121 291h-33l-104 -258l-109 258h-30l122 -291h33zM901 209v29h-178v104h166v27h-166v102h174v29h-203v-291h207zM1202 209l-100 108q43 3 65.5 29 t22.5 62q0 39 -25.5 65.5t-70.5 26.5h-129v-291h28v106h74l96 -106h39zM1530 209h29v291h-29v-291zM2179 264l-186 236h-19v-291h29v233l186 -233h17v291h-29v-140zM1765 231q-55 0 -84.5 35.5t-31.5 87.5t29 87t87 34q57 1 88 -34.5t31 -86.5t-31 -87t-88 -36zM993 471h101 q32 0 49.5 -17.5t17.5 -45.5q0 -29 -17.5 -46.5t-51.5 -17.5h-99v127z" />
<glyph unicode="&#xa7;" d="M379 1008l31 -68h30l-131 289h-28l-129 -289h30l31 68h166zM594 940l121 289h-33l-104 -258l-109 258h-31l123 -289h33zM942 1008l29 -68h30l-129 289h-28l-131 -289h30l31 68h168zM1051 940h28v289h-28v-289zM1188 1229h-29v-289h191v27h-162v262zM1591 1008l31 -68h31 l-129 289h-29l-131 -289h31l30 68h166zM1825 1229h-123v-289h123q44 0 74 18.5t30 59.5q0 23 -14 42.5t-39 26.5q45 16 45 62q0 40 -27 60t-69 20zM2021 1229h-28v-289h188v27h-160v262zM2435 940v27h-178v104h168v27h-168v104h176v27h-205v-289h207zM1731 1102v100h94 q67 0 67 -53q0 -47 -65 -47h-96zM223 1032l72 166l74 -166h-146zM784 1032l74 166l72 -166h-146zM1436 1032l73 166l72 -166h-145zM1731 967v108h96q30 0 52 -14.5t22 -42.5q0 -51 -76 -51h-94zM102 575h29v289h-29v-289zM416 629l-187 235h-18v-289h29v232l186 -232h18v289 h-28v-235zM688 836v-261h29v261h102v28h-233v-28h102zM1069 575h29v289h-29v-135h-174v135h-29v-289h29v127h174v-127zM1386 575v27h-178v105h166v26h-166v103h174v28h-204v-289h208zM1556 575h29v125h164v27h-164v109h170v28h-199v-289zM2042 864h-29v-178 q0 -43 -24.5 -65.5t-61.5 -22.5q-38 0 -62 24t-24 64v178h-29v-178q0 -56 33 -85.5t82 -29.5q50 0 82.5 29.5t32.5 85.5v178zM2148 864h-30v-289h190v27h-160v262zM2384 864h-29v-289h191v27h-162v262zM1438 438l24 15q-35 51 -108 51q-43 0 -77 -20t-34 -60 q0 -20 8.5 -34.5t27 -22.5t33 -12t40.5 -9q28 -5 44 -9.5t30 -17t14 -30.5q0 -56 -86 -56q-70 0 -94 50l-27 -15q16 -32 49.5 -47.5t71.5 -15.5q48 0 82 19.5t34 64.5q0 29 -18.5 47t-39 24.5t-56.5 12.5q-28 5 -43 9t-28 15t-13 27q0 28 24.5 39.5t57.5 11.5q64 0 84 -37z M1913 354q0 61 -39 105.5t-109 44.5q-67 0 -106 -43.5t-39 -106.5q0 -62 38 -106t107 -43q69 -1 108.5 43t39.5 106zM522 209l121 291h-33l-104 -258l-109 258h-30l122 -291h33zM901 209v29h-178v104h166v27h-166v102h174v29h-203v-291h207zM1202 209l-100 108q43 3 65.5 29 t22.5 62q0 39 -25.5 65.5t-70.5 26.5h-129v-291h28v106h74l96 -106h39zM1530 209h29v291h-29v-291zM2179 264l-186 236h-19v-291h29v233l186 -233h17v291h-29v-140zM1765 231q-55 0 -84.5 35.5t-31.5 87.5t29 87t87 34q57 1 88 -34.5t31 -86.5t-31 -87t-88 -36zM993 471h101 q32 0 49.5 -17.5t17.5 -45.5q0 -29 -17.5 -46.5t-51.5 -17.5h-99v127z" />
<glyph unicode="&#xa8;" horiz-adv-x="487" d="M352 1602q88 9 109 -39q15 -31 -15 -62t-92 -31q-27 0 -42 19.5t-15 43.5t14.5 45t40.5 24zM145 1604q40 0 56.5 -34.5t1 -69t-55.5 -34.5q-38 0 -70 16.5t-32 53.5q-2 36 21.5 52t78.5 16z" />
<glyph unicode="&#xa9;" d="M379 1008l31 -68h30l-131 289h-28l-129 -289h30l31 68h166zM594 940l121 289h-33l-104 -258l-109 258h-31l123 -289h33zM942 1008l29 -68h30l-129 289h-28l-131 -289h30l31 68h168zM1051 940h28v289h-28v-289zM1188 1229h-29v-289h191v27h-162v262zM1591 1008l31 -68h31 l-129 289h-29l-131 -289h31l30 68h166zM1825 1229h-123v-289h123q44 0 74 18.5t30 59.5q0 23 -14 42.5t-39 26.5q45 16 45 62q0 40 -27 60t-69 20zM2021 1229h-28v-289h188v27h-160v262zM2435 940v27h-178v104h168v27h-168v104h176v27h-205v-289h207zM1731 1102v100h94 q67 0 67 -53q0 -47 -65 -47h-96zM223 1032l72 166l74 -166h-146zM784 1032l74 166l72 -166h-146zM1436 1032l73 166l72 -166h-145zM1731 967v108h96q30 0 52 -14.5t22 -42.5q0 -51 -76 -51h-94zM102 575h29v289h-29v-289zM416 629l-187 235h-18v-289h29v232l186 -232h18v289 h-28v-235zM688 836v-261h29v261h102v28h-233v-28h102zM1069 575h29v289h-29v-135h-174v135h-29v-289h29v127h174v-127zM1386 575v27h-178v105h166v26h-166v103h174v28h-204v-289h208zM1556 575h29v125h164v27h-164v109h170v28h-199v-289zM2042 864h-29v-178 q0 -43 -24.5 -65.5t-61.5 -22.5q-38 0 -62 24t-24 64v178h-29v-178q0 -56 33 -85.5t82 -29.5q50 0 82.5 29.5t32.5 85.5v178zM2148 864h-30v-289h190v27h-160v262zM2384 864h-29v-289h191v27h-162v262zM1438 438l24 15q-35 51 -108 51q-43 0 -77 -20t-34 -60 q0 -20 8.5 -34.5t27 -22.5t33 -12t40.5 -9q28 -5 44 -9.5t30 -17t14 -30.5q0 -56 -86 -56q-70 0 -94 50l-27 -15q16 -32 49.5 -47.5t71.5 -15.5q48 0 82 19.5t34 64.5q0 29 -18.5 47t-39 24.5t-56.5 12.5q-28 5 -43 9t-28 15t-13 27q0 28 24.5 39.5t57.5 11.5q64 0 84 -37z M1913 354q0 61 -39 105.5t-109 44.5q-67 0 -106 -43.5t-39 -106.5q0 -62 38 -106t107 -43q69 -1 108.5 43t39.5 106zM522 209l121 291h-33l-104 -258l-109 258h-30l122 -291h33zM901 209v29h-178v104h166v27h-166v102h174v29h-203v-291h207zM1202 209l-100 108q43 3 65.5 29 t22.5 62q0 39 -25.5 65.5t-70.5 26.5h-129v-291h28v106h74l96 -106h39zM1530 209h29v291h-29v-291zM2179 264l-186 236h-19v-291h29v233l186 -233h17v291h-29v-140zM1765 231q-55 0 -84.5 35.5t-31.5 87.5t29 87t87 34q57 1 88 -34.5t31 -86.5t-31 -87t-88 -36zM993 471h101 q32 0 49.5 -17.5t17.5 -45.5q0 -29 -17.5 -46.5t-51.5 -17.5h-99v127z" />
<glyph unicode="&#xab;" d="M379 1008l31 -68h30l-131 289h-28l-129 -289h30l31 68h166zM594 940l121 289h-33l-104 -258l-109 258h-31l123 -289h33zM942 1008l29 -68h30l-129 289h-28l-131 -289h30l31 68h168zM1051 940h28v289h-28v-289zM1188 1229h-29v-289h191v27h-162v262zM1591 1008l31 -68h31 l-129 289h-29l-131 -289h31l30 68h166zM1825 1229h-123v-289h123q44 0 74 18.5t30 59.5q0 23 -14 42.5t-39 26.5q45 16 45 62q0 40 -27 60t-69 20zM2021 1229h-28v-289h188v27h-160v262zM2435 940v27h-178v104h168v27h-168v104h176v27h-205v-289h207zM1731 1102v100h94 q67 0 67 -53q0 -47 -65 -47h-96zM223 1032l72 166l74 -166h-146zM784 1032l74 166l72 -166h-146zM1436 1032l73 166l72 -166h-145zM1731 967v108h96q30 0 52 -14.5t22 -42.5q0 -51 -76 -51h-94zM102 575h29v289h-29v-289zM416 629l-187 235h-18v-289h29v232l186 -232h18v289 h-28v-235zM688 836v-261h29v261h102v28h-233v-28h102zM1069 575h29v289h-29v-135h-174v135h-29v-289h29v127h174v-127zM1386 575v27h-178v105h166v26h-166v103h174v28h-204v-289h208zM1556 575h29v125h164v27h-164v109h170v28h-199v-289zM2042 864h-29v-178 q0 -43 -24.5 -65.5t-61.5 -22.5q-38 0 -62 24t-24 64v178h-29v-178q0 -56 33 -85.5t82 -29.5q50 0 82.5 29.5t32.5 85.5v178zM2148 864h-30v-289h190v27h-160v262zM2384 864h-29v-289h191v27h-162v262zM1438 438l24 15q-35 51 -108 51q-43 0 -77 -20t-34 -60 q0 -20 8.5 -34.5t27 -22.5t33 -12t40.5 -9q28 -5 44 -9.5t30 -17t14 -30.5q0 -56 -86 -56q-70 0 -94 50l-27 -15q16 -32 49.5 -47.5t71.5 -15.5q48 0 82 19.5t34 64.5q0 29 -18.5 47t-39 24.5t-56.5 12.5q-28 5 -43 9t-28 15t-13 27q0 28 24.5 39.5t57.5 11.5q64 0 84 -37z M1913 354q0 61 -39 105.5t-109 44.5q-67 0 -106 -43.5t-39 -106.5q0 -62 38 -106t107 -43q69 -1 108.5 43t39.5 106zM522 209l121 291h-33l-104 -258l-109 258h-30l122 -291h33zM901 209v29h-178v104h166v27h-166v102h174v29h-203v-291h207zM1202 209l-100 108q43 3 65.5 29 t22.5 62q0 39 -25.5 65.5t-70.5 26.5h-129v-291h28v106h74l96 -106h39zM1530 209h29v291h-29v-291zM2179 264l-186 236h-19v-291h29v233l186 -233h17v291h-29v-140zM1765 231q-55 0 -84.5 35.5t-31.5 87.5t29 87t87 34q57 1 88 -34.5t31 -86.5t-31 -87t-88 -36zM993 471h101 q32 0 49.5 -17.5t17.5 -45.5q0 -29 -17.5 -46.5t-51.5 -17.5h-99v127z" />
<glyph unicode="&#xac;" d="M379 1008l31 -68h30l-131 289h-28l-129 -289h30l31 68h166zM594 940l121 289h-33l-104 -258l-109 258h-31l123 -289h33zM942 1008l29 -68h30l-129 289h-28l-131 -289h30l31 68h168zM1051 940h28v289h-28v-289zM1188 1229h-29v-289h191v27h-162v262zM1591 1008l31 -68h31 l-129 289h-29l-131 -289h31l30 68h166zM1825 1229h-123v-289h123q44 0 74 18.5t30 59.5q0 23 -14 42.5t-39 26.5q45 16 45 62q0 40 -27 60t-69 20zM2021 1229h-28v-289h188v27h-160v262zM2435 940v27h-178v104h168v27h-168v104h176v27h-205v-289h207zM1731 1102v100h94 q67 0 67 -53q0 -47 -65 -47h-96zM223 1032l72 166l74 -166h-146zM784 1032l74 166l72 -166h-146zM1436 1032l73 166l72 -166h-145zM1731 967v108h96q30 0 52 -14.5t22 -42.5q0 -51 -76 -51h-94zM102 575h29v289h-29v-289zM416 629l-187 235h-18v-289h29v232l186 -232h18v289 h-28v-235zM688 836v-261h29v261h102v28h-233v-28h102zM1069 575h29v289h-29v-135h-174v135h-29v-289h29v127h174v-127zM1386 575v27h-178v105h166v26h-166v103h174v28h-204v-289h208zM1556 575h29v125h164v27h-164v109h170v28h-199v-289zM2042 864h-29v-178 q0 -43 -24.5 -65.5t-61.5 -22.5q-38 0 -62 24t-24 64v178h-29v-178q0 -56 33 -85.5t82 -29.5q50 0 82.5 29.5t32.5 85.5v178zM2148 864h-30v-289h190v27h-160v262zM2384 864h-29v-289h191v27h-162v262zM1438 438l24 15q-35 51 -108 51q-43 0 -77 -20t-34 -60 q0 -20 8.5 -34.5t27 -22.5t33 -12t40.5 -9q28 -5 44 -9.5t30 -17t14 -30.5q0 -56 -86 -56q-70 0 -94 50l-27 -15q16 -32 49.5 -47.5t71.5 -15.5q48 0 82 19.5t34 64.5q0 29 -18.5 47t-39 24.5t-56.5 12.5q-28 5 -43 9t-28 15t-13 27q0 28 24.5 39.5t57.5 11.5q64 0 84 -37z M1913 354q0 61 -39 105.5t-109 44.5q-67 0 -106 -43.5t-39 -106.5q0 -62 38 -106t107 -43q69 -1 108.5 43t39.5 106zM522 209l121 291h-33l-104 -258l-109 258h-30l122 -291h33zM901 209v29h-178v104h166v27h-166v102h174v29h-203v-291h207zM1202 209l-100 108q43 3 65.5 29 t22.5 62q0 39 -25.5 65.5t-70.5 26.5h-129v-291h28v106h74l96 -106h39zM1530 209h29v291h-29v-291zM2179 264l-186 236h-19v-291h29v233l186 -233h17v291h-29v-140zM1765 231q-55 0 -84.5 35.5t-31.5 87.5t29 87t87 34q57 1 88 -34.5t31 -86.5t-31 -87t-88 -36zM993 471h101 q32 0 49.5 -17.5t17.5 -45.5q0 -29 -17.5 -46.5t-51.5 -17.5h-99v127z" />
<glyph unicode="&#xad;" d="M379 1008l31 -68h30l-131 289h-28l-129 -289h30l31 68h166zM594 940l121 289h-33l-104 -258l-109 258h-31l123 -289h33zM942 1008l29 -68h30l-129 289h-28l-131 -289h30l31 68h168zM1051 940h28v289h-28v-289zM1188 1229h-29v-289h191v27h-162v262zM1591 1008l31 -68h31 l-129 289h-29l-131 -289h31l30 68h166zM1825 1229h-123v-289h123q44 0 74 18.5t30 59.5q0 23 -14 42.5t-39 26.5q45 16 45 62q0 40 -27 60t-69 20zM2021 1229h-28v-289h188v27h-160v262zM2435 940v27h-178v104h168v27h-168v104h176v27h-205v-289h207zM1731 1102v100h94 q67 0 67 -53q0 -47 -65 -47h-96zM223 1032l72 166l74 -166h-146zM784 1032l74 166l72 -166h-146zM1436 1032l73 166l72 -166h-145zM1731 967v108h96q30 0 52 -14.5t22 -42.5q0 -51 -76 -51h-94zM102 575h29v289h-29v-289zM416 629l-187 235h-18v-289h29v232l186 -232h18v289 h-28v-235zM688 836v-261h29v261h102v28h-233v-28h102zM1069 575h29v289h-29v-135h-174v135h-29v-289h29v127h174v-127zM1386 575v27h-178v105h166v26h-166v103h174v28h-204v-289h208zM1556 575h29v125h164v27h-164v109h170v28h-199v-289zM2042 864h-29v-178 q0 -43 -24.5 -65.5t-61.5 -22.5q-38 0 -62 24t-24 64v178h-29v-178q0 -56 33 -85.5t82 -29.5q50 0 82.5 29.5t32.5 85.5v178zM2148 864h-30v-289h190v27h-160v262zM2384 864h-29v-289h191v27h-162v262zM1438 438l24 15q-35 51 -108 51q-43 0 -77 -20t-34 -60 q0 -20 8.5 -34.5t27 -22.5t33 -12t40.5 -9q28 -5 44 -9.5t30 -17t14 -30.5q0 -56 -86 -56q-70 0 -94 50l-27 -15q16 -32 49.5 -47.5t71.5 -15.5q48 0 82 19.5t34 64.5q0 29 -18.5 47t-39 24.5t-56.5 12.5q-28 5 -43 9t-28 15t-13 27q0 28 24.5 39.5t57.5 11.5q64 0 84 -37z M1913 354q0 61 -39 105.5t-109 44.5q-67 0 -106 -43.5t-39 -106.5q0 -62 38 -106t107 -43q69 -1 108.5 43t39.5 106zM522 209l121 291h-33l-104 -258l-109 258h-30l122 -291h33zM901 209v29h-178v104h166v27h-166v102h174v29h-203v-291h207zM1202 209l-100 108q43 3 65.5 29 t22.5 62q0 39 -25.5 65.5t-70.5 26.5h-129v-291h28v106h74l96 -106h39zM1530 209h29v291h-29v-291zM2179 264l-186 236h-19v-291h29v233l186 -233h17v291h-29v-140zM1765 231q-55 0 -84.5 35.5t-31.5 87.5t29 87t87 34q57 1 88 -34.5t31 -86.5t-31 -87t-88 -36zM993 471h101 q32 0 49.5 -17.5t17.5 -45.5q0 -29 -17.5 -46.5t-51.5 -17.5h-99v127z" />
<glyph unicode="&#xae;" d="M379 1008l31 -68h30l-131 289h-28l-129 -289h30l31 68h166zM594 940l121 289h-33l-104 -258l-109 258h-31l123 -289h33zM942 1008l29 -68h30l-129 289h-28l-131 -289h30l31 68h168zM1051 940h28v289h-28v-289zM1188 1229h-29v-289h191v27h-162v262zM1591 1008l31 -68h31 l-129 289h-29l-131 -289h31l30 68h166zM1825 1229h-123v-289h123q44 0 74 18.5t30 59.5q0 23 -14 42.5t-39 26.5q45 16 45 62q0 40 -27 60t-69 20zM2021 1229h-28v-289h188v27h-160v262zM2435 940v27h-178v104h168v27h-168v104h176v27h-205v-289h207zM1731 1102v100h94 q67 0 67 -53q0 -47 -65 -47h-96zM223 1032l72 166l74 -166h-146zM784 1032l74 166l72 -166h-146zM1436 1032l73 166l72 -166h-145zM1731 967v108h96q30 0 52 -14.5t22 -42.5q0 -51 -76 -51h-94zM102 575h29v289h-29v-289zM416 629l-187 235h-18v-289h29v232l186 -232h18v289 h-28v-235zM688 836v-261h29v261h102v28h-233v-28h102zM1069 575h29v289h-29v-135h-174v135h-29v-289h29v127h174v-127zM1386 575v27h-178v105h166v26h-166v103h174v28h-204v-289h208zM1556 575h29v125h164v27h-164v109h170v28h-199v-289zM2042 864h-29v-178 q0 -43 -24.5 -65.5t-61.5 -22.5q-38 0 -62 24t-24 64v178h-29v-178q0 -56 33 -85.5t82 -29.5q50 0 82.5 29.5t32.5 85.5v178zM2148 864h-30v-289h190v27h-160v262zM2384 864h-29v-289h191v27h-162v262zM1438 438l24 15q-35 51 -108 51q-43 0 -77 -20t-34 -60 q0 -20 8.5 -34.5t27 -22.5t33 -12t40.5 -9q28 -5 44 -9.5t30 -17t14 -30.5q0 -56 -86 -56q-70 0 -94 50l-27 -15q16 -32 49.5 -47.5t71.5 -15.5q48 0 82 19.5t34 64.5q0 29 -18.5 47t-39 24.5t-56.5 12.5q-28 5 -43 9t-28 15t-13 27q0 28 24.5 39.5t57.5 11.5q64 0 84 -37z M1913 354q0 61 -39 105.5t-109 44.5q-67 0 -106 -43.5t-39 -106.5q0 -62 38 -106t107 -43q69 -1 108.5 43t39.5 106zM522 209l121 291h-33l-104 -258l-109 258h-30l122 -291h33zM901 209v29h-178v104h166v27h-166v102h174v29h-203v-291h207zM1202 209l-100 108q43 3 65.5 29 t22.5 62q0 39 -25.5 65.5t-70.5 26.5h-129v-291h28v106h74l96 -106h39zM1530 209h29v291h-29v-291zM2179 264l-186 236h-19v-291h29v233l186 -233h17v291h-29v-140zM1765 231q-55 0 -84.5 35.5t-31.5 87.5t29 87t87 34q57 1 88 -34.5t31 -86.5t-31 -87t-88 -36zM993 471h101 q32 0 49.5 -17.5t17.5 -45.5q0 -29 -17.5 -46.5t-51.5 -17.5h-99v127z" />
<glyph unicode="&#xaf;" horiz-adv-x="430" d="M356 1618q39 2 59.5 -24.5t7.5 -54.5t-54 -30q-181 -9 -301 0q-38 3 -55.5 31t-2.5 54t56 24q145 -8 290 0z" />
<glyph unicode="&#xb0;" d="M379 1008l31 -68h30l-131 289h-28l-129 -289h30l31 68h166zM594 940l121 289h-33l-104 -258l-109 258h-31l123 -289h33zM942 1008l29 -68h30l-129 289h-28l-131 -289h30l31 68h168zM1051 940h28v289h-28v-289zM1188 1229h-29v-289h191v27h-162v262zM1591 1008l31 -68h31 l-129 289h-29l-131 -289h31l30 68h166zM1825 1229h-123v-289h123q44 0 74 18.5t30 59.5q0 23 -14 42.5t-39 26.5q45 16 45 62q0 40 -27 60t-69 20zM2021 1229h-28v-289h188v27h-160v262zM2435 940v27h-178v104h168v27h-168v104h176v27h-205v-289h207zM1731 1102v100h94 q67 0 67 -53q0 -47 -65 -47h-96zM223 1032l72 166l74 -166h-146zM784 1032l74 166l72 -166h-146zM1436 1032l73 166l72 -166h-145zM1731 967v108h96q30 0 52 -14.5t22 -42.5q0 -51 -76 -51h-94zM102 575h29v289h-29v-289zM416 629l-187 235h-18v-289h29v232l186 -232h18v289 h-28v-235zM688 836v-261h29v261h102v28h-233v-28h102zM1069 575h29v289h-29v-135h-174v135h-29v-289h29v127h174v-127zM1386 575v27h-178v105h166v26h-166v103h174v28h-204v-289h208zM1556 575h29v125h164v27h-164v109h170v28h-199v-289zM2042 864h-29v-178 q0 -43 -24.5 -65.5t-61.5 -22.5q-38 0 -62 24t-24 64v178h-29v-178q0 -56 33 -85.5t82 -29.5q50 0 82.5 29.5t32.5 85.5v178zM2148 864h-30v-289h190v27h-160v262zM2384 864h-29v-289h191v27h-162v262zM1438 438l24 15q-35 51 -108 51q-43 0 -77 -20t-34 -60 q0 -20 8.5 -34.5t27 -22.5t33 -12t40.5 -9q28 -5 44 -9.5t30 -17t14 -30.5q0 -56 -86 -56q-70 0 -94 50l-27 -15q16 -32 49.5 -47.5t71.5 -15.5q48 0 82 19.5t34 64.5q0 29 -18.5 47t-39 24.5t-56.5 12.5q-28 5 -43 9t-28 15t-13 27q0 28 24.5 39.5t57.5 11.5q64 0 84 -37z M1913 354q0 61 -39 105.5t-109 44.5q-67 0 -106 -43.5t-39 -106.5q0 -62 38 -106t107 -43q69 -1 108.5 43t39.5 106zM522 209l121 291h-33l-104 -258l-109 258h-30l122 -291h33zM901 209v29h-178v104h166v27h-166v102h174v29h-203v-291h207zM1202 209l-100 108q43 3 65.5 29 t22.5 62q0 39 -25.5 65.5t-70.5 26.5h-129v-291h28v106h74l96 -106h39zM1530 209h29v291h-29v-291zM2179 264l-186 236h-19v-291h29v233l186 -233h17v291h-29v-140zM1765 231q-55 0 -84.5 35.5t-31.5 87.5t29 87t87 34q57 1 88 -34.5t31 -86.5t-31 -87t-88 -36zM993 471h101 q32 0 49.5 -17.5t17.5 -45.5q0 -29 -17.5 -46.5t-51.5 -17.5h-99v127z" />
<glyph unicode="&#xb1;" d="M379 1008l31 -68h30l-131 289h-28l-129 -289h30l31 68h166zM594 940l121 289h-33l-104 -258l-109 258h-31l123 -289h33zM942 1008l29 -68h30l-129 289h-28l-131 -289h30l31 68h168zM1051 940h28v289h-28v-289zM1188 1229h-29v-289h191v27h-162v262zM1591 1008l31 -68h31 l-129 289h-29l-131 -289h31l30 68h166zM1825 1229h-123v-289h123q44 0 74 18.5t30 59.5q0 23 -14 42.5t-39 26.5q45 16 45 62q0 40 -27 60t-69 20zM2021 1229h-28v-289h188v27h-160v262zM2435 940v27h-178v104h168v27h-168v104h176v27h-205v-289h207zM1731 1102v100h94 q67 0 67 -53q0 -47 -65 -47h-96zM223 1032l72 166l74 -166h-146zM784 1032l74 166l72 -166h-146zM1436 1032l73 166l72 -166h-145zM1731 967v108h96q30 0 52 -14.5t22 -42.5q0 -51 -76 -51h-94zM102 575h29v289h-29v-289zM416 629l-187 235h-18v-289h29v232l186 -232h18v289 h-28v-235zM688 836v-261h29v261h102v28h-233v-28h102zM1069 575h29v289h-29v-135h-174v135h-29v-289h29v127h174v-127zM1386 575v27h-178v105h166v26h-166v103h174v28h-204v-289h208zM1556 575h29v125h164v27h-164v109h170v28h-199v-289zM2042 864h-29v-178 q0 -43 -24.5 -65.5t-61.5 -22.5q-38 0 -62 24t-24 64v178h-29v-178q0 -56 33 -85.5t82 -29.5q50 0 82.5 29.5t32.5 85.5v178zM2148 864h-30v-289h190v27h-160v262zM2384 864h-29v-289h191v27h-162v262zM1438 438l24 15q-35 51 -108 51q-43 0 -77 -20t-34 -60 q0 -20 8.5 -34.5t27 -22.5t33 -12t40.5 -9q28 -5 44 -9.5t30 -17t14 -30.5q0 -56 -86 -56q-70 0 -94 50l-27 -15q16 -32 49.5 -47.5t71.5 -15.5q48 0 82 19.5t34 64.5q0 29 -18.5 47t-39 24.5t-56.5 12.5q-28 5 -43 9t-28 15t-13 27q0 28 24.5 39.5t57.5 11.5q64 0 84 -37z M1913 354q0 61 -39 105.5t-109 44.5q-67 0 -106 -43.5t-39 -106.5q0 -62 38 -106t107 -43q69 -1 108.5 43t39.5 106zM522 209l121 291h-33l-104 -258l-109 258h-30l122 -291h33zM901 209v29h-178v104h166v27h-166v102h174v29h-203v-291h207zM1202 209l-100 108q43 3 65.5 29 t22.5 62q0 39 -25.5 65.5t-70.5 26.5h-129v-291h28v106h74l96 -106h39zM1530 209h29v291h-29v-291zM2179 264l-186 236h-19v-291h29v233l186 -233h17v291h-29v-140zM1765 231q-55 0 -84.5 35.5t-31.5 87.5t29 87t87 34q57 1 88 -34.5t31 -86.5t-31 -87t-88 -36zM993 471h101 q32 0 49.5 -17.5t17.5 -45.5q0 -29 -17.5 -46.5t-51.5 -17.5h-99v127z" />
<glyph unicode="&#xb4;" horiz-adv-x="305" d="M172 1686q22 26 58 19t50 -33t-4 -54q-18 -20 -74.5 -70t-74.5 -71q-15 -17 -37.5 -19.5t-38.5 8.5t-22 29.5t12 44.5q13 19 65.5 72.5t65.5 73.5z" />
<glyph unicode="&#xb6;" d="M379 1008l31 -68h30l-131 289h-28l-129 -289h30l31 68h166zM594 940l121 289h-33l-104 -258l-109 258h-31l123 -289h33zM942 1008l29 -68h30l-129 289h-28l-131 -289h30l31 68h168zM1051 940h28v289h-28v-289zM1188 1229h-29v-289h191v27h-162v262zM1591 1008l31 -68h31 l-129 289h-29l-131 -289h31l30 68h166zM1825 1229h-123v-289h123q44 0 74 18.5t30 59.5q0 23 -14 42.5t-39 26.5q45 16 45 62q0 40 -27 60t-69 20zM2021 1229h-28v-289h188v27h-160v262zM2435 940v27h-178v104h168v27h-168v104h176v27h-205v-289h207zM1731 1102v100h94 q67 0 67 -53q0 -47 -65 -47h-96zM223 1032l72 166l74 -166h-146zM784 1032l74 166l72 -166h-146zM1436 1032l73 166l72 -166h-145zM1731 967v108h96q30 0 52 -14.5t22 -42.5q0 -51 -76 -51h-94zM102 575h29v289h-29v-289zM416 629l-187 235h-18v-289h29v232l186 -232h18v289 h-28v-235zM688 836v-261h29v261h102v28h-233v-28h102zM1069 575h29v289h-29v-135h-174v135h-29v-289h29v127h174v-127zM1386 575v27h-178v105h166v26h-166v103h174v28h-204v-289h208zM1556 575h29v125h164v27h-164v109h170v28h-199v-289zM2042 864h-29v-178 q0 -43 -24.5 -65.5t-61.5 -22.5q-38 0 -62 24t-24 64v178h-29v-178q0 -56 33 -85.5t82 -29.5q50 0 82.5 29.5t32.5 85.5v178zM2148 864h-30v-289h190v27h-160v262zM2384 864h-29v-289h191v27h-162v262zM1438 438l24 15q-35 51 -108 51q-43 0 -77 -20t-34 -60 q0 -20 8.5 -34.5t27 -22.5t33 -12t40.5 -9q28 -5 44 -9.5t30 -17t14 -30.5q0 -56 -86 -56q-70 0 -94 50l-27 -15q16 -32 49.5 -47.5t71.5 -15.5q48 0 82 19.5t34 64.5q0 29 -18.5 47t-39 24.5t-56.5 12.5q-28 5 -43 9t-28 15t-13 27q0 28 24.5 39.5t57.5 11.5q64 0 84 -37z M1913 354q0 61 -39 105.5t-109 44.5q-67 0 -106 -43.5t-39 -106.5q0 -62 38 -106t107 -43q69 -1 108.5 43t39.5 106zM522 209l121 291h-33l-104 -258l-109 258h-30l122 -291h33zM901 209v29h-178v104h166v27h-166v102h174v29h-203v-291h207zM1202 209l-100 108q43 3 65.5 29 t22.5 62q0 39 -25.5 65.5t-70.5 26.5h-129v-291h28v106h74l96 -106h39zM1530 209h29v291h-29v-291zM2179 264l-186 236h-19v-291h29v233l186 -233h17v291h-29v-140zM1765 231q-55 0 -84.5 35.5t-31.5 87.5t29 87t87 34q57 1 88 -34.5t31 -86.5t-31 -87t-88 -36zM993 471h101 q32 0 49.5 -17.5t17.5 -45.5q0 -29 -17.5 -46.5t-51.5 -17.5h-99v127z" />
<glyph unicode="&#xb7;" horiz-adv-x="307" d="M154 733q82 0 82 -112q0 -34 -29 -55t-64 -21q-48 4 -65 51.5t5.5 93t70.5 43.5z" />
<glyph unicode="&#xb8;" horiz-adv-x="362" d="M104 -68l33 138q5 22 28.5 29t43.5 -5.5t14 -38.5q0 -1 -9 -40.5t-15 -55.5q54 3 83.5 -28t34.5 -76q5 -34 -10.5 -71t-44.5 -58q-49 -37 -123.5 -22.5t-91.5 65.5q-11 34 18 52.5t52 -11.5q37 -47 80 -15q19 15 23 37t-14 38.5t-54 14.5q-34 -8 -44.5 2t-3.5 45z" />
<glyph unicode="&#xbb;" d="M379 1008l31 -68h30l-131 289h-28l-129 -289h30l31 68h166zM594 940l121 289h-33l-104 -258l-109 258h-31l123 -289h33zM942 1008l29 -68h30l-129 289h-28l-131 -289h30l31 68h168zM1051 940h28v289h-28v-289zM1188 1229h-29v-289h191v27h-162v262zM1591 1008l31 -68h31 l-129 289h-29l-131 -289h31l30 68h166zM1825 1229h-123v-289h123q44 0 74 18.5t30 59.5q0 23 -14 42.5t-39 26.5q45 16 45 62q0 40 -27 60t-69 20zM2021 1229h-28v-289h188v27h-160v262zM2435 940v27h-178v104h168v27h-168v104h176v27h-205v-289h207zM1731 1102v100h94 q67 0 67 -53q0 -47 -65 -47h-96zM223 1032l72 166l74 -166h-146zM784 1032l74 166l72 -166h-146zM1436 1032l73 166l72 -166h-145zM1731 967v108h96q30 0 52 -14.5t22 -42.5q0 -51 -76 -51h-94zM102 575h29v289h-29v-289zM416 629l-187 235h-18v-289h29v232l186 -232h18v289 h-28v-235zM688 836v-261h29v261h102v28h-233v-28h102zM1069 575h29v289h-29v-135h-174v135h-29v-289h29v127h174v-127zM1386 575v27h-178v105h166v26h-166v103h174v28h-204v-289h208zM1556 575h29v125h164v27h-164v109h170v28h-199v-289zM2042 864h-29v-178 q0 -43 -24.5 -65.5t-61.5 -22.5q-38 0 -62 24t-24 64v178h-29v-178q0 -56 33 -85.5t82 -29.5q50 0 82.5 29.5t32.5 85.5v178zM2148 864h-30v-289h190v27h-160v262zM2384 864h-29v-289h191v27h-162v262zM1438 438l24 15q-35 51 -108 51q-43 0 -77 -20t-34 -60 q0 -20 8.5 -34.5t27 -22.5t33 -12t40.5 -9q28 -5 44 -9.5t30 -17t14 -30.5q0 -56 -86 -56q-70 0 -94 50l-27 -15q16 -32 49.5 -47.5t71.5 -15.5q48 0 82 19.5t34 64.5q0 29 -18.5 47t-39 24.5t-56.5 12.5q-28 5 -43 9t-28 15t-13 27q0 28 24.5 39.5t57.5 11.5q64 0 84 -37z M1913 354q0 61 -39 105.5t-109 44.5q-67 0 -106 -43.5t-39 -106.5q0 -62 38 -106t107 -43q69 -1 108.5 43t39.5 106zM522 209l121 291h-33l-104 -258l-109 258h-30l122 -291h33zM901 209v29h-178v104h166v27h-166v102h174v29h-203v-291h207zM1202 209l-100 108q43 3 65.5 29 t22.5 62q0 39 -25.5 65.5t-70.5 26.5h-129v-291h28v106h74l96 -106h39zM1530 209h29v291h-29v-291zM2179 264l-186 236h-19v-291h29v233l186 -233h17v291h-29v-140zM1765 231q-55 0 -84.5 35.5t-31.5 87.5t29 87t87 34q57 1 88 -34.5t31 -86.5t-31 -87t-88 -36zM993 471h101 q32 0 49.5 -17.5t17.5 -45.5q0 -29 -17.5 -46.5t-51.5 -17.5h-99v127z" />
<glyph unicode="&#xbf;" d="M379 1008l31 -68h30l-131 289h-28l-129 -289h30l31 68h166zM594 940l121 289h-33l-104 -258l-109 258h-31l123 -289h33zM942 1008l29 -68h30l-129 289h-28l-131 -289h30l31 68h168zM1051 940h28v289h-28v-289zM1188 1229h-29v-289h191v27h-162v262zM1591 1008l31 -68h31 l-129 289h-29l-131 -289h31l30 68h166zM1825 1229h-123v-289h123q44 0 74 18.5t30 59.5q0 23 -14 42.5t-39 26.5q45 16 45 62q0 40 -27 60t-69 20zM2021 1229h-28v-289h188v27h-160v262zM2435 940v27h-178v104h168v27h-168v104h176v27h-205v-289h207zM1731 1102v100h94 q67 0 67 -53q0 -47 -65 -47h-96zM223 1032l72 166l74 -166h-146zM784 1032l74 166l72 -166h-146zM1436 1032l73 166l72 -166h-145zM1731 967v108h96q30 0 52 -14.5t22 -42.5q0 -51 -76 -51h-94zM102 575h29v289h-29v-289zM416 629l-187 235h-18v-289h29v232l186 -232h18v289 h-28v-235zM688 836v-261h29v261h102v28h-233v-28h102zM1069 575h29v289h-29v-135h-174v135h-29v-289h29v127h174v-127zM1386 575v27h-178v105h166v26h-166v103h174v28h-204v-289h208zM1556 575h29v125h164v27h-164v109h170v28h-199v-289zM2042 864h-29v-178 q0 -43 -24.5 -65.5t-61.5 -22.5q-38 0 -62 24t-24 64v178h-29v-178q0 -56 33 -85.5t82 -29.5q50 0 82.5 29.5t32.5 85.5v178zM2148 864h-30v-289h190v27h-160v262zM2384 864h-29v-289h191v27h-162v262zM1438 438l24 15q-35 51 -108 51q-43 0 -77 -20t-34 -60 q0 -20 8.5 -34.5t27 -22.5t33 -12t40.5 -9q28 -5 44 -9.5t30 -17t14 -30.5q0 -56 -86 -56q-70 0 -94 50l-27 -15q16 -32 49.5 -47.5t71.5 -15.5q48 0 82 19.5t34 64.5q0 29 -18.5 47t-39 24.5t-56.5 12.5q-28 5 -43 9t-28 15t-13 27q0 28 24.5 39.5t57.5 11.5q64 0 84 -37z M1913 354q0 61 -39 105.5t-109 44.5q-67 0 -106 -43.5t-39 -106.5q0 -62 38 -106t107 -43q69 -1 108.5 43t39.5 106zM522 209l121 291h-33l-104 -258l-109 258h-30l122 -291h33zM901 209v29h-178v104h166v27h-166v102h174v29h-203v-291h207zM1202 209l-100 108q43 3 65.5 29 t22.5 62q0 39 -25.5 65.5t-70.5 26.5h-129v-291h28v106h74l96 -106h39zM1530 209h29v291h-29v-291zM2179 264l-186 236h-19v-291h29v233l186 -233h17v291h-29v-140zM1765 231q-55 0 -84.5 35.5t-31.5 87.5t29 87t87 34q57 1 88 -34.5t31 -86.5t-31 -87t-88 -36zM993 471h101 q32 0 49.5 -17.5t17.5 -45.5q0 -29 -17.5 -46.5t-51.5 -17.5h-99v127z" />
<glyph unicode="&#xc0;" horiz-adv-x="1296" d="M584 1714q14 -20 56 -73t56 -72q21 -31 7 -56.5t-42 -26.5t-51 19q-18 21 -66.5 71.5t-66.5 70.5q-27 32 4 63q29 30 68 24q21 -4 35 -20zM698 1341q-13 48 -44 66.5t-66 -2.5t-58 -78q-44 -98 -127 -358.5t-124 -354.5h-86q-62 1 -81 -37q-16 -34 18 -63q31 -28 91 -31 q-41 -69 -86.5 -189t-68.5 -204q-32 -85 18 -117q35 -22 79 -2q30 14 40 43q30 102 103.5 261t92.5 208h480q11 -30 74.5 -173t93.5 -249q18 -61 73 -90q52 -28 81 -1q35 33 3 126q-25 65 -81.5 192.5t-80.5 192.5q9 0 29 1t29 1q86 8 112 59q22 41 -11 74q-29 29 -87 29 q-27 -1 -68.5 -4t-58.5 -4q-91 164 -289 704zM621 1118q85 -260 192 -479q-30 1 -192 -2.5t-164 -3.5q25 58 83 240t81 245z" />
<glyph unicode="&#xc1;" horiz-adv-x="1296" d="M662 1714q28 33 73 15q36 -14 42 -44q4 -20 -11 -38q-18 -21 -75 -71.5t-75 -70.5q-15 -17 -37.5 -19t-38.5 9t-22 29.5t12 44.5q14 19 66.5 72.5t65.5 72.5zM698 1341q-13 48 -44 66.5t-66 -2.5t-58 -78q-44 -98 -127 -358.5t-124 -354.5h-86q-62 1 -81 -37 q-16 -34 18 -63q31 -28 91 -31q-41 -69 -86.5 -189t-68.5 -204q-32 -85 18 -117q35 -22 79 -2q30 14 40 43q30 102 103.5 261t92.5 208h480q11 -30 74.5 -173t93.5 -249q18 -61 73 -90q52 -28 81 -1q35 33 3 126q-25 65 -81.5 192.5t-80.5 192.5q9 0 29 1t29 1q86 8 112 59 q22 41 -11 74q-29 29 -87 29q-27 -1 -68.5 -4t-58.5 -4q-91 164 -289 704zM621 1118q85 -260 192 -479q-30 1 -192 -2.5t-164 -3.5q25 58 83 240t81 245z" />
<glyph unicode="&#xc2;" horiz-adv-x="1296" d="M625 1724q81 -48 192 -129q34 -26 18 -69q-12 -34 -40 -40q-18 -4 -33 9q-39 32 -91.5 71.5t-68.5 53.5q-25 -18 -90.5 -55t-87.5 -54q-25 -20 -53 -13t-34.5 30.5t15.5 52.5q33 36 142.5 99.5t130.5 43.5zM698 1341q-13 48 -44 66.5t-66 -2.5t-58 -78 q-44 -98 -127 -358.5t-124 -354.5h-86q-62 1 -81 -37q-16 -34 18 -63q31 -28 91 -31q-41 -69 -86.5 -189t-68.5 -204q-32 -85 18 -117q35 -22 79 -2q30 14 40 43q30 102 103.5 261t92.5 208h480q11 -30 74.5 -173t93.5 -249q18 -61 73 -90q52 -28 81 -1q35 33 3 126 q-25 65 -81.5 192.5t-80.5 192.5q9 0 29 1t29 1q86 8 112 59q22 41 -11 74q-29 29 -87 29q-27 -1 -68.5 -4t-58.5 -4q-91 164 -289 704zM621 1118q85 -260 192 -479q-30 1 -192 -2.5t-164 -3.5q25 58 83 240t81 245z" />
<glyph unicode="&#xc3;" horiz-adv-x="1296" d="M526 1667q20 -4 73 -34t67 -34q14 -6 26.5 -4t19.5 3.5t13.5 7.5t9 10t6 10.5t4.5 7.5q11 11 31 12.5t35.5 -16.5t9.5 -45q-7 -27 -41.5 -57.5t-72.5 -30.5q-22 0 -47.5 7t-42 15t-40 20t-30.5 15q-57 25 -76 -16q-10 -21 -35 -23t-44.5 19t-12.5 55q9 45 53 66.5 t94 11.5zM698 1341q-13 48 -44 66.5t-66 -2.5t-58 -78q-44 -98 -127 -358.5t-124 -354.5h-86q-62 1 -81 -37q-16 -34 18 -63q31 -28 91 -31q-41 -69 -86.5 -189t-68.5 -204q-32 -85 18 -117q35 -22 79 -2q30 14 40 43q30 102 103.5 261t92.5 208h480q11 -30 74.5 -173 t93.5 -249q18 -61 73 -90q52 -28 81 -1q35 33 3 126q-25 65 -81.5 192.5t-80.5 192.5q9 0 29 1t29 1q86 8 112 59q22 41 -11 74q-29 29 -87 29q-27 -1 -68.5 -4t-58.5 -4q-91 164 -289 704zM621 1118q85 -260 192 -479q-30 1 -192 -2.5t-164 -3.5q25 58 83 240t81 245z" />
<glyph unicode="&#xc4;" horiz-adv-x="1296" d="M709 1630q87 9 108 -39q15 -31 -14.5 -61.5t-91.5 -30.5q-27 0 -42 19.5t-15 43t14.5 44.5t40.5 24zM502 1632q40 0 56.5 -34t1 -68.5t-55.5 -34.5q-38 0 -70.5 16.5t-32.5 53.5q-2 35 22 51t79 16zM698 1341q-13 48 -44 66.5t-66 -2.5t-58 -78q-44 -98 -127 -358.5 t-124 -354.5h-86q-62 1 -81 -37q-16 -34 18 -63q31 -28 91 -31q-41 -69 -86.5 -189t-68.5 -204q-32 -85 18 -117q35 -22 79 -2q30 14 40 43q30 102 103.5 261t92.5 208h480q11 -30 74.5 -173t93.5 -249q18 -61 73 -90q52 -28 81 -1q35 33 3 126q-25 65 -81.5 192.5 t-80.5 192.5q9 0 29 1t29 1q86 8 112 59q22 41 -11 74q-29 29 -87 29q-27 -1 -68.5 -4t-58.5 -4q-91 164 -289 704zM621 1118q85 -260 192 -479q-30 1 -192 -2.5t-164 -3.5q25 58 83 240t81 245z" />
<glyph unicode="&#xc5;" horiz-adv-x="1296" d="M635 1759q33 17 57 -4q36 -23 50 -61t4 -76t-34 -70t-65 -46.5t-86 -2.5q-57 15 -82 64.5t-2 99.5q21 47 65 71.5t93 24.5zM639 1677q-9 6 -23 -4q-18 0 -36 -10t-25 -27q-9 -17 1 -33.5t32 -19.5q29 -8 50 9.5t20.5 42t-19.5 42.5zM698 1341q-13 48 -44 66.5t-66 -2.5 t-58 -78q-44 -98 -127 -358.5t-124 -354.5h-86q-62 1 -81 -37q-16 -34 18 -63q31 -28 91 -31q-41 -69 -86.5 -189t-68.5 -204q-32 -85 18 -117q35 -22 79 -2q30 14 40 43q30 102 103.5 261t92.5 208h480q11 -30 74.5 -173t93.5 -249q18 -61 73 -90q52 -28 81 -1q35 33 3 126 q-25 65 -81.5 192.5t-80.5 192.5q9 0 29 1t29 1q86 8 112 59q22 41 -11 74q-29 29 -87 29q-27 -1 -68.5 -4t-58.5 -4q-91 164 -289 704zM621 1118q85 -260 192 -479q-30 1 -192 -2.5t-164 -3.5q25 58 83 240t81 245z" />
<glyph unicode="&#xc6;" horiz-adv-x="1869" d="M852 1427q90 8 347 5t437 -11q54 2 75 -32t-1.5 -70.5t-75.5 -40.5l-104 2q-104 2 -222 3.5t-235.5 2t-144.5 -1.5l12 -467q105 -7 219.5 -8.5t248.5 7t214 30.5q56 16 91.5 -7.5t25.5 -65t-68 -71.5q-93 -17 -177.5 -24t-142 -6.5t-182 3.5t-227.5 3q8 -402 21 -526 q89 -4 257.5 3.5t315.5 17t166 9.5q78 -6 93 -52q12 -38 -27 -70q-36 -29 -97 -29q-6 1 -153 -7t-332 -16t-266 -8q-100 0 -103 94q0 7 -26 424q-7 3 -173 0.5t-174 -2.5q-104 -176 -260 -477q-26 -26 -55 -29.5t-47.5 13.5t-27 44.5t8.5 61.5q120 255 199 391 q-62 13 -83 49.5t5 67.5t82 31h82q75 114 185.5 347.5t189.5 352.5q27 34 54 45.5t75 13.5zM780 1200q-38 -73 -136 -288.5t-124 -258.5q27 0 146 5t122 -1q0 224 -8 543z" />
<glyph unicode="&#xc7;" horiz-adv-x="1241" d="M1001 414q7 22 48 25t79.5 -13t38.5 -39q-53 -144 -103.5 -222.5t-133.5 -135.5q-95 -63 -244 -70q-5 -21 -14 -49q54 3 84 -28.5t35 -76.5q5 -34 -11 -70.5t-45 -58.5q-49 -37 -123.5 -22.5t-91.5 65.5q-11 34 18 52.5t52 -11.5q37 -46 80 -14q19 15 23 37t-14 38.5 t-54 14.5q-34 -8 -44 2t-3 45l18 78l-57 12q-65 17 -129 52t-127 90.5t-110 141t-64 187.5q-13 92 -18 145.5t-5.5 74.5t1 66.5t1.5 86.5q7 149 55 266.5t127.5 192t183.5 113t226 38.5q75 0 136 -8.5t105.5 -22.5t78.5 -38.5t56 -48.5t35.5 -60.5t20 -67.5t7.5 -77 t-0.5 -80.5t-6.5 -85.5q0 -69 -54 -89q-45 -17 -83 11q-43 31 -27 88q10 62 11 106.5t-12 88.5t-45 71t-91 43.5t-145 16.5q-105 0 -194 -53.5t-147 -157.5t-67 -242q-3 -37 -3 -83t4 -109t17 -125.5t32.5 -122.5t54 -110t79.5 -78q103 -61 206.5 -70.5t191.5 43.5 q62 43 89.5 88.5t71.5 159.5z" />
<glyph unicode="&#xc8;" horiz-adv-x="1253" d="M594 1735q14 -20 56.5 -73.5t56.5 -72.5q21 -31 7 -56t-42 -26t-51 19q-18 20 -67 70t-67 71q-27 32 4 64q29 29 68 24q21 -4 35 -20zM1020 1401q53 2 74.5 -35t0 -76t-74.5 -43q-34 0 -211 3t-299 4t-199 -1q12 -249 15 -442q134 -9 343 -5t337 19q43 3 74.5 -10.5 t41.5 -34.5t-6 -48t-59 -50q-89 -16 -204.5 -23.5t-196.5 -7t-190.5 3t-137.5 2.5q0 -40 6 -278t10 -268q95 -4 264 3.5t314.5 17t164.5 9.5q76 -6 91 -52q14 -38 -25 -71q-35 -30 -96 -30q-128 0 -242 -8q-2 0 -98.5 -8.5t-193 -11.5t-261.5 -3q-12 0 -38 18.5t-27 38.5 q-11 43 -16.5 88.5t-6 76.5t-0.5 96v24q1 36 -1 113t-4.5 145t-2.5 74q-14 530 -14 614l-35 -6q-40 -1 -62.5 19t-23 46t17 52t49.5 35q71 9 90 10q80 8 382 7.5t450 -7.5z" />
<glyph unicode="&#xc9;" horiz-adv-x="1253" d="M672 1735q22 26 58 19t50 -33t-4 -54q-18 -20 -75 -70.5t-74 -70.5q-15 -17 -37.5 -19.5t-38.5 8.5t-22 29.5t12 44.5q14 19 65.5 72.5t65.5 73.5zM1020 1401q53 2 74.5 -35t0 -76t-74.5 -43q-34 0 -211 3t-299 4t-199 -1q12 -249 15 -442q134 -9 343 -5t337 19 q43 3 74.5 -10.5t41.5 -34.5t-6 -48t-59 -50q-89 -16 -204.5 -23.5t-196.5 -7t-190.5 3t-137.5 2.5q0 -40 6 -278t10 -268q95 -4 264 3.5t314.5 17t164.5 9.5q76 -6 91 -52q14 -38 -25 -71q-35 -30 -96 -30q-128 0 -242 -8q-2 0 -98.5 -8.5t-193 -11.5t-261.5 -3 q-12 0 -38 18.5t-27 38.5q-11 43 -16.5 88.5t-6 76.5t-0.5 96v24q1 36 -1 113t-4.5 145t-2.5 74q-14 530 -14 614l-35 -6q-40 -1 -62.5 19t-23 46t17 52t49.5 35q71 9 90 10q80 8 382 7.5t450 -7.5z" />
<glyph unicode="&#xca;" horiz-adv-x="1253" d="M635 1745q81 -48 192 -129q34 -26 18 -69q-12 -34 -40 -40q-18 -4 -33 9q-39 32 -91.5 71.5t-68.5 52.5q-25 -18 -90.5 -54.5t-87.5 -53.5q-25 -20 -53 -13t-34.5 30.5t15.5 52.5q33 36 142.5 99.5t130.5 43.5zM1020 1401q53 2 74.5 -35t0 -76t-74.5 -43q-34 0 -211 3 t-299 4t-199 -1q12 -249 15 -442q134 -9 343 -5t337 19q43 3 74.5 -10.5t41.5 -34.5t-6 -48t-59 -50q-89 -16 -204.5 -23.5t-196.5 -7t-190.5 3t-137.5 2.5q0 -40 6 -278t10 -268q95 -4 264 3.5t314.5 17t164.5 9.5q76 -6 91 -52q14 -38 -25 -71q-35 -30 -96 -30 q-128 0 -242 -8q-2 0 -98.5 -8.5t-193 -11.5t-261.5 -3q-12 0 -38 18.5t-27 38.5q-11 43 -16.5 88.5t-6 76.5t-0.5 96v24q1 36 -1 113t-4.5 145t-2.5 74q-14 530 -14 614l-35 -6q-40 -1 -62.5 19t-23 46t17 52t49.5 35q71 9 90 10q80 8 382 7.5t450 -7.5z" />
<glyph unicode="&#xcb;" horiz-adv-x="1253" d="M719 1651q87 9 108 -39q15 -31 -14.5 -61.5t-91.5 -30.5q-27 0 -42 19.5t-15 43t14.5 44.5t40.5 24zM512 1653q24 0 40.5 -14t20.5 -34.5t0.5 -40.5t-19.5 -34t-40 -14q-38 0 -70 16t-32 53q-2 36 21.5 52t78.5 16zM1020 1401q53 2 74.5 -35t0 -76t-74.5 -43 q-34 0 -211 3t-299 4t-199 -1q12 -249 15 -442q134 -9 343 -5t337 19q43 3 74.5 -10.5t41.5 -34.5t-6 -48t-59 -50q-89 -16 -204.5 -23.5t-196.5 -7t-190.5 3t-137.5 2.5q0 -40 6 -278t10 -268q95 -4 264 3.5t314.5 17t164.5 9.5q76 -6 91 -52q14 -38 -25 -71 q-35 -30 -96 -30q-128 0 -242 -8q-2 0 -98.5 -8.5t-193 -11.5t-261.5 -3q-12 0 -38 18.5t-27 38.5q-11 43 -16.5 88.5t-6 76.5t-0.5 96v24q1 36 -1 113t-4.5 145t-2.5 74q-14 530 -14 614l-35 -6q-40 -1 -62.5 19t-23 46t17 52t49.5 35q71 9 90 10q80 8 382 7.5t450 -7.5z " />
<glyph unicode="&#xcc;" horiz-adv-x="1013" d="M422 1716q14 -19 57 -72t56 -73q21 -31 7 -56.5t-42 -26.5t-51 19q-17 20 -67 70.5t-67 71.5q-27 32 4 63q29 30 68 24q21 -4 35 -20zM117 1386q71 0 251.5 10.5t317.5 10.5q111 0 159.5 -29t49.5 -96q0 -24 -22.5 -37t-58.5 -8t-69 31q-21 0 -99 -3.5t-107 -4.5 q0 -466 10 -609q14 -203 14 -534q216 -10 301 0q28 6 37 -34q10 -47 -14 -86q-16 -27 -43 -28q-123 -6 -339.5 2.5t-363.5 -2.5q-30 -2 -51.5 32t-9 72.5t66.5 45.5q48 4 142 5t112 -1q0 148 -0.5 238.5t-2.5 204.5t-3 161t-6 233t-8 297q-22 0 -117 -7t-149 -7 q-33 0 -48.5 36t-1.5 72t52 35z" />
<glyph unicode="&#xcd;" horiz-adv-x="1013" d="M500 1716q28 33 73 15q36 -14 42 -44q4 -20 -11 -38q-18 -21 -75 -71.5t-74 -70.5q-15 -17 -37.5 -19t-38.5 9t-22 29.5t12 44.5q14 20 66 73t65 72zM117 1386q71 0 251.5 10.5t317.5 10.5q111 0 159.5 -29t49.5 -96q0 -24 -22.5 -37t-58.5 -8t-69 31q-21 0 -99 -3.5 t-107 -4.5q0 -466 10 -609q14 -203 14 -534q216 -10 301 0q28 6 37 -34q10 -47 -14 -86q-16 -27 -43 -28q-123 -6 -339.5 2.5t-363.5 -2.5q-30 -2 -51.5 32t-9 72.5t66.5 45.5q48 4 142 5t112 -1q0 148 -0.5 238.5t-2.5 204.5t-3 161t-6 233t-8 297q-22 0 -117 -7t-149 -7 q-33 0 -48.5 36t-1.5 72t52 35z" />
<glyph unicode="&#xce;" horiz-adv-x="1013" d="M463 1726q81 -48 192 -129q34 -26 18 -69q-12 -34 -40 -40q-18 -4 -33 9q-39 32 -91.5 71.5t-68.5 53.5q-25 -18 -90.5 -55t-87.5 -54q-25 -20 -53 -13t-34.5 30.5t15.5 52.5q33 36 142.5 99.5t130.5 43.5zM117 1386q71 0 251.5 10.5t317.5 10.5q111 0 159.5 -29 t49.5 -96q0 -24 -22.5 -37t-58.5 -8t-69 31q-21 0 -99 -3.5t-107 -4.5q0 -466 10 -609q14 -203 14 -534q216 -10 301 0q28 6 37 -34q10 -47 -14 -86q-16 -27 -43 -28q-123 -6 -339.5 2.5t-363.5 -2.5q-30 -2 -51.5 32t-9 72.5t66.5 45.5q48 4 142 5t112 -1q0 148 -0.5 238.5 t-2.5 204.5t-3 161t-6 233t-8 297q-22 0 -117 -7t-149 -7q-33 0 -48.5 36t-1.5 72t52 35z" />
<glyph unicode="&#xcf;" horiz-adv-x="1013" d="M547 1632q87 9 108 -39q15 -31 -14.5 -61.5t-91.5 -30.5q-27 0 -42 19.5t-15 43t14.5 44.5t40.5 24zM340 1634q40 0 56.5 -34t1 -68.5t-55.5 -34.5q-38 0 -70 16.5t-32 53.5q-2 35 21.5 51t78.5 16zM117 1386q71 0 251.5 10.5t317.5 10.5q111 0 159.5 -29t49.5 -96 q0 -24 -22.5 -37t-58.5 -8t-69 31q-21 0 -99 -3.5t-107 -4.5q0 -466 10 -609q14 -203 14 -534q216 -10 301 0q28 6 37 -34q10 -47 -14 -86q-16 -27 -43 -28q-123 -6 -339.5 2.5t-363.5 -2.5q-30 -2 -51.5 32t-9 72.5t66.5 45.5q48 4 142 5t112 -1q0 148 -0.5 238.5 t-2.5 204.5t-3 161t-6 233t-8 297q-22 0 -117 -7t-149 -7q-33 0 -48.5 36t-1.5 72t52 35z" />
<glyph unicode="&#xd0;" horiz-adv-x="1519" d="M1419 786q1 -105 -20.5 -198t-61.5 -166.5t-94.5 -136.5t-121 -109t-139.5 -83.5t-150.5 -61.5t-153 -40t-149.5 -22.5t-137.5 -6.5t-117.5 7q-47 0 -72.5 34.5t-27.5 76.5q13 259 16 471h-106q-33 2 -46.5 40.5t-2 76.5t40.5 39q31 2 114 2q0 284 -24 497 q-37 -15 -43 -16q-50 -24 -82.5 4t-27.5 75t46 70q241 80 623 80q145 -13 256 -39t203 -73.5t151 -117.5t92 -170.5t35 -232.5zM791 178q211 67 335.5 231t124.5 367q0 126 -38.5 216.5t-115.5 145.5t-179.5 83t-241.5 34q-44 4 -160 0.5t-192 -14.5q29 -245 32 -534 q132 -4 189 4q25 2 48.5 -12t34.5 -36t11.5 -45t-21 -41t-61.5 -22q-49 -6 -203 -6q0 -188 -14 -424q92 -11 211.5 2.5t239.5 50.5z" />
<glyph unicode="&#xd1;" horiz-adv-x="1298" d="M537 1688q20 -4 72.5 -34t66.5 -34q14 -6 26.5 -4t19.5 3t14 8t9.5 10t6 10t4.5 8q11 11 30.5 12.5t35 -16.5t9.5 -45q-7 -27 -41.5 -57.5t-72.5 -30.5q-22 0 -47.5 7t-42 15t-40 20t-30.5 15q-57 25 -76 -16q-10 -21 -35 -23t-44.5 19t-12.5 55q9 45 53.5 66.5 t94.5 11.5zM1174 1382q0 -95 20.5 -590t5.5 -716q-3 -49 -29.5 -72.5t-62 -6.5t-59.5 73q-115 164 -195 272.5t-240.5 310.5t-371.5 449q28 -361 31.5 -558.5t-19.5 -500.5q-9 -55 -55 -74t-84 8t-29 84q17 163 20 366.5t-2.5 370.5t-19.5 419q-9 96 -4 135q4 49 31.5 72.5 t62 8t53.5 -68.5q103 -142 377 -449q69 -78 205 -258.5t244 -334.5q-1 38 -21 443t-20 607q0 34 40.5 49t81 3.5t40.5 -42.5z" />
<glyph unicode="&#xd2;" horiz-adv-x="1341" d="M633 1735q13 -20 55.5 -73t56.5 -73q21 -31 7 -56t-42 -26t-51 19q-18 21 -67 71t-66 70q-27 32 4 64q29 29 68 24q21 -4 35 -20zM721 1423q167 -53 292 -181t175 -290q54 -174 57 -329q0 -141 -9.5 -198t-51.5 -144q-67 -137 -207 -220t-328 -90q-72 -3 -137.5 15.5 t-119 55.5t-93.5 75t-80 88q-67 87 -103.5 174t-43.5 227q-13 171 -11 220q6 134 85 264q15 26 34 53q112 149 373 235q23 50 68.5 58t99.5 -13zM686 1264q-80 -13 -195 -73t-174 -126q-33 -39 -53 -81t-26.5 -88t-8 -77t1 -81.5t2.5 -67.5q0 -74 10.5 -135t31.5 -108 t38.5 -75t44.5 -63q135 -164 289 -164q85 0 172.5 37t153.5 104t84 144q42 160 12 309q-20 112 -48.5 197t-72.5 158.5t-109.5 121t-152.5 68.5z" />
<glyph unicode="&#xd3;" horiz-adv-x="1341" d="M711 1735q22 26 58 19t50 -33t-4 -54q-17 -20 -74 -70.5t-75 -70.5q-15 -17 -37.5 -19.5t-38.5 8.5t-22 29.5t12 44.5q14 19 66 72.5t65 73.5zM721 1423q167 -53 292 -181t175 -290q54 -174 57 -329q0 -141 -9.5 -198t-51.5 -144q-67 -137 -207 -220t-328 -90 q-72 -3 -137.5 15.5t-119 55.5t-93.5 75t-80 88q-67 87 -103.5 174t-43.5 227q-13 171 -11 220q6 134 85 264q15 26 34 53q112 149 373 235q23 50 68.5 58t99.5 -13zM686 1264q-80 -13 -195 -73t-174 -126q-33 -39 -53 -81t-26.5 -88t-8 -77t1 -81.5t2.5 -67.5 q0 -74 10.5 -135t31.5 -108t38.5 -75t44.5 -63q135 -164 289 -164q85 0 172.5 37t153.5 104t84 144q42 160 12 309q-20 112 -48.5 197t-72.5 158.5t-109.5 121t-152.5 68.5z" />
<glyph unicode="&#xd4;" horiz-adv-x="1341" d="M674 1745q81 -48 192 -129q34 -26 18 -69q-12 -34 -40 -40q-18 -4 -33 9q-39 32 -91.5 71.5t-68.5 52.5q-25 -18 -90.5 -54.5t-87.5 -53.5q-25 -20 -53 -13t-34.5 30.5t15.5 52.5q33 36 142.5 99.5t130.5 43.5zM721 1423q167 -53 292 -181t175 -290q54 -174 57 -329 q0 -141 -9.5 -198t-51.5 -144q-67 -137 -207 -220t-328 -90q-72 -3 -137.5 15.5t-119 55.5t-93.5 75t-80 88q-67 87 -103.5 174t-43.5 227q-13 171 -11 220q6 134 85 264q15 26 34 53q112 149 373 235q23 50 68.5 58t99.5 -13zM686 1264q-80 -13 -195 -73t-174 -126 q-33 -39 -53 -81t-26.5 -88t-8 -77t1 -81.5t2.5 -67.5q0 -74 10.5 -135t31.5 -108t38.5 -75t44.5 -63q135 -164 289 -164q85 0 172.5 37t153.5 104t84 144q42 160 12 309q-20 112 -48.5 197t-72.5 158.5t-109.5 121t-152.5 68.5z" />
<glyph unicode="&#xd5;" horiz-adv-x="1341" d="M575 1688q20 -4 73 -34t67 -34q14 -6 26.5 -4t19.5 3t14 8t9.5 10t6 10t4.5 8q11 11 30.5 12.5t35 -16.5t9.5 -45q-7 -27 -41.5 -57.5t-72.5 -30.5q-22 0 -47.5 7t-42 15t-40 20t-30.5 15q-57 25 -76 -16q-10 -21 -35 -23t-44.5 19t-12.5 55q9 45 53 66.5t94 11.5z M721 1423q167 -53 292 -181t175 -290q54 -174 57 -329q0 -141 -9.5 -198t-51.5 -144q-67 -137 -207 -220t-328 -90q-72 -3 -137.5 15.5t-119 55.5t-93.5 75t-80 88q-67 87 -103.5 174t-43.5 227q-13 171 -11 220q6 134 85 264q15 26 34 53q112 149 373 235q23 50 68.5 58 t99.5 -13zM686 1264q-80 -13 -195 -73t-174 -126q-33 -39 -53 -81t-26.5 -88t-8 -77t1 -81.5t2.5 -67.5q0 -74 10.5 -135t31.5 -108t38.5 -75t44.5 -63q135 -164 289 -164q85 0 172.5 37t153.5 104t84 144q42 160 12 309q-20 112 -48.5 197t-72.5 158.5t-109.5 121 t-152.5 68.5z" />
<glyph unicode="&#xd6;" horiz-adv-x="1341" d="M758 1651q87 9 108 -39q15 -31 -14.5 -61.5t-91.5 -30.5q-27 0 -42 19.5t-15 43t14.5 44.5t40.5 24zM551 1653q24 0 40.5 -14t20.5 -34.5t0.5 -40.5t-19.5 -34t-40 -14q-38 0 -70 16t-32 53q-2 36 21.5 52t78.5 16zM721 1423q167 -53 292 -181t175 -290q54 -174 57 -329 q0 -141 -9.5 -198t-51.5 -144q-67 -137 -207 -220t-328 -90q-72 -3 -137.5 15.5t-119 55.5t-93.5 75t-80 88q-67 87 -103.5 174t-43.5 227q-13 171 -11 220q6 134 85 264q15 26 34 53q112 149 373 235q23 50 68.5 58t99.5 -13zM686 1264q-80 -13 -195 -73t-174 -126 q-33 -39 -53 -81t-26.5 -88t-8 -77t1 -81.5t2.5 -67.5q0 -74 10.5 -135t31.5 -108t38.5 -75t44.5 -63q135 -164 289 -164q85 0 172.5 37t153.5 104t84 144q42 160 12 309q-20 112 -48.5 197t-72.5 158.5t-109.5 121t-152.5 68.5z" />
<glyph unicode="&#xd7;" d="M379 1008l31 -68h30l-131 289h-28l-129 -289h30l31 68h166zM594 940l121 289h-33l-104 -258l-109 258h-31l123 -289h33zM942 1008l29 -68h30l-129 289h-28l-131 -289h30l31 68h168zM1051 940h28v289h-28v-289zM1188 1229h-29v-289h191v27h-162v262zM1591 1008l31 -68h31 l-129 289h-29l-131 -289h31l30 68h166zM1825 1229h-123v-289h123q44 0 74 18.5t30 59.5q0 23 -14 42.5t-39 26.5q45 16 45 62q0 40 -27 60t-69 20zM2021 1229h-28v-289h188v27h-160v262zM2435 940v27h-178v104h168v27h-168v104h176v27h-205v-289h207zM1731 1102v100h94 q67 0 67 -53q0 -47 -65 -47h-96zM223 1032l72 166l74 -166h-146zM784 1032l74 166l72 -166h-146zM1436 1032l73 166l72 -166h-145zM1731 967v108h96q30 0 52 -14.5t22 -42.5q0 -51 -76 -51h-94zM102 575h29v289h-29v-289zM416 629l-187 235h-18v-289h29v232l186 -232h18v289 h-28v-235zM688 836v-261h29v261h102v28h-233v-28h102zM1069 575h29v289h-29v-135h-174v135h-29v-289h29v127h174v-127zM1386 575v27h-178v105h166v26h-166v103h174v28h-204v-289h208zM1556 575h29v125h164v27h-164v109h170v28h-199v-289zM2042 864h-29v-178 q0 -43 -24.5 -65.5t-61.5 -22.5q-38 0 -62 24t-24 64v178h-29v-178q0 -56 33 -85.5t82 -29.5q50 0 82.5 29.5t32.5 85.5v178zM2148 864h-30v-289h190v27h-160v262zM2384 864h-29v-289h191v27h-162v262zM1438 438l24 15q-35 51 -108 51q-43 0 -77 -20t-34 -60 q0 -20 8.5 -34.5t27 -22.5t33 -12t40.5 -9q28 -5 44 -9.5t30 -17t14 -30.5q0 -56 -86 -56q-70 0 -94 50l-27 -15q16 -32 49.5 -47.5t71.5 -15.5q48 0 82 19.5t34 64.5q0 29 -18.5 47t-39 24.5t-56.5 12.5q-28 5 -43 9t-28 15t-13 27q0 28 24.5 39.5t57.5 11.5q64 0 84 -37z M1913 354q0 61 -39 105.5t-109 44.5q-67 0 -106 -43.5t-39 -106.5q0 -62 38 -106t107 -43q69 -1 108.5 43t39.5 106zM522 209l121 291h-33l-104 -258l-109 258h-30l122 -291h33zM901 209v29h-178v104h166v27h-166v102h174v29h-203v-291h207zM1202 209l-100 108q43 3 65.5 29 t22.5 62q0 39 -25.5 65.5t-70.5 26.5h-129v-291h28v106h74l96 -106h39zM1530 209h29v291h-29v-291zM2179 264l-186 236h-19v-291h29v233l186 -233h17v291h-29v-140zM1765 231q-55 0 -84.5 35.5t-31.5 87.5t29 87t87 34q57 1 88 -34.5t31 -86.5t-31 -87t-88 -36zM993 471h101 q32 0 49.5 -17.5t17.5 -45.5q0 -29 -17.5 -46.5t-51.5 -17.5h-99v127z" />
<glyph unicode="&#xd8;" horiz-adv-x="1341" d="M721 1444q125 -39 231 -125l54 80q11 15 30.5 15.5t38 -10.5t35 -27t21 -34.5t-4.5 -33.5q-22 -33 -65 -101q85 -104 127 -235q54 -174 57 -330q0 -141 -9.5 -198t-51.5 -144q-67 -137 -207 -219.5t-328 -89.5q-149 -5 -274 84q-13 -19 -37.5 -50.5t-28.5 -37.5 q-12 -13 -32 -12.5t-38.5 12.5t-34 28.5t-19 35t7.5 32.5q20 24 69 92q-25 25 -43 49q-43 57 -69.5 101.5t-49.5 124t-28 176.5q-13 170 -11 219q6 134 84 263q16 26 35 54q113 151 373 236q23 50 68.5 58t99.5 -13zM686 1284q-80 -13 -195 -73t-174 -126q-33 -39 -53 -81 t-26.5 -88t-8 -77t1 -81.5t2.5 -67.5q0 -136 33 -220.5t88 -154.5q96 150 280.5 469.5t235.5 403.5q-76 70 -184 96zM969 1059q-52 -87 -155 -264.5t-191 -325.5t-160 -260q87 -64 184 -64q85 0 172.5 37t153.5 104t84 144q42 160 12 309q-38 204 -100 320z" />
<glyph unicode="&#xd9;" horiz-adv-x="1236" d="M582 1735q13 -20 55.5 -73t56.5 -73q21 -31 7 -56t-42 -26t-51 19q-18 21 -66.5 71t-66.5 70q-27 32 4 64q29 29 68 24q21 -4 35 -20zM965 1364q-4 37 43 45q50 9 94 -18q32 -20 31 -48q-1 -73 5.5 -234.5t9.5 -284.5t-10 -266.5t-48 -233.5q-30 -69 -74.5 -133 t-102 -119t-131 -87.5t-149.5 -31.5q-106 2 -204 46.5t-175 125t-123 204.5t-47 271q0 463 -23 746q-3 35 18 57t49.5 25.5t57.5 -13.5t41 -51q19 -265 19 -719q2 -150 46.5 -271t133 -195.5t205.5 -74.5q60 0 113.5 26.5t93 73t68.5 98.5t50 112q34 97 39.5 294t-4.5 354.5 t-26 301.5z" />
<glyph unicode="&#xda;" horiz-adv-x="1236" d="M659 1735q22 26 58.5 19t50.5 -33t-4 -54q-18 -21 -75.5 -71t-74.5 -70q-15 -17 -37.5 -19.5t-38.5 8.5t-22 29.5t12 44.5q13 19 65.5 72.5t65.5 73.5zM965 1364q-4 37 43 45q50 9 94 -18q32 -20 31 -48q-1 -73 5.5 -234.5t9.5 -284.5t-10 -266.5t-48 -233.5 q-30 -69 -74.5 -133t-102 -119t-131 -87.5t-149.5 -31.5q-106 2 -204 46.5t-175 125t-123 204.5t-47 271q0 463 -23 746q-3 35 18 57t49.5 25.5t57.5 -13.5t41 -51q19 -265 19 -719q2 -150 46.5 -271t133 -195.5t205.5 -74.5q60 0 113.5 26.5t93 73t68.5 98.5t50 112 q34 97 39.5 294t-4.5 354.5t-26 301.5z" />
<glyph unicode="&#xdb;" horiz-adv-x="1236" d="M623 1745q81 -48 192 -129q34 -26 18 -69q-12 -34 -40 -40q-18 -4 -33 9q-39 32 -91.5 71.5t-68.5 52.5q-25 -18 -90.5 -54.5t-87.5 -53.5q-25 -20 -53 -13t-34.5 30.5t15.5 52.5q33 36 142.5 99.5t130.5 43.5zM965 1364q-4 37 43 45q50 9 94 -18q32 -20 31 -48 q-1 -73 5.5 -234.5t9.5 -284.5t-10 -266.5t-48 -233.5q-30 -69 -74.5 -133t-102 -119t-131 -87.5t-149.5 -31.5q-106 2 -204 46.5t-175 125t-123 204.5t-47 271q0 463 -23 746q-3 35 18 57t49.5 25.5t57.5 -13.5t41 -51q19 -265 19 -719q2 -150 46.5 -271t133 -195.5 t205.5 -74.5q60 0 113.5 26.5t93 73t68.5 98.5t50 112q34 97 39.5 294t-4.5 354.5t-26 301.5z" />
<glyph unicode="&#xdc;" horiz-adv-x="1236" d="M707 1651q87 9 108 -39q15 -31 -14.5 -61.5t-91.5 -30.5q-27 0 -42 19.5t-15 43t14.5 44.5t40.5 24zM500 1653q24 0 40.5 -14t20.5 -34.5t0.5 -40.5t-19.5 -34t-40 -14q-38 0 -70.5 16t-32.5 53q-2 36 22 52t79 16zM965 1364q-4 37 43 45q50 9 94 -18q32 -20 31 -48 q-1 -73 5.5 -234.5t9.5 -284.5t-10 -266.5t-48 -233.5q-30 -69 -74.5 -133t-102 -119t-131 -87.5t-149.5 -31.5q-106 2 -204 46.5t-175 125t-123 204.5t-47 271q0 463 -23 746q-3 35 18 57t49.5 25.5t57.5 -13.5t41 -51q19 -265 19 -719q2 -150 46.5 -271t133 -195.5 t205.5 -74.5q60 0 113.5 26.5t93 73t68.5 98.5t50 112q34 97 39.5 294t-4.5 354.5t-26 301.5z" />
<glyph unicode="&#xdd;" horiz-adv-x="1071" d="M596 1735q22 26 58 19t50 -33t-4 -54q-18 -20 -74.5 -70.5t-74.5 -70.5q-15 -17 -37.5 -19.5t-38.5 8.5t-22 29.5t12 44.5q13 19 65 72.5t66 73.5zM182 1380q87 -188 189 -379q81 -155 142.5 -241t152.5 -182q41 127 111.5 443t82.5 363q6 41 55 36q48 -5 79 -41 q21 -24 18 -50q-15 -49 -30 -109.5t-33 -137.5t-27 -115q-9 -37 -46 -199t-57.5 -241.5t-62 -205.5t-86.5 -217q-38 -84 -114.5 -121.5t-159 -26t-148.5 63.5q-41 31 -65 79t-30.5 101t-5.5 96t7 85q13 57 54.5 65t76.5 -23.5t30 -72.5q-7 -31 -5.5 -73.5t8.5 -81.5 t31.5 -68t62.5 -33q26 -2 48.5 8t40 33t31 47t25.5 60.5t19.5 62t17 64.5t14.5 55q-66 52 -143.5 142t-136.5 188q-184 317 -287 549q-14 31 16 66t67 39.5t58 -28.5z" />
<glyph unicode="&#xde;" horiz-adv-x="1312" d="M215 1362q2 54 42 73t79 -7t39 -80q-4 -46 -4 -107q195 37 281.5 46.5t174.5 2.5q107 -9 192 -50.5t138 -106.5q82 -107 77 -252t-91 -265q-76 -109 -254 -200q-224 -107 -451 -115q2 -81 27 -205q5 -42 -16.5 -69t-50.5 -30.5t-58 15.5t-37 58q-27 150 -27 233 q-8 1 -25.5 2t-25.5 2q-42 15 -61.5 54t-3 70.5t62.5 27.5l37 6q-31 326 -43 555l-61 -31q-47 -24 -94.5 -7t-50 54t54.5 80q70 50 145 80q0 135 4 166zM799 1124q-173 5 -418 -49q7 -103 22.5 -307.5t22.5 -306.5q226 14 416 117q45 25 99.5 69.5t82.5 93.5q41 71 47 136 t-21 116.5t-91.5 86t-159.5 44.5z" />
<glyph unicode="&#xdf;" horiz-adv-x="1079" d="M584 1286q123 -2 209.5 -60.5t95.5 -164.5q6 -77 -29 -161t-102 -157q185 -121 246 -259.5t10 -280.5q-27 -80 -79.5 -132.5t-118 -72t-133.5 -20t-136 17.5q-72 22 -131 88.5t-70 126.5q-5 37 28 56.5t70 16.5t41 -22q7 -39 36 -75.5t73 -49.5q40 -13 83 -13t82 12.5 t68 44.5t39 79q27 106 -33 211t-192 178q-51 30 -50.5 72.5t44.5 91.5q111 127 100 219q-7 50 -52 76.5t-108 24.5q-64 0 -129.5 -25.5t-107.5 -69.5q-31 -34 -49.5 -87.5t-23.5 -111t-4.5 -103t5.5 -87.5q16 -345 -4 -594q-4 -23 -21.5 -37.5t-39.5 -17.5t-44 1t-36.5 18 t-14.5 34q3 56 8 157.5t6 135.5t2 101t-1.5 124t-7.5 134q-11 138 13.5 249.5t109.5 196.5q67 66 161.5 101.5t186.5 33.5z" />
<glyph unicode="&#xe0;" horiz-adv-x="1189" d="M584 1673q14 -20 56 -73t56 -72q21 -31 7 -56.5t-42 -26.5t-51 19q-18 21 -66.5 71.5t-66.5 70.5q-27 32 4 63q29 30 68 24q21 -4 35 -20zM678 1280q-13 48 -44 66.5t-66 -2.5t-58 -78q-44 -99 -127.5 -359t-124.5 -354h-86q-62 1 -80 -37q-16 -34 18 -64q31 -27 91 -30 q-7 -15 -28 -62.5t-32.5 -74t-28 -66t-28 -71.5t-18.5 -58q-31 -84 17 -116q35 -24 78 -5q33 14 42 45q8 26 16 51t14.5 44.5t16.5 43.5t15 37.5t17 39t16 34.5t19 38t18.5 36t21.5 41.5t22 42.5q3 0 194.5 4.5t243.5 3.5q21 -57 76 -166t92 -203q24 -60 79 -89q53 -28 80 1 q30 32 -1 123q-100 184 -156 332q9 0 28.5 1t28.5 1q72 7 100.5 45t1 73.5t-92.5 35.5q-26 -1 -67.5 -4.5t-59.5 -4.5q-32 57 -72.5 174.5t-91.5 278.5t-84 252zM600 1057q25 -76 54 -180.5t51.5 -176.5t46.5 -122q-30 1 -171 -3t-145 -4q25 58 83 240t81 246z" />
<glyph unicode="&#xe1;" horiz-adv-x="1189" d="M662 1673q28 33 73 15q36 -14 42 -44q4 -20 -11 -38q-18 -20 -75 -70.5t-75 -71.5q-15 -17 -37.5 -19t-38.5 9t-22 29.5t12 44.5q14 19 66.5 72t65.5 73zM678 1280q-13 48 -44 66.5t-66 -2.5t-58 -78q-44 -99 -127.5 -359t-124.5 -354h-86q-62 1 -80 -37q-16 -34 18 -64 q31 -27 91 -30q-7 -15 -28 -62.5t-32.5 -74t-28 -66t-28 -71.5t-18.5 -58q-31 -84 17 -116q35 -24 78 -5q33 14 42 45q8 26 16 51t14.5 44.5t16.5 43.5t15 37.5t17 39t16 34.5t19 38t18.5 36t21.5 41.5t22 42.5q3 0 194.5 4.5t243.5 3.5q21 -57 76 -166t92 -203 q24 -60 79 -89q53 -28 80 1q30 32 -1 123q-100 184 -156 332q9 0 28.5 1t28.5 1q72 7 100.5 45t1 73.5t-92.5 35.5q-26 -1 -67.5 -4.5t-59.5 -4.5q-32 57 -72.5 174.5t-91.5 278.5t-84 252zM600 1057q25 -76 54 -180.5t51.5 -176.5t46.5 -122q-30 1 -171 -3t-145 -4 q25 58 83 240t81 246z" />
<glyph unicode="&#xe2;" horiz-adv-x="1189" d="M625 1683q81 -48 192 -129q34 -26 18 -69q-12 -34 -40 -40q-18 -4 -33 9q-39 32 -91.5 71.5t-68.5 53.5q-25 -18 -90.5 -55t-87.5 -54q-25 -20 -53 -13t-34.5 30.5t15.5 52.5q33 36 142.5 99.5t130.5 43.5zM678 1280q-13 48 -44 66.5t-66 -2.5t-58 -78 q-44 -99 -127.5 -359t-124.5 -354h-86q-62 1 -80 -37q-16 -34 18 -64q31 -27 91 -30q-7 -15 -28 -62.5t-32.5 -74t-28 -66t-28 -71.5t-18.5 -58q-31 -84 17 -116q35 -24 78 -5q33 14 42 45q8 26 16 51t14.5 44.5t16.5 43.5t15 37.5t17 39t16 34.5t19 38t18.5 36t21.5 41.5 t22 42.5q3 0 194.5 4.5t243.5 3.5q21 -57 76 -166t92 -203q24 -60 79 -89q53 -28 80 1q30 32 -1 123q-100 184 -156 332q9 0 28.5 1t28.5 1q72 7 100.5 45t1 73.5t-92.5 35.5q-26 -1 -67.5 -4.5t-59.5 -4.5q-32 57 -72.5 174.5t-91.5 278.5t-84 252zM600 1057 q25 -76 54 -180.5t51.5 -176.5t46.5 -122q-30 1 -171 -3t-145 -4q25 58 83 240t81 246z" />
<glyph unicode="&#xe3;" horiz-adv-x="1189" d="M526 1626q20 -4 73 -33.5t67 -33.5q15 -4 27 -4t19 2.5t13.5 8t9 9.5t6 10.5t4.5 7.5q11 11 31 12.5t35.5 -16.5t9.5 -45q-7 -27 -41.5 -57.5t-72.5 -30.5q-22 0 -47.5 7t-42 15t-40 20t-30.5 15q-57 25 -76 -16q-10 -21 -35 -23t-44.5 19t-12.5 55q9 45 53 66.5t94 11.5 zM678 1280q-13 48 -44 66.5t-66 -2.5t-58 -78q-44 -99 -127.5 -359t-124.5 -354h-86q-62 1 -80 -37q-16 -34 18 -64q31 -27 91 -30q-7 -15 -28 -62.5t-32.5 -74t-28 -66t-28 -71.5t-18.5 -58q-31 -84 17 -116q35 -24 78 -5q33 14 42 45q8 26 16 51t14.5 44.5t16.5 43.5 t15 37.5t17 39t16 34.5t19 38t18.5 36t21.5 41.5t22 42.5q3 0 194.5 4.5t243.5 3.5q21 -57 76 -166t92 -203q24 -60 79 -89q53 -28 80 1q30 32 -1 123q-100 184 -156 332q9 0 28.5 1t28.5 1q72 7 100.5 45t1 73.5t-92.5 35.5q-26 -1 -67.5 -4.5t-59.5 -4.5 q-32 57 -72.5 174.5t-91.5 278.5t-84 252zM600 1057q25 -76 54 -180.5t51.5 -176.5t46.5 -122q-30 1 -171 -3t-145 -4q25 58 83 240t81 246z" />
<glyph unicode="&#xe4;" horiz-adv-x="1189" d="M709 1589q87 9 108 -39q15 -31 -14.5 -61.5t-91.5 -30.5q-27 0 -42 19.5t-15 43t14.5 44.5t40.5 24zM502 1591q24 0 40.5 -14t20.5 -34.5t0.5 -40.5t-19.5 -34t-40 -14q-38 0 -70.5 16.5t-32.5 53.5q-2 35 22 51t79 16zM678 1280q-13 48 -44 66.5t-66 -2.5t-58 -78 q-44 -99 -127.5 -359t-124.5 -354h-86q-62 1 -80 -37q-16 -34 18 -64q31 -27 91 -30q-7 -15 -28 -62.5t-32.5 -74t-28 -66t-28 -71.5t-18.5 -58q-31 -84 17 -116q35 -24 78 -5q33 14 42 45q8 26 16 51t14.5 44.5t16.5 43.5t15 37.5t17 39t16 34.5t19 38t18.5 36t21.5 41.5 t22 42.5q3 0 194.5 4.5t243.5 3.5q21 -57 76 -166t92 -203q24 -60 79 -89q53 -28 80 1q30 32 -1 123q-100 184 -156 332q9 0 28.5 1t28.5 1q72 7 100.5 45t1 73.5t-92.5 35.5q-26 -1 -67.5 -4.5t-59.5 -4.5q-32 57 -72.5 174.5t-91.5 278.5t-84 252zM600 1057 q25 -76 54 -180.5t51.5 -176.5t46.5 -122q-30 1 -171 -3t-145 -4q25 58 83 240t81 246z" />
<glyph unicode="&#xe5;" horiz-adv-x="1189" d="M635 1718q33 17 57 -4q36 -23 50 -61t4 -76t-34 -70t-65 -46.5t-86 -2.5q-57 15 -82 64.5t-2 99.5q21 47 65 71.5t93 24.5zM639 1636q-9 6 -23 -4q-18 0 -36 -10t-25 -27q-9 -17 1 -33.5t32 -19.5q29 -8 50 9.5t20.5 42t-19.5 42.5zM678 1280q-13 48 -44 66.5t-66 -2.5 t-58 -78q-44 -99 -127.5 -359t-124.5 -354h-86q-62 1 -80 -37q-16 -34 18 -64q31 -27 91 -30q-7 -15 -28 -62.5t-32.5 -74t-28 -66t-28 -71.5t-18.5 -58q-31 -84 17 -116q35 -24 78 -5q33 14 42 45q8 26 16 51t14.5 44.5t16.5 43.5t15 37.5t17 39t16 34.5t19 38t18.5 36 t21.5 41.5t22 42.5q3 0 194.5 4.5t243.5 3.5q21 -57 76 -166t92 -203q24 -60 79 -89q53 -28 80 1q30 32 -1 123q-100 184 -156 332q9 0 28.5 1t28.5 1q72 7 100.5 45t1 73.5t-92.5 35.5q-26 -1 -67.5 -4.5t-59.5 -4.5q-32 57 -72.5 174.5t-91.5 278.5t-84 252zM600 1057 q25 -76 54 -180.5t51.5 -176.5t46.5 -122q-30 1 -171 -3t-145 -4q25 58 83 240t81 246z" />
<glyph unicode="&#xe6;" horiz-adv-x="1677" d="M813 1335q80 8 304 5t390 -11q26 0 36 -36t-1 -72.5t-35 -38.5q-56 -2 -269 8.5t-347 -6.5q2 -67 5 -202t5 -202q112 -9 300 -5t290 20q56 4 89 -18t23.5 -57t-65.5 -65q-110 -20 -219.5 -25.5t-255.5 -1t-160 4.5q0 -285 17 -483q107 -5 364 10t281 14q68 -6 80 -47 q10 -37 -31 -68q-30 -22 -76 -28q-59 -8 -166 -15q-241 -14 -512 -14q-46 0 -61 14.5t-21 69.5q-26 279 -26 397q-44 2 -98 1.5t-131.5 -2t-88.5 -1.5q-126 -213 -241 -442q-20 -38 -67 -41q-46 -3 -64 31q-19 37 14 96q112 239 186 360q-50 11 -72.5 46t-3.5 65.5t72 30.5 h88q25 41 166 318.5t178 332.5q26 32 52.5 43.5t70.5 13.5zM737 1073q-48 -87 -116.5 -241t-98.5 -205q12 0 106.5 2.5t114.5 1.5q0 41 -3 221.5t-3 220.5z" />
<glyph unicode="&#xe7;" horiz-adv-x="1144" d="M614 1171q-58 9 -133.5 -31t-130.5 -102q-131 -163 -131 -434q0 -139 41 -228t121 -155q86 -70 209 -67q90 1 164.5 63.5t126.5 159.5q18 21 47.5 25t54 -8t37.5 -36t-2 -61q-68 -133 -175.5 -214t-234.5 -87q-7 -45 -20 -82q54 3 84 -28t35 -76q5 -34 -11 -70.5 t-45 -58.5q-49 -37 -123.5 -22.5t-91.5 65.5q-11 34 18 52t52 -12q37 -46 80 -14q19 15 23 37t-14 38.5t-54 14.5q-34 -8 -44 2t-3 45l26 113q-110 16 -188 63q-265 161 -279 492q-26 308 152 561q77 109 214 173.5t240 39.5q93 -24 143.5 -56t98.5 -85q111 -123 154 -232 q9 -20 0 -39.5t-30.5 -31.5t-46 -18.5t-47 -1t-32.5 21.5q-53 117 -125.5 193.5t-159.5 90.5z" />
<glyph unicode="&#xe8;" horiz-adv-x="1212" d="M596 1679q14 -19 56.5 -72t56.5 -73q21 -31 7 -56.5t-42 -26.5t-51 19q-17 20 -66.5 71t-67.5 71q-27 32 4 63q29 30 68 24q21 -4 35 -20zM1020 1321q53 2 74.5 -35t0 -76t-74.5 -43q-34 0 -210.5 3t-299.5 4.5t-199 -0.5q12 -248 15 -443q134 -9 343 -5t337 19 q43 3 74.5 -10.5t41.5 -34.5t-6 -48t-59 -50q-89 -16 -204 -23t-197 -6.5t-190 3t-138 2.5q0 -36 6 -236.5t10 -230.5q95 -4 264 3.5t314.5 17t164.5 9.5q76 -6 91 -52q14 -38 -25 -71q-35 -30 -96 -30q-128 0 -242 -8q-2 0 -98.5 -8.5t-193 -11.5t-261.5 -3q-12 0 -38 18.5 t-27 38.5q-11 43 -16.5 88.5t-6 76.5t-0.5 96v24q1 36 -1 93.5t-4.5 104.5t-2.5 54q-14 530 -14 614l-35 -6q-40 -1 -62.5 19t-23 46t17 52t49.5 35q71 9 90 10q80 8 382 7.5t450 -7.5z" />
<glyph unicode="&#xe9;" horiz-adv-x="1212" d="M674 1679q28 33 73 15q36 -14 42 -44q4 -20 -11 -38q-18 -20 -75 -70.5t-74 -71.5q-15 -17 -37.5 -19t-38.5 9t-22 29.5t12 44.5q13 20 65 73t66 72zM1020 1321q53 2 74.5 -35t0 -76t-74.5 -43q-34 0 -210.5 3t-299.5 4.5t-199 -0.5q12 -248 15 -443q134 -9 343 -5 t337 19q43 3 74.5 -10.5t41.5 -34.5t-6 -48t-59 -50q-89 -16 -204 -23t-197 -6.5t-190 3t-138 2.5q0 -36 6 -236.5t10 -230.5q95 -4 264 3.5t314.5 17t164.5 9.5q76 -6 91 -52q14 -38 -25 -71q-35 -30 -96 -30q-128 0 -242 -8q-2 0 -98.5 -8.5t-193 -11.5t-261.5 -3 q-12 0 -38 18.5t-27 38.5q-11 43 -16.5 88.5t-6 76.5t-0.5 96v24q1 36 -1 93.5t-4.5 104.5t-2.5 54q-14 530 -14 614l-35 -6q-40 -1 -62.5 19t-23 46t17 52t49.5 35q71 9 90 10q80 8 382 7.5t450 -7.5z" />
<glyph unicode="&#xea;" horiz-adv-x="1212" d="M637 1690q81 -48 192 -129q35 -26 18 -70q-13 -34 -41 -40q-17 -3 -32 9q-39 32 -91.5 71.5t-68.5 53.5q-25 -18 -90.5 -54.5t-87.5 -53.5q-25 -20 -52.5 -13t-34 30t15.5 52q33 37 142 100.5t130 43.5zM1020 1321q53 2 74.5 -35t0 -76t-74.5 -43q-34 0 -210.5 3 t-299.5 4.5t-199 -0.5q12 -248 15 -443q134 -9 343 -5t337 19q43 3 74.5 -10.5t41.5 -34.5t-6 -48t-59 -50q-89 -16 -204 -23t-197 -6.5t-190 3t-138 2.5q0 -36 6 -236.5t10 -230.5q95 -4 264 3.5t314.5 17t164.5 9.5q76 -6 91 -52q14 -38 -25 -71q-35 -30 -96 -30 q-128 0 -242 -8q-2 0 -98.5 -8.5t-193 -11.5t-261.5 -3q-12 0 -38 18.5t-27 38.5q-11 43 -16.5 88.5t-6 76.5t-0.5 96v24q1 36 -1 93.5t-4.5 104.5t-2.5 54q-14 530 -14 614l-35 -6q-40 -1 -62.5 19t-23 46t17 52t49.5 35q71 9 90 10q80 8 382 7.5t450 -7.5z" />
<glyph unicode="&#xeb;" horiz-adv-x="1212" d="M721 1595q87 9 108 -39q15 -31 -14.5 -61.5t-91.5 -30.5q-27 0 -42 19.5t-15 43t14.5 44.5t40.5 24zM514 1597q24 0 40.5 -14t20.5 -34.5t0.5 -40.5t-19.5 -34t-40 -14q-38 0 -70 16.5t-32 53.5q-2 35 21.5 51t78.5 16zM1020 1321q53 2 74.5 -35t0 -76t-74.5 -43 q-34 0 -210.5 3t-299.5 4.5t-199 -0.5q12 -248 15 -443q134 -9 343 -5t337 19q43 3 74.5 -10.5t41.5 -34.5t-6 -48t-59 -50q-89 -16 -204 -23t-197 -6.5t-190 3t-138 2.5q0 -36 6 -236.5t10 -230.5q95 -4 264 3.5t314.5 17t164.5 9.5q76 -6 91 -52q14 -38 -25 -71 q-35 -30 -96 -30q-128 0 -242 -8q-2 0 -98.5 -8.5t-193 -11.5t-261.5 -3q-12 0 -38 18.5t-27 38.5q-11 43 -16.5 88.5t-6 76.5t-0.5 96v24q1 36 -1 93.5t-4.5 104.5t-2.5 54q-14 530 -14 614l-35 -6q-40 -1 -62.5 19t-23 46t17 52t49.5 35q71 9 90 10q80 8 382 7.5t450 -7.5 z" />
<glyph unicode="&#xec;" horiz-adv-x="851" d="M360 1673q14 -20 56.5 -72.5t56.5 -72.5q21 -31 7 -56.5t-42 -26.5t-51 19q-17 21 -66.5 71.5t-66.5 70.5q-27 32 4 64q29 29 68 23q20 -4 34 -20zM621 1343q59 0 97.5 -29t39.5 -85q0 -40 -24 -61.5t-56.5 -15.5t-54.5 38q-10 14 -27 19.5t-32.5 4.5t-44.5 -3.5 t-48 -2.5q0 -438 10 -579q13 -203 13 -475q159 -13 254 0q34 2 45 -33t-6.5 -72.5t-53.5 -42.5q-14 -8 -233.5 -1.5t-362.5 1.5q-28 -3 -37 34.5t4 76t39 39.5q27 2 62 2t74.5 -1t54.5 -1q8 153 -10 471q-3 62 -17 571q-32 0 -201 -12q-40 0 -48 35t10.5 70.5t44.5 37.5 q84 4 141.5 7.5t79.5 4.5t83.5 1.5t203.5 0.5z" />
<glyph unicode="&#xed;" horiz-adv-x="851" d="M438 1673q28 32 73 15q35 -13 43 -43q5 -21 -11 -39q-18 -20 -75 -70.5t-75 -71.5q-15 -17 -37.5 -19t-38.5 9t-22 29.5t12 44.5q14 19 65.5 72t65.5 73zM621 1343q59 0 97.5 -29t39.5 -85q0 -40 -24 -61.5t-56.5 -15.5t-54.5 38q-10 14 -27 19.5t-32.5 4.5t-44.5 -3.5 t-48 -2.5q0 -438 10 -579q13 -203 13 -475q159 -13 254 0q34 2 45 -33t-6.5 -72.5t-53.5 -42.5q-14 -8 -233.5 -1.5t-362.5 1.5q-28 -3 -37 34.5t4 76t39 39.5q27 2 62 2t74.5 -1t54.5 -1q8 153 -10 471q-3 62 -17 571q-32 0 -201 -12q-40 0 -48 35t10.5 70.5t44.5 37.5 q84 4 141.5 7.5t79.5 4.5t83.5 1.5t203.5 0.5z" />
<glyph unicode="&#xee;" horiz-adv-x="851" d="M401 1683q86 -50 193 -129q34 -26 18 -69q-12 -34 -40 -40q-18 -4 -33 9q-39 32 -91.5 71.5t-68.5 53.5q-25 -18 -90.5 -55t-87.5 -54q-25 -20 -53 -13t-34.5 30.5t15.5 52.5q33 37 142 100t130 43zM621 1343q59 0 97.5 -29t39.5 -85q0 -40 -24 -61.5t-56.5 -15.5 t-54.5 38q-10 14 -27 19.5t-32.5 4.5t-44.5 -3.5t-48 -2.5q0 -438 10 -579q13 -203 13 -475q159 -13 254 0q34 2 45 -33t-6.5 -72.5t-53.5 -42.5q-14 -8 -233.5 -1.5t-362.5 1.5q-28 -3 -37 34.5t4 76t39 39.5q27 2 62 2t74.5 -1t54.5 -1q8 153 -10 471q-3 62 -17 571 q-32 0 -201 -12q-40 0 -48 35t10.5 70.5t44.5 37.5q84 4 141.5 7.5t79.5 4.5t83.5 1.5t203.5 0.5z" />
<glyph unicode="&#xef;" horiz-adv-x="851" d="M485 1589q88 9 109 -39q15 -31 -15 -61.5t-92 -30.5q-27 0 -42 19.5t-15 43t14.5 44.5t40.5 24zM279 1591q24 0 40.5 -14t20.5 -34.5t0.5 -40.5t-19.5 -34t-40 -14q-38 0 -70.5 16.5t-32.5 53.5q-2 35 22 51t79 16zM621 1343q59 0 97.5 -29t39.5 -85q0 -40 -24 -61.5 t-56.5 -15.5t-54.5 38q-10 14 -27 19.5t-32.5 4.5t-44.5 -3.5t-48 -2.5q0 -438 10 -579q13 -203 13 -475q159 -13 254 0q34 2 45 -33t-6.5 -72.5t-53.5 -42.5q-14 -8 -233.5 -1.5t-362.5 1.5q-28 -3 -37 34.5t4 76t39 39.5q27 2 62 2t74.5 -1t54.5 -1q8 153 -10 471 q-3 62 -17 571q-32 0 -201 -12q-40 0 -48 35t10.5 70.5t44.5 37.5q84 4 141.5 7.5t79.5 4.5t83.5 1.5t203.5 0.5z" />
<glyph unicode="&#xf0;" horiz-adv-x="1300" d="M74 1247q213 70 432.5 65.5t415.5 -81.5q104 -48 178 -139t106 -186t33 -187q3 -203 -88.5 -342.5t-271.5 -237.5q-152 -77 -317.5 -108t-303.5 -13q-41 1 -65.5 34t-26.5 69q18 324 18 506l-63 2q-48 6 -70 52q-20 43 2 70q13 17 39 17q7 0 40.5 -1t51.5 -1 q-6 178 -24 348q-42 -7 -42 -10q0 -1 7 0q-51 -8 -76.5 23t-16.5 70t42 50zM313 1151q21 -176 27 -387q129 0 172 4q43 2 60.5 -30.5t1.5 -68t-54 -40.5q-45 -2 -178 -2q0 -185 -14 -461q104 0 163.5 9.5t186.5 45.5q187 63 294 187t107 292q0 163 -91.5 280.5t-260.5 156.5 q-189 42 -414 14z" />
<glyph unicode="&#xf1;" horiz-adv-x="1169" d="M500 1544q20 -4 72.5 -33.5t66.5 -33.5q15 -4 27 -3.5t19 2.5t14 7.5t9.5 9.5t6 10.5t4.5 7.5q11 11 31 12.5t35.5 -16.5t9.5 -45q-7 -27 -42 -57.5t-73 -30.5q-22 0 -47.5 7.5t-42.5 15.5t-40 20t-30 15q-57 25 -76 -17q-10 -21 -35 -23t-44.5 19t-12.5 55 q9 45 53.5 66.5t94.5 11.5zM219 1317q68 -82 203 -299t149 -236q32 -56 88.5 -135.5t100.5 -136.5t107.5 -138t76.5 -98q-2 47 -14.5 148.5t-14.5 132.5l-30 707q-4 57 42 70q41 12 79 -18q32 -25 34 -67q8 -172 15.5 -348t10.5 -243.5t5 -90.5q4 -56 6 -246t6 -245 q-1 -57 -46.5 -76t-82.5 16q-5 6 -97 125.5t-132 173t-115 156.5t-131 186q-8 11 -91.5 149.5t-154.5 242.5q0 -102 5.5 -242t10.5 -245t4.5 -245t-11.5 -266q-16 -46 -56 -52t-71.5 20.5t-28.5 60.5q18 212 14 430t-12.5 363.5t6.5 408.5q1 32 22.5 48t50 12.5t52.5 -23.5z " />
<glyph unicode="&#xf2;" horiz-adv-x="1150" d="M569 1661q14 -19 57 -72t56 -73q21 -31 7 -56.5t-42 -26.5t-51 19q-18 21 -67 71t-66 70q-22 26 -4 54.5t51 32.5t59 -19zM635 1335q246 -93 356.5 -272t110.5 -475q0 -115 -72.5 -262.5t-193.5 -251.5q-65 -57 -154 -77t-176 -4t-158 60q-127 77 -206.5 211.5 t-88.5 288.5q-11 146 17 280t127 275q30 42 64.5 74.5t78.5 57t67.5 35t71.5 30.5q8 26 37 35.5t59.5 6.5t59.5 -12zM598 1194q-67 -12 -142 -56t-128 -104q-121 -153 -121 -434q0 -126 51.5 -233t132.5 -174q73 -64 186 -63t183 69q112 114 157 243.5t25 249.5 q-22 200 -117.5 331t-226.5 171z" />
<glyph unicode="&#xf3;" horiz-adv-x="1150" d="M647 1661q22 26 58.5 19t50.5 -33t-4 -54q-17 -20 -74.5 -70t-75.5 -71q-15 -17 -37.5 -19t-38.5 9t-22 29.5t12 44.5q13 20 65.5 73t65.5 72zM635 1335q246 -93 356.5 -272t110.5 -475q0 -115 -72.5 -262.5t-193.5 -251.5q-65 -57 -154 -77t-176 -4t-158 60 q-127 77 -206.5 211.5t-88.5 288.5q-11 146 17 280t127 275q30 42 64.5 74.5t78.5 57t67.5 35t71.5 30.5q8 26 37 35.5t59.5 6.5t59.5 -12zM598 1194q-67 -12 -142 -56t-128 -104q-121 -153 -121 -434q0 -126 51.5 -233t132.5 -174q73 -64 186 -63t183 69q112 114 157 243.5 t25 249.5q-22 200 -117.5 331t-226.5 171z" />
<glyph unicode="&#xf4;" horiz-adv-x="1150" d="M610 1671q86 -50 193 -129q34 -26 18 -69q-12 -34 -40 -40q-18 -4 -33 9q-39 32 -91.5 71.5t-68.5 53.5q-25 -18 -90.5 -55t-87.5 -54q-25 -20 -53 -13t-34.5 30.5t15.5 52.5q33 37 142 100t130 43zM635 1335q246 -93 356.5 -272t110.5 -475q0 -115 -72.5 -262.5 t-193.5 -251.5q-65 -57 -154 -77t-176 -4t-158 60q-127 77 -206.5 211.5t-88.5 288.5q-11 146 17 280t127 275q30 42 64.5 74.5t78.5 57t67.5 35t71.5 30.5q8 26 37 35.5t59.5 6.5t59.5 -12zM598 1194q-67 -12 -142 -56t-128 -104q-121 -153 -121 -434q0 -126 51.5 -233 t132.5 -174q73 -64 186 -63t183 69q112 114 157 243.5t25 249.5q-22 200 -117.5 331t-226.5 171z" />
<glyph unicode="&#xf5;" horiz-adv-x="1150" d="M512 1614q20 -4 72.5 -34t66.5 -34q14 -6 26.5 -4t19.5 3t14 8t9.5 10t6 10t4.5 8q11 11 31 12.5t35.5 -16.5t9.5 -45q-7 -27 -42 -57.5t-73 -30.5q-22 0 -47.5 7t-42 15t-40 20t-30.5 15q-56 25 -75 -16q-10 -21 -35 -23t-44.5 19t-12.5 55q9 45 53 66.5t94 11.5z M635 1335q246 -93 356.5 -272t110.5 -475q0 -115 -72.5 -262.5t-193.5 -251.5q-65 -57 -154 -77t-176 -4t-158 60q-127 77 -206.5 211.5t-88.5 288.5q-11 146 17 280t127 275q30 42 64.5 74.5t78.5 57t67.5 35t71.5 30.5q8 26 37 35.5t59.5 6.5t59.5 -12zM598 1194 q-67 -12 -142 -56t-128 -104q-121 -153 -121 -434q0 -126 51.5 -233t132.5 -174q73 -64 186 -63t183 69q112 114 157 243.5t25 249.5q-22 200 -117.5 331t-226.5 171z" />
<glyph unicode="&#xf6;" horiz-adv-x="1150" d="M694 1577q88 9 109 -39q15 -31 -15 -61.5t-92 -30.5q-27 0 -42 19.5t-15 43t14.5 44.5t40.5 24zM487 1579q24 0 40.5 -14t20.5 -34.5t0.5 -40.5t-19.5 -34t-40 -14q-38 0 -70 16t-32 53q-2 36 21.5 52t78.5 16zM635 1335q246 -93 356.5 -272t110.5 -475 q0 -115 -72.5 -262.5t-193.5 -251.5q-65 -57 -154 -77t-176 -4t-158 60q-127 77 -206.5 211.5t-88.5 288.5q-11 146 17 280t127 275q30 42 64.5 74.5t78.5 57t67.5 35t71.5 30.5q8 26 37 35.5t59.5 6.5t59.5 -12zM598 1194q-67 -12 -142 -56t-128 -104q-121 -153 -121 -434 q0 -126 51.5 -233t132.5 -174q73 -64 186 -63t183 69q112 114 157 243.5t25 249.5q-22 200 -117.5 331t-226.5 171z" />
<glyph unicode="&#xf7;" d="M379 1008l31 -68h30l-131 289h-28l-129 -289h30l31 68h166zM594 940l121 289h-33l-104 -258l-109 258h-31l123 -289h33zM942 1008l29 -68h30l-129 289h-28l-131 -289h30l31 68h168zM1051 940h28v289h-28v-289zM1188 1229h-29v-289h191v27h-162v262zM1591 1008l31 -68h31 l-129 289h-29l-131 -289h31l30 68h166zM1825 1229h-123v-289h123q44 0 74 18.5t30 59.5q0 23 -14 42.5t-39 26.5q45 16 45 62q0 40 -27 60t-69 20zM2021 1229h-28v-289h188v27h-160v262zM2435 940v27h-178v104h168v27h-168v104h176v27h-205v-289h207zM1731 1102v100h94 q67 0 67 -53q0 -47 -65 -47h-96zM223 1032l72 166l74 -166h-146zM784 1032l74 166l72 -166h-146zM1436 1032l73 166l72 -166h-145zM1731 967v108h96q30 0 52 -14.5t22 -42.5q0 -51 -76 -51h-94zM102 575h29v289h-29v-289zM416 629l-187 235h-18v-289h29v232l186 -232h18v289 h-28v-235zM688 836v-261h29v261h102v28h-233v-28h102zM1069 575h29v289h-29v-135h-174v135h-29v-289h29v127h174v-127zM1386 575v27h-178v105h166v26h-166v103h174v28h-204v-289h208zM1556 575h29v125h164v27h-164v109h170v28h-199v-289zM2042 864h-29v-178 q0 -43 -24.5 -65.5t-61.5 -22.5q-38 0 -62 24t-24 64v178h-29v-178q0 -56 33 -85.5t82 -29.5q50 0 82.5 29.5t32.5 85.5v178zM2148 864h-30v-289h190v27h-160v262zM2384 864h-29v-289h191v27h-162v262zM1438 438l24 15q-35 51 -108 51q-43 0 -77 -20t-34 -60 q0 -20 8.5 -34.5t27 -22.5t33 -12t40.5 -9q28 -5 44 -9.5t30 -17t14 -30.5q0 -56 -86 -56q-70 0 -94 50l-27 -15q16 -32 49.5 -47.5t71.5 -15.5q48 0 82 19.5t34 64.5q0 29 -18.5 47t-39 24.5t-56.5 12.5q-28 5 -43 9t-28 15t-13 27q0 28 24.5 39.5t57.5 11.5q64 0 84 -37z M1913 354q0 61 -39 105.5t-109 44.5q-67 0 -106 -43.5t-39 -106.5q0 -62 38 -106t107 -43q69 -1 108.5 43t39.5 106zM522 209l121 291h-33l-104 -258l-109 258h-30l122 -291h33zM901 209v29h-178v104h166v27h-166v102h174v29h-203v-291h207zM1202 209l-100 108q43 3 65.5 29 t22.5 62q0 39 -25.5 65.5t-70.5 26.5h-129v-291h28v106h74l96 -106h39zM1530 209h29v291h-29v-291zM2179 264l-186 236h-19v-291h29v233l186 -233h17v291h-29v-140zM1765 231q-55 0 -84.5 35.5t-31.5 87.5t29 87t87 34q57 1 88 -34.5t31 -86.5t-31 -87t-88 -36zM993 471h101 q32 0 49.5 -17.5t17.5 -45.5q0 -29 -17.5 -46.5t-51.5 -17.5h-99v127z" />
<glyph unicode="&#xf8;" horiz-adv-x="1169" d="M1020 1282l-82 -125q182 -191 182 -569q0 -129 -72 -279.5t-194 -255.5q-65 -56 -154 -76t-175.5 -4.5t-157.5 60.5q-39 22 -88 65q-66 -95 -105 -143q-12 -13 -32 -12.5t-38.5 12.5t-34.5 28.5t-19.5 35t7.5 32.5q58 74 121 166q-94 145 -106 336q-7 57 -3 125.5t16 135 t45 143.5t85 151q30 42 64.5 74.5t79 57t67.5 35t72 30.5q8 26 37 35.5t59 6.5t59 -12q103 -41 168 -82q51 81 78 119q11 15 30.5 15.5t38.5 -10.5t35.5 -27t21 -34.5t-4.5 -33.5zM225 600q0 -130 47 -240q91 141 262.5 425t208.5 343q-60 45 -127 66q-67 -12 -142 -56 t-128 -104q-121 -153 -121 -434zM778 178q111 113 157 252.5t26 261.5q-20 185 -111 324q-45 -74 -148.5 -245t-187.5 -306.5t-154 -243.5q21 -24 50 -49q73 -64 185.5 -63t182.5 69z" />
<glyph unicode="&#xf9;" horiz-adv-x="1134" d="M537 1591q13 -19 55.5 -72t56.5 -73q21 -31 7 -56.5t-42 -26.5t-51 19q-17 20 -66 71t-67 71q-27 32 4 63q29 30 68 24q21 -4 35 -20zM881 1303q1 19 18.5 29t42.5 9.5t50 -6.5t41.5 -19t15.5 -28q-2 -68 7 -289.5t1.5 -392.5t-45.5 -272q-28 -66 -68.5 -124.5 t-92.5 -108.5t-119.5 -79t-139.5 -28q-85 2 -172.5 34.5t-145.5 86.5q-98 90 -142.5 192t-45.5 281q0 118 -1 345t-1 345q5 33 45.5 49.5t78.5 5t36 -46.5v-659q2 -134 21 -218t79 -141q115 -112 250 -112q93 0 166 76t106 188q33 117 33 379q0 293 -18 504z" />
<glyph unicode="&#xfa;" horiz-adv-x="1134" d="M614 1591q28 32 73 15q35 -13 43 -43q5 -21 -11 -39q-17 -20 -74.5 -70.5t-75.5 -71.5q-15 -17 -37.5 -19t-38.5 9t-22 29.5t12 44.5q13 20 65 73t66 72zM881 1303q1 19 18.5 29t42.5 9.5t50 -6.5t41.5 -19t15.5 -28q-2 -68 7 -289.5t1.5 -392.5t-45.5 -272 q-28 -66 -68.5 -124.5t-92.5 -108.5t-119.5 -79t-139.5 -28q-85 2 -172.5 34.5t-145.5 86.5q-98 90 -142.5 192t-45.5 281q0 118 -1 345t-1 345q5 33 45.5 49.5t78.5 5t36 -46.5v-659q2 -134 21 -218t79 -141q115 -112 250 -112q93 0 166 76t106 188q33 117 33 379 q0 293 -18 504z" />
<glyph unicode="&#xfb;" horiz-adv-x="1134" d="M578 1602q81 -48 192 -129q35 -26 18 -70q-13 -34 -41 -40q-17 -3 -32 9q-39 32 -91.5 71.5t-68.5 53.5q-25 -18 -90.5 -54.5t-87.5 -53.5q-25 -20 -53 -13t-34.5 30t15.5 52q33 37 142.5 100.5t130.5 43.5zM881 1303q1 19 18.5 29t42.5 9.5t50 -6.5t41.5 -19t15.5 -28 q-2 -68 7 -289.5t1.5 -392.5t-45.5 -272q-28 -66 -68.5 -124.5t-92.5 -108.5t-119.5 -79t-139.5 -28q-85 2 -172.5 34.5t-145.5 86.5q-98 90 -142.5 192t-45.5 281q0 118 -1 345t-1 345q5 33 45.5 49.5t78.5 5t36 -46.5v-659q2 -134 21 -218t79 -141q115 -112 250 -112 q93 0 166 76t106 188q33 117 33 379q0 293 -18 504z" />
<glyph unicode="&#xfc;" horiz-adv-x="1134" d="M662 1507q87 9 108 -39q15 -31 -14.5 -61.5t-91.5 -30.5q-27 0 -42 19.5t-15 43t14.5 44.5t40.5 24zM455 1509q24 0 40.5 -14t20.5 -34.5t0.5 -40.5t-19.5 -34t-40 -14q-38 0 -70.5 16.5t-32.5 53.5q-2 35 22 51t79 16zM881 1303q1 19 18.5 29t42.5 9.5t50 -6.5t41.5 -19 t15.5 -28q-2 -68 7 -289.5t1.5 -392.5t-45.5 -272q-28 -66 -68.5 -124.5t-92.5 -108.5t-119.5 -79t-139.5 -28q-85 2 -172.5 34.5t-145.5 86.5q-98 90 -142.5 192t-45.5 281q0 118 -1 345t-1 345q5 33 45.5 49.5t78.5 5t36 -46.5v-659q2 -134 21 -218t79 -141 q115 -112 250 -112q93 0 166 76t106 188q33 117 33 379q0 293 -18 504z" />
<glyph unicode="&#xfd;" horiz-adv-x="966" d="M547 1675q28 33 73 15q36 -14 42 -44q4 -20 -11 -38q-18 -21 -75 -71.5t-74 -70.5q-15 -17 -37.5 -19t-38.5 9t-22 29.5t12 44.5q13 19 65.5 72.5t65.5 72.5zM778 1296q8 37 46.5 39t72.5 -24.5t29 -59.5q-40 -123 -73 -283t-57 -284.5t-48 -183.5q36 -15 50 -40t5.5 -49 t-39 -42t-74.5 -19q-23 -58 -46 -104t-59 -97t-75 -84.5t-93 -53.5t-114 -15q-123 9 -166.5 83.5t-52.5 260.5q-1 23 38.5 33.5t79.5 -1.5t40 -44q0 -112 26.5 -153.5t83.5 -41.5q54 0 112.5 81t96.5 192q-219 110 -319 286q-47 90 -110 252.5t-105 292.5q-3 29 7.5 53 t29.5 35t40 14t40 -8.5t28 -34.5q91 -281 174 -465q85 -193 264 -286q44 121 89 382.5t79 368.5z" />
<glyph unicode="&#xfe;" horiz-adv-x="1196" d="M307 1229q-7 41 -46 50t-73 -16t-28 -67q14 -56 18 -147q-60 -22 -135 -64q-21 -12 -20.5 -40t15 -54t38 -41.5t43.5 -5.5l55 28q0 -20 4 -202.5t4 -247.5q-15 0 -38 4t-42 2q-48 -6 -64 -35.5t2 -63.5t58 -53q23 -10 86 -14q4 -120 17 -192q8 -43 34 -59t52.5 -8 t45.5 33t15 56q-8 54 -8 164q79 -2 148.5 -4t155.5 10t167 39q141 53 229.5 160t94.5 244q5 107 -30.5 189.5t-103 132.5t-152 77.5t-185.5 32.5q-62 6 -156.5 -3t-181.5 -34q-3 62 -19 129zM324 936q179 56 362 35q124 -16 199.5 -76.5t75.5 -165.5q0 -85 -62 -163 t-154 -117q-76 -23 -146 -33.5t-107.5 -10t-88.5 3.5t-67 3q0 395 -12 524z" />
<glyph unicode="&#xff;" horiz-adv-x="966" d="M594 1591q87 9 108 -39q15 -31 -14.5 -61.5t-91.5 -30.5q-27 0 -42 19.5t-15 43t14.5 44.5t40.5 24zM387 1593q24 0 40.5 -14t20.5 -34.5t0.5 -40.5t-19.5 -34t-40 -14q-38 0 -70 16.5t-32 53.5q-2 35 21.5 51t78.5 16zM778 1296q8 37 46.5 39t72.5 -24.5t29 -59.5 q-40 -123 -73 -283t-57 -284.5t-48 -183.5q36 -15 50 -40t5.5 -49t-39 -42t-74.5 -19q-23 -58 -46 -104t-59 -97t-75 -84.5t-93 -53.5t-114 -15q-123 9 -166.5 83.5t-52.5 260.5q-1 23 38.5 33.5t79.5 -1.5t40 -44q0 -112 26.5 -153.5t83.5 -41.5q54 0 112.5 81t96.5 192 q-219 110 -319 286q-47 90 -110 252.5t-105 292.5q-3 29 7.5 53t29.5 35t40 14t40 -8.5t28 -34.5q91 -281 174 -465q85 -193 264 -286q44 121 89 382.5t79 368.5z" />
<glyph unicode="&#x152;" horiz-adv-x="2166" d="M721 1444q79 -26 190.5 -91t155.5 -128q0 17 2 52.5t2 55.5q0 81 113 86q85 8 341 6.5t408 -8.5q53 2 74.5 -34.5t0 -75.5t-74.5 -43q-34 0 -211 3t-298.5 4t-198.5 -1q10 -214 14 -443q135 -9 343 -4.5t337 19.5q58 4 93 -19t25.5 -59t-67.5 -66q-88 -16 -202.5 -23 t-196 -6.5t-189.5 3t-139 2.5q0 -21 1.5 -113.5t2.5 -163.5t4 -146t6 -101q95 -4 264.5 3.5t315 17t164.5 9.5q76 -6 91 -52q13 -39 -26 -71q-36 -30 -96 -30q-97 0 -270 -13q-254 -18 -524 -18q-12 0 -38.5 18.5t-27.5 38.5q-15 65 -18 117q-166 -166 -443 -178 q-72 -3 -137.5 15.5t-119 55t-93.5 74.5t-80 88q-43 57 -69.5 101.5t-49.5 124t-28 176.5q-13 170 -11 219q6 134 84 263q16 26 35 54q113 151 373 236q23 50 68.5 58t99.5 -13zM686 1284q-80 -13 -195 -73t-174 -126q-33 -39 -53 -81t-26.5 -88t-8 -77t1 -81.5t2.5 -67.5 q0 -74 10.5 -135t31.5 -108t38.5 -75t44.5 -63q135 -164 289 -164q87 0 187.5 37t177 104.5t84.5 143.5q7 75 1.5 244t-16.5 221q-39 166 -129 256.5t-266 132.5z" />
<glyph unicode="&#x153;" horiz-adv-x="2039" d="M696 1348q103 -33 188.5 -96t106.5 -109q-4 27 -4 100q2 40 23.5 61.5t76.5 24.5q197 14 764 -2q53 2 74 -35t-1.5 -75.5t-74.5 -40.5l-170 3q-170 3 -304.5 4t-217.5 -1q0 -100 6.5 -244t7.5 -190q115 -8 333 -5.5t327 21.5q57 3 92.5 -19.5t26.5 -57.5t-66 -64 q-123 -23 -249 -29t-288 -1t-169 5q0 -335 12 -448q74 -5 201 -0.5t226.5 10.5t194 13t103.5 7q72 4 89 -40q15 -37 -19 -72q-36 -37 -99 -37q-1 0 -116 -7.5t-295.5 -15.5t-339.5 -8q-29 0 -59.5 23t-33.5 53q-6 30 -6 78q-77 -68 -184.5 -112t-224.5 -50q-236 -7 -422 227 q-14 18 -45 55t-41.5 54t-27.5 57t-24.5 93.5t-11.5 133.5q-6 84 -6 151.5t28 144.5t89 165q108 145 364 232q13 31 41.5 44.5t59 11.5t65.5 -13zM670 1198q-79 -15 -196.5 -76t-174.5 -125q-56 -68 -70 -133.5t-12 -175.5q0 -148 19 -211.5t104 -173.5q133 -162 283 -162 q120 0 243.5 73.5t155.5 168.5q0 16 -0.5 35.5t-1.5 51.5t-4 131t-6 239q-33 121 -129.5 224.5t-210.5 133.5z" />
<glyph unicode="&#x178;" horiz-adv-x="1071" d="M643 1651q88 9 109 -39q15 -31 -15 -61.5t-92 -30.5q-27 0 -42 19.5t-15 43t14.5 44.5t40.5 24zM436 1653q24 0 40.5 -14t20.5 -34.5t0.5 -40.5t-19.5 -34t-40 -14q-38 0 -70 16t-32 53q-2 36 21.5 52t78.5 16zM182 1380q87 -188 189 -379q81 -155 142.5 -241t152.5 -182 q41 127 111.5 443t82.5 363q6 41 55 36q48 -5 79 -41q21 -24 18 -50q-15 -49 -30 -109.5t-33 -137.5t-27 -115q-9 -37 -46 -199t-57.5 -241.5t-62 -205.5t-86.5 -217q-38 -84 -114.5 -121.5t-159 -26t-148.5 63.5q-41 31 -65 79t-30.5 101t-5.5 96t7 85q13 57 54.5 65 t76.5 -23.5t30 -72.5q-7 -31 -5.5 -73.5t8.5 -81.5t31.5 -68t62.5 -33q26 -2 48.5 8t40 33t31 47t25.5 60.5t19.5 62t17 64.5t14.5 55q-66 52 -143.5 142t-136.5 188q-184 317 -287 549q-14 31 16 66t67 39.5t58 -28.5z" />
<glyph unicode="&#x2c6;" horiz-adv-x="491" d="M283 1696q81 -48 192 -129q35 -26 18 -70q-13 -34 -41 -40q-17 -3 -32 9q-39 32 -91.5 71.5t-68.5 53.5q-25 -18 -90.5 -54.5t-87.5 -53.5q-25 -20 -53 -13t-34.5 30t15.5 52q33 37 142.5 100.5t130.5 43.5z" />
<glyph unicode="&#x2dc;" horiz-adv-x="446" d="M131 1638q20 -4 72.5 -33.5t66.5 -33.5q14 -6 26.5 -4t19.5 3t14 8t9.5 10t6 10t4.5 8q11 11 31 12t35.5 -17t9.5 -45q-7 -27 -42 -57.5t-73 -30.5q-28 0 -56 9.5t-65 29t-38 19.5q-57 25 -76 -17q-10 -21 -35 -22.5t-44.5 19.5t-12.5 55q9 45 53 66t94 11z" />
<glyph unicode="&#x2000;" horiz-adv-x="883" />
<glyph unicode="&#x2001;" horiz-adv-x="1766" />
<glyph unicode="&#x2002;" horiz-adv-x="883" />
<glyph unicode="&#x2003;" horiz-adv-x="1766" />
<glyph unicode="&#x2004;" horiz-adv-x="588" />
<glyph unicode="&#x2005;" horiz-adv-x="441" />
<glyph unicode="&#x2006;" horiz-adv-x="294" />
<glyph unicode="&#x2007;" horiz-adv-x="294" />
<glyph unicode="&#x2008;" horiz-adv-x="220" />
<glyph unicode="&#x2009;" horiz-adv-x="353" />
<glyph unicode="&#x200a;" horiz-adv-x="98" />
<glyph unicode="&#x2010;" d="M379 1008l31 -68h30l-131 289h-28l-129 -289h30l31 68h166zM594 940l121 289h-33l-104 -258l-109 258h-31l123 -289h33zM942 1008l29 -68h30l-129 289h-28l-131 -289h30l31 68h168zM1051 940h28v289h-28v-289zM1188 1229h-29v-289h191v27h-162v262zM1591 1008l31 -68h31 l-129 289h-29l-131 -289h31l30 68h166zM1825 1229h-123v-289h123q44 0 74 18.5t30 59.5q0 23 -14 42.5t-39 26.5q45 16 45 62q0 40 -27 60t-69 20zM2021 1229h-28v-289h188v27h-160v262zM2435 940v27h-178v104h168v27h-168v104h176v27h-205v-289h207zM1731 1102v100h94 q67 0 67 -53q0 -47 -65 -47h-96zM223 1032l72 166l74 -166h-146zM784 1032l74 166l72 -166h-146zM1436 1032l73 166l72 -166h-145zM1731 967v108h96q30 0 52 -14.5t22 -42.5q0 -51 -76 -51h-94zM102 575h29v289h-29v-289zM416 629l-187 235h-18v-289h29v232l186 -232h18v289 h-28v-235zM688 836v-261h29v261h102v28h-233v-28h102zM1069 575h29v289h-29v-135h-174v135h-29v-289h29v127h174v-127zM1386 575v27h-178v105h166v26h-166v103h174v28h-204v-289h208zM1556 575h29v125h164v27h-164v109h170v28h-199v-289zM2042 864h-29v-178 q0 -43 -24.5 -65.5t-61.5 -22.5q-38 0 -62 24t-24 64v178h-29v-178q0 -56 33 -85.5t82 -29.5q50 0 82.5 29.5t32.5 85.5v178zM2148 864h-30v-289h190v27h-160v262zM2384 864h-29v-289h191v27h-162v262zM1438 438l24 15q-35 51 -108 51q-43 0 -77 -20t-34 -60 q0 -20 8.5 -34.5t27 -22.5t33 -12t40.5 -9q28 -5 44 -9.5t30 -17t14 -30.5q0 -56 -86 -56q-70 0 -94 50l-27 -15q16 -32 49.5 -47.5t71.5 -15.5q48 0 82 19.5t34 64.5q0 29 -18.5 47t-39 24.5t-56.5 12.5q-28 5 -43 9t-28 15t-13 27q0 28 24.5 39.5t57.5 11.5q64 0 84 -37z M1913 354q0 61 -39 105.5t-109 44.5q-67 0 -106 -43.5t-39 -106.5q0 -62 38 -106t107 -43q69 -1 108.5 43t39.5 106zM522 209l121 291h-33l-104 -258l-109 258h-30l122 -291h33zM901 209v29h-178v104h166v27h-166v102h174v29h-203v-291h207zM1202 209l-100 108q43 3 65.5 29 t22.5 62q0 39 -25.5 65.5t-70.5 26.5h-129v-291h28v106h74l96 -106h39zM1530 209h29v291h-29v-291zM2179 264l-186 236h-19v-291h29v233l186 -233h17v291h-29v-140zM1765 231q-55 0 -84.5 35.5t-31.5 87.5t29 87t87 34q57 1 88 -34.5t31 -86.5t-31 -87t-88 -36zM993 471h101 q32 0 49.5 -17.5t17.5 -45.5q0 -29 -17.5 -46.5t-51.5 -17.5h-99v127z" />
<glyph unicode="&#x2011;" d="M379 1008l31 -68h30l-131 289h-28l-129 -289h30l31 68h166zM594 940l121 289h-33l-104 -258l-109 258h-31l123 -289h33zM942 1008l29 -68h30l-129 289h-28l-131 -289h30l31 68h168zM1051 940h28v289h-28v-289zM1188 1229h-29v-289h191v27h-162v262zM1591 1008l31 -68h31 l-129 289h-29l-131 -289h31l30 68h166zM1825 1229h-123v-289h123q44 0 74 18.5t30 59.5q0 23 -14 42.5t-39 26.5q45 16 45 62q0 40 -27 60t-69 20zM2021 1229h-28v-289h188v27h-160v262zM2435 940v27h-178v104h168v27h-168v104h176v27h-205v-289h207zM1731 1102v100h94 q67 0 67 -53q0 -47 -65 -47h-96zM223 1032l72 166l74 -166h-146zM784 1032l74 166l72 -166h-146zM1436 1032l73 166l72 -166h-145zM1731 967v108h96q30 0 52 -14.5t22 -42.5q0 -51 -76 -51h-94zM102 575h29v289h-29v-289zM416 629l-187 235h-18v-289h29v232l186 -232h18v289 h-28v-235zM688 836v-261h29v261h102v28h-233v-28h102zM1069 575h29v289h-29v-135h-174v135h-29v-289h29v127h174v-127zM1386 575v27h-178v105h166v26h-166v103h174v28h-204v-289h208zM1556 575h29v125h164v27h-164v109h170v28h-199v-289zM2042 864h-29v-178 q0 -43 -24.5 -65.5t-61.5 -22.5q-38 0 -62 24t-24 64v178h-29v-178q0 -56 33 -85.5t82 -29.5q50 0 82.5 29.5t32.5 85.5v178zM2148 864h-30v-289h190v27h-160v262zM2384 864h-29v-289h191v27h-162v262zM1438 438l24 15q-35 51 -108 51q-43 0 -77 -20t-34 -60 q0 -20 8.5 -34.5t27 -22.5t33 -12t40.5 -9q28 -5 44 -9.5t30 -17t14 -30.5q0 -56 -86 -56q-70 0 -94 50l-27 -15q16 -32 49.5 -47.5t71.5 -15.5q48 0 82 19.5t34 64.5q0 29 -18.5 47t-39 24.5t-56.5 12.5q-28 5 -43 9t-28 15t-13 27q0 28 24.5 39.5t57.5 11.5q64 0 84 -37z M1913 354q0 61 -39 105.5t-109 44.5q-67 0 -106 -43.5t-39 -106.5q0 -62 38 -106t107 -43q69 -1 108.5 43t39.5 106zM522 209l121 291h-33l-104 -258l-109 258h-30l122 -291h33zM901 209v29h-178v104h166v27h-166v102h174v29h-203v-291h207zM1202 209l-100 108q43 3 65.5 29 t22.5 62q0 39 -25.5 65.5t-70.5 26.5h-129v-291h28v106h74l96 -106h39zM1530 209h29v291h-29v-291zM2179 264l-186 236h-19v-291h29v233l186 -233h17v291h-29v-140zM1765 231q-55 0 -84.5 35.5t-31.5 87.5t29 87t87 34q57 1 88 -34.5t31 -86.5t-31 -87t-88 -36zM993 471h101 q32 0 49.5 -17.5t17.5 -45.5q0 -29 -17.5 -46.5t-51.5 -17.5h-99v127z" />
<glyph unicode="&#x2012;" d="M379 1008l31 -68h30l-131 289h-28l-129 -289h30l31 68h166zM594 940l121 289h-33l-104 -258l-109 258h-31l123 -289h33zM942 1008l29 -68h30l-129 289h-28l-131 -289h30l31 68h168zM1051 940h28v289h-28v-289zM1188 1229h-29v-289h191v27h-162v262zM1591 1008l31 -68h31 l-129 289h-29l-131 -289h31l30 68h166zM1825 1229h-123v-289h123q44 0 74 18.5t30 59.5q0 23 -14 42.5t-39 26.5q45 16 45 62q0 40 -27 60t-69 20zM2021 1229h-28v-289h188v27h-160v262zM2435 940v27h-178v104h168v27h-168v104h176v27h-205v-289h207zM1731 1102v100h94 q67 0 67 -53q0 -47 -65 -47h-96zM223 1032l72 166l74 -166h-146zM784 1032l74 166l72 -166h-146zM1436 1032l73 166l72 -166h-145zM1731 967v108h96q30 0 52 -14.5t22 -42.5q0 -51 -76 -51h-94zM102 575h29v289h-29v-289zM416 629l-187 235h-18v-289h29v232l186 -232h18v289 h-28v-235zM688 836v-261h29v261h102v28h-233v-28h102zM1069 575h29v289h-29v-135h-174v135h-29v-289h29v127h174v-127zM1386 575v27h-178v105h166v26h-166v103h174v28h-204v-289h208zM1556 575h29v125h164v27h-164v109h170v28h-199v-289zM2042 864h-29v-178 q0 -43 -24.5 -65.5t-61.5 -22.5q-38 0 -62 24t-24 64v178h-29v-178q0 -56 33 -85.5t82 -29.5q50 0 82.5 29.5t32.5 85.5v178zM2148 864h-30v-289h190v27h-160v262zM2384 864h-29v-289h191v27h-162v262zM1438 438l24 15q-35 51 -108 51q-43 0 -77 -20t-34 -60 q0 -20 8.5 -34.5t27 -22.5t33 -12t40.5 -9q28 -5 44 -9.5t30 -17t14 -30.5q0 -56 -86 -56q-70 0 -94 50l-27 -15q16 -32 49.5 -47.5t71.5 -15.5q48 0 82 19.5t34 64.5q0 29 -18.5 47t-39 24.5t-56.5 12.5q-28 5 -43 9t-28 15t-13 27q0 28 24.5 39.5t57.5 11.5q64 0 84 -37z M1913 354q0 61 -39 105.5t-109 44.5q-67 0 -106 -43.5t-39 -106.5q0 -62 38 -106t107 -43q69 -1 108.5 43t39.5 106zM522 209l121 291h-33l-104 -258l-109 258h-30l122 -291h33zM901 209v29h-178v104h166v27h-166v102h174v29h-203v-291h207zM1202 209l-100 108q43 3 65.5 29 t22.5 62q0 39 -25.5 65.5t-70.5 26.5h-129v-291h28v106h74l96 -106h39zM1530 209h29v291h-29v-291zM2179 264l-186 236h-19v-291h29v233l186 -233h17v291h-29v-140zM1765 231q-55 0 -84.5 35.5t-31.5 87.5t29 87t87 34q57 1 88 -34.5t31 -86.5t-31 -87t-88 -36zM993 471h101 q32 0 49.5 -17.5t17.5 -45.5q0 -29 -17.5 -46.5t-51.5 -17.5h-99v127z" />
<glyph unicode="&#x2013;" d="M379 1008l31 -68h30l-131 289h-28l-129 -289h30l31 68h166zM594 940l121 289h-33l-104 -258l-109 258h-31l123 -289h33zM942 1008l29 -68h30l-129 289h-28l-131 -289h30l31 68h168zM1051 940h28v289h-28v-289zM1188 1229h-29v-289h191v27h-162v262zM1591 1008l31 -68h31 l-129 289h-29l-131 -289h31l30 68h166zM1825 1229h-123v-289h123q44 0 74 18.5t30 59.5q0 23 -14 42.5t-39 26.5q45 16 45 62q0 40 -27 60t-69 20zM2021 1229h-28v-289h188v27h-160v262zM2435 940v27h-178v104h168v27h-168v104h176v27h-205v-289h207zM1731 1102v100h94 q67 0 67 -53q0 -47 -65 -47h-96zM223 1032l72 166l74 -166h-146zM784 1032l74 166l72 -166h-146zM1436 1032l73 166l72 -166h-145zM1731 967v108h96q30 0 52 -14.5t22 -42.5q0 -51 -76 -51h-94zM102 575h29v289h-29v-289zM416 629l-187 235h-18v-289h29v232l186 -232h18v289 h-28v-235zM688 836v-261h29v261h102v28h-233v-28h102zM1069 575h29v289h-29v-135h-174v135h-29v-289h29v127h174v-127zM1386 575v27h-178v105h166v26h-166v103h174v28h-204v-289h208zM1556 575h29v125h164v27h-164v109h170v28h-199v-289zM2042 864h-29v-178 q0 -43 -24.5 -65.5t-61.5 -22.5q-38 0 -62 24t-24 64v178h-29v-178q0 -56 33 -85.5t82 -29.5q50 0 82.5 29.5t32.5 85.5v178zM2148 864h-30v-289h190v27h-160v262zM2384 864h-29v-289h191v27h-162v262zM1438 438l24 15q-35 51 -108 51q-43 0 -77 -20t-34 -60 q0 -20 8.5 -34.5t27 -22.5t33 -12t40.5 -9q28 -5 44 -9.5t30 -17t14 -30.5q0 -56 -86 -56q-70 0 -94 50l-27 -15q16 -32 49.5 -47.5t71.5 -15.5q48 0 82 19.5t34 64.5q0 29 -18.5 47t-39 24.5t-56.5 12.5q-28 5 -43 9t-28 15t-13 27q0 28 24.5 39.5t57.5 11.5q64 0 84 -37z M1913 354q0 61 -39 105.5t-109 44.5q-67 0 -106 -43.5t-39 -106.5q0 -62 38 -106t107 -43q69 -1 108.5 43t39.5 106zM522 209l121 291h-33l-104 -258l-109 258h-30l122 -291h33zM901 209v29h-178v104h166v27h-166v102h174v29h-203v-291h207zM1202 209l-100 108q43 3 65.5 29 t22.5 62q0 39 -25.5 65.5t-70.5 26.5h-129v-291h28v106h74l96 -106h39zM1530 209h29v291h-29v-291zM2179 264l-186 236h-19v-291h29v233l186 -233h17v291h-29v-140zM1765 231q-55 0 -84.5 35.5t-31.5 87.5t29 87t87 34q57 1 88 -34.5t31 -86.5t-31 -87t-88 -36zM993 471h101 q32 0 49.5 -17.5t17.5 -45.5q0 -29 -17.5 -46.5t-51.5 -17.5h-99v127z" />
<glyph unicode="&#x2014;" d="M379 1008l31 -68h30l-131 289h-28l-129 -289h30l31 68h166zM594 940l121 289h-33l-104 -258l-109 258h-31l123 -289h33zM942 1008l29 -68h30l-129 289h-28l-131 -289h30l31 68h168zM1051 940h28v289h-28v-289zM1188 1229h-29v-289h191v27h-162v262zM1591 1008l31 -68h31 l-129 289h-29l-131 -289h31l30 68h166zM1825 1229h-123v-289h123q44 0 74 18.5t30 59.5q0 23 -14 42.5t-39 26.5q45 16 45 62q0 40 -27 60t-69 20zM2021 1229h-28v-289h188v27h-160v262zM2435 940v27h-178v104h168v27h-168v104h176v27h-205v-289h207zM1731 1102v100h94 q67 0 67 -53q0 -47 -65 -47h-96zM223 1032l72 166l74 -166h-146zM784 1032l74 166l72 -166h-146zM1436 1032l73 166l72 -166h-145zM1731 967v108h96q30 0 52 -14.5t22 -42.5q0 -51 -76 -51h-94zM102 575h29v289h-29v-289zM416 629l-187 235h-18v-289h29v232l186 -232h18v289 h-28v-235zM688 836v-261h29v261h102v28h-233v-28h102zM1069 575h29v289h-29v-135h-174v135h-29v-289h29v127h174v-127zM1386 575v27h-178v105h166v26h-166v103h174v28h-204v-289h208zM1556 575h29v125h164v27h-164v109h170v28h-199v-289zM2042 864h-29v-178 q0 -43 -24.5 -65.5t-61.5 -22.5q-38 0 -62 24t-24 64v178h-29v-178q0 -56 33 -85.5t82 -29.5q50 0 82.5 29.5t32.5 85.5v178zM2148 864h-30v-289h190v27h-160v262zM2384 864h-29v-289h191v27h-162v262zM1438 438l24 15q-35 51 -108 51q-43 0 -77 -20t-34 -60 q0 -20 8.5 -34.5t27 -22.5t33 -12t40.5 -9q28 -5 44 -9.5t30 -17t14 -30.5q0 -56 -86 -56q-70 0 -94 50l-27 -15q16 -32 49.5 -47.5t71.5 -15.5q48 0 82 19.5t34 64.5q0 29 -18.5 47t-39 24.5t-56.5 12.5q-28 5 -43 9t-28 15t-13 27q0 28 24.5 39.5t57.5 11.5q64 0 84 -37z M1913 354q0 61 -39 105.5t-109 44.5q-67 0 -106 -43.5t-39 -106.5q0 -62 38 -106t107 -43q69 -1 108.5 43t39.5 106zM522 209l121 291h-33l-104 -258l-109 258h-30l122 -291h33zM901 209v29h-178v104h166v27h-166v102h174v29h-203v-291h207zM1202 209l-100 108q43 3 65.5 29 t22.5 62q0 39 -25.5 65.5t-70.5 26.5h-129v-291h28v106h74l96 -106h39zM1530 209h29v291h-29v-291zM2179 264l-186 236h-19v-291h29v233l186 -233h17v291h-29v-140zM1765 231q-55 0 -84.5 35.5t-31.5 87.5t29 87t87 34q57 1 88 -34.5t31 -86.5t-31 -87t-88 -36zM993 471h101 q32 0 49.5 -17.5t17.5 -45.5q0 -29 -17.5 -46.5t-51.5 -17.5h-99v127z" />
<glyph unicode="&#x2018;" d="M379 1008l31 -68h30l-131 289h-28l-129 -289h30l31 68h166zM594 940l121 289h-33l-104 -258l-109 258h-31l123 -289h33zM942 1008l29 -68h30l-129 289h-28l-131 -289h30l31 68h168zM1051 940h28v289h-28v-289zM1188 1229h-29v-289h191v27h-162v262zM1591 1008l31 -68h31 l-129 289h-29l-131 -289h31l30 68h166zM1825 1229h-123v-289h123q44 0 74 18.5t30 59.5q0 23 -14 42.5t-39 26.5q45 16 45 62q0 40 -27 60t-69 20zM2021 1229h-28v-289h188v27h-160v262zM2435 940v27h-178v104h168v27h-168v104h176v27h-205v-289h207zM1731 1102v100h94 q67 0 67 -53q0 -47 -65 -47h-96zM223 1032l72 166l74 -166h-146zM784 1032l74 166l72 -166h-146zM1436 1032l73 166l72 -166h-145zM1731 967v108h96q30 0 52 -14.5t22 -42.5q0 -51 -76 -51h-94zM102 575h29v289h-29v-289zM416 629l-187 235h-18v-289h29v232l186 -232h18v289 h-28v-235zM688 836v-261h29v261h102v28h-233v-28h102zM1069 575h29v289h-29v-135h-174v135h-29v-289h29v127h174v-127zM1386 575v27h-178v105h166v26h-166v103h174v28h-204v-289h208zM1556 575h29v125h164v27h-164v109h170v28h-199v-289zM2042 864h-29v-178 q0 -43 -24.5 -65.5t-61.5 -22.5q-38 0 -62 24t-24 64v178h-29v-178q0 -56 33 -85.5t82 -29.5q50 0 82.5 29.5t32.5 85.5v178zM2148 864h-30v-289h190v27h-160v262zM2384 864h-29v-289h191v27h-162v262zM1438 438l24 15q-35 51 -108 51q-43 0 -77 -20t-34 -60 q0 -20 8.5 -34.5t27 -22.5t33 -12t40.5 -9q28 -5 44 -9.5t30 -17t14 -30.5q0 -56 -86 -56q-70 0 -94 50l-27 -15q16 -32 49.5 -47.5t71.5 -15.5q48 0 82 19.5t34 64.5q0 29 -18.5 47t-39 24.5t-56.5 12.5q-28 5 -43 9t-28 15t-13 27q0 28 24.5 39.5t57.5 11.5q64 0 84 -37z M1913 354q0 61 -39 105.5t-109 44.5q-67 0 -106 -43.5t-39 -106.5q0 -62 38 -106t107 -43q69 -1 108.5 43t39.5 106zM522 209l121 291h-33l-104 -258l-109 258h-30l122 -291h33zM901 209v29h-178v104h166v27h-166v102h174v29h-203v-291h207zM1202 209l-100 108q43 3 65.5 29 t22.5 62q0 39 -25.5 65.5t-70.5 26.5h-129v-291h28v106h74l96 -106h39zM1530 209h29v291h-29v-291zM2179 264l-186 236h-19v-291h29v233l186 -233h17v291h-29v-140zM1765 231q-55 0 -84.5 35.5t-31.5 87.5t29 87t87 34q57 1 88 -34.5t31 -86.5t-31 -87t-88 -36zM993 471h101 q32 0 49.5 -17.5t17.5 -45.5q0 -29 -17.5 -46.5t-51.5 -17.5h-99v127z" />
<glyph unicode="&#x2019;" d="M379 1008l31 -68h30l-131 289h-28l-129 -289h30l31 68h166zM594 940l121 289h-33l-104 -258l-109 258h-31l123 -289h33zM942 1008l29 -68h30l-129 289h-28l-131 -289h30l31 68h168zM1051 940h28v289h-28v-289zM1188 1229h-29v-289h191v27h-162v262zM1591 1008l31 -68h31 l-129 289h-29l-131 -289h31l30 68h166zM1825 1229h-123v-289h123q44 0 74 18.5t30 59.5q0 23 -14 42.5t-39 26.5q45 16 45 62q0 40 -27 60t-69 20zM2021 1229h-28v-289h188v27h-160v262zM2435 940v27h-178v104h168v27h-168v104h176v27h-205v-289h207zM1731 1102v100h94 q67 0 67 -53q0 -47 -65 -47h-96zM223 1032l72 166l74 -166h-146zM784 1032l74 166l72 -166h-146zM1436 1032l73 166l72 -166h-145zM1731 967v108h96q30 0 52 -14.5t22 -42.5q0 -51 -76 -51h-94zM102 575h29v289h-29v-289zM416 629l-187 235h-18v-289h29v232l186 -232h18v289 h-28v-235zM688 836v-261h29v261h102v28h-233v-28h102zM1069 575h29v289h-29v-135h-174v135h-29v-289h29v127h174v-127zM1386 575v27h-178v105h166v26h-166v103h174v28h-204v-289h208zM1556 575h29v125h164v27h-164v109h170v28h-199v-289zM2042 864h-29v-178 q0 -43 -24.5 -65.5t-61.5 -22.5q-38 0 -62 24t-24 64v178h-29v-178q0 -56 33 -85.5t82 -29.5q50 0 82.5 29.5t32.5 85.5v178zM2148 864h-30v-289h190v27h-160v262zM2384 864h-29v-289h191v27h-162v262zM1438 438l24 15q-35 51 -108 51q-43 0 -77 -20t-34 -60 q0 -20 8.5 -34.5t27 -22.5t33 -12t40.5 -9q28 -5 44 -9.5t30 -17t14 -30.5q0 -56 -86 -56q-70 0 -94 50l-27 -15q16 -32 49.5 -47.5t71.5 -15.5q48 0 82 19.5t34 64.5q0 29 -18.5 47t-39 24.5t-56.5 12.5q-28 5 -43 9t-28 15t-13 27q0 28 24.5 39.5t57.5 11.5q64 0 84 -37z M1913 354q0 61 -39 105.5t-109 44.5q-67 0 -106 -43.5t-39 -106.5q0 -62 38 -106t107 -43q69 -1 108.5 43t39.5 106zM522 209l121 291h-33l-104 -258l-109 258h-30l122 -291h33zM901 209v29h-178v104h166v27h-166v102h174v29h-203v-291h207zM1202 209l-100 108q43 3 65.5 29 t22.5 62q0 39 -25.5 65.5t-70.5 26.5h-129v-291h28v106h74l96 -106h39zM1530 209h29v291h-29v-291zM2179 264l-186 236h-19v-291h29v233l186 -233h17v291h-29v-140zM1765 231q-55 0 -84.5 35.5t-31.5 87.5t29 87t87 34q57 1 88 -34.5t31 -86.5t-31 -87t-88 -36zM993 471h101 q32 0 49.5 -17.5t17.5 -45.5q0 -29 -17.5 -46.5t-51.5 -17.5h-99v127z" />
<glyph unicode="&#x201a;" d="M379 1008l31 -68h30l-131 289h-28l-129 -289h30l31 68h166zM594 940l121 289h-33l-104 -258l-109 258h-31l123 -289h33zM942 1008l29 -68h30l-129 289h-28l-131 -289h30l31 68h168zM1051 940h28v289h-28v-289zM1188 1229h-29v-289h191v27h-162v262zM1591 1008l31 -68h31 l-129 289h-29l-131 -289h31l30 68h166zM1825 1229h-123v-289h123q44 0 74 18.5t30 59.5q0 23 -14 42.5t-39 26.5q45 16 45 62q0 40 -27 60t-69 20zM2021 1229h-28v-289h188v27h-160v262zM2435 940v27h-178v104h168v27h-168v104h176v27h-205v-289h207zM1731 1102v100h94 q67 0 67 -53q0 -47 -65 -47h-96zM223 1032l72 166l74 -166h-146zM784 1032l74 166l72 -166h-146zM1436 1032l73 166l72 -166h-145zM1731 967v108h96q30 0 52 -14.5t22 -42.5q0 -51 -76 -51h-94zM102 575h29v289h-29v-289zM416 629l-187 235h-18v-289h29v232l186 -232h18v289 h-28v-235zM688 836v-261h29v261h102v28h-233v-28h102zM1069 575h29v289h-29v-135h-174v135h-29v-289h29v127h174v-127zM1386 575v27h-178v105h166v26h-166v103h174v28h-204v-289h208zM1556 575h29v125h164v27h-164v109h170v28h-199v-289zM2042 864h-29v-178 q0 -43 -24.5 -65.5t-61.5 -22.5q-38 0 -62 24t-24 64v178h-29v-178q0 -56 33 -85.5t82 -29.5q50 0 82.5 29.5t32.5 85.5v178zM2148 864h-30v-289h190v27h-160v262zM2384 864h-29v-289h191v27h-162v262zM1438 438l24 15q-35 51 -108 51q-43 0 -77 -20t-34 -60 q0 -20 8.5 -34.5t27 -22.5t33 -12t40.5 -9q28 -5 44 -9.5t30 -17t14 -30.5q0 -56 -86 -56q-70 0 -94 50l-27 -15q16 -32 49.5 -47.5t71.5 -15.5q48 0 82 19.5t34 64.5q0 29 -18.5 47t-39 24.5t-56.5 12.5q-28 5 -43 9t-28 15t-13 27q0 28 24.5 39.5t57.5 11.5q64 0 84 -37z M1913 354q0 61 -39 105.5t-109 44.5q-67 0 -106 -43.5t-39 -106.5q0 -62 38 -106t107 -43q69 -1 108.5 43t39.5 106zM522 209l121 291h-33l-104 -258l-109 258h-30l122 -291h33zM901 209v29h-178v104h166v27h-166v102h174v29h-203v-291h207zM1202 209l-100 108q43 3 65.5 29 t22.5 62q0 39 -25.5 65.5t-70.5 26.5h-129v-291h28v106h74l96 -106h39zM1530 209h29v291h-29v-291zM2179 264l-186 236h-19v-291h29v233l186 -233h17v291h-29v-140zM1765 231q-55 0 -84.5 35.5t-31.5 87.5t29 87t87 34q57 1 88 -34.5t31 -86.5t-31 -87t-88 -36zM993 471h101 q32 0 49.5 -17.5t17.5 -45.5q0 -29 -17.5 -46.5t-51.5 -17.5h-99v127z" />
<glyph unicode="&#x201c;" d="M379 1008l31 -68h30l-131 289h-28l-129 -289h30l31 68h166zM594 940l121 289h-33l-104 -258l-109 258h-31l123 -289h33zM942 1008l29 -68h30l-129 289h-28l-131 -289h30l31 68h168zM1051 940h28v289h-28v-289zM1188 1229h-29v-289h191v27h-162v262zM1591 1008l31 -68h31 l-129 289h-29l-131 -289h31l30 68h166zM1825 1229h-123v-289h123q44 0 74 18.5t30 59.5q0 23 -14 42.5t-39 26.5q45 16 45 62q0 40 -27 60t-69 20zM2021 1229h-28v-289h188v27h-160v262zM2435 940v27h-178v104h168v27h-168v104h176v27h-205v-289h207zM1731 1102v100h94 q67 0 67 -53q0 -47 -65 -47h-96zM223 1032l72 166l74 -166h-146zM784 1032l74 166l72 -166h-146zM1436 1032l73 166l72 -166h-145zM1731 967v108h96q30 0 52 -14.5t22 -42.5q0 -51 -76 -51h-94zM102 575h29v289h-29v-289zM416 629l-187 235h-18v-289h29v232l186 -232h18v289 h-28v-235zM688 836v-261h29v261h102v28h-233v-28h102zM1069 575h29v289h-29v-135h-174v135h-29v-289h29v127h174v-127zM1386 575v27h-178v105h166v26h-166v103h174v28h-204v-289h208zM1556 575h29v125h164v27h-164v109h170v28h-199v-289zM2042 864h-29v-178 q0 -43 -24.5 -65.5t-61.5 -22.5q-38 0 -62 24t-24 64v178h-29v-178q0 -56 33 -85.5t82 -29.5q50 0 82.5 29.5t32.5 85.5v178zM2148 864h-30v-289h190v27h-160v262zM2384 864h-29v-289h191v27h-162v262zM1438 438l24 15q-35 51 -108 51q-43 0 -77 -20t-34 -60 q0 -20 8.5 -34.5t27 -22.5t33 -12t40.5 -9q28 -5 44 -9.5t30 -17t14 -30.5q0 -56 -86 -56q-70 0 -94 50l-27 -15q16 -32 49.5 -47.5t71.5 -15.5q48 0 82 19.5t34 64.5q0 29 -18.5 47t-39 24.5t-56.5 12.5q-28 5 -43 9t-28 15t-13 27q0 28 24.5 39.5t57.5 11.5q64 0 84 -37z M1913 354q0 61 -39 105.5t-109 44.5q-67 0 -106 -43.5t-39 -106.5q0 -62 38 -106t107 -43q69 -1 108.5 43t39.5 106zM522 209l121 291h-33l-104 -258l-109 258h-30l122 -291h33zM901 209v29h-178v104h166v27h-166v102h174v29h-203v-291h207zM1202 209l-100 108q43 3 65.5 29 t22.5 62q0 39 -25.5 65.5t-70.5 26.5h-129v-291h28v106h74l96 -106h39zM1530 209h29v291h-29v-291zM2179 264l-186 236h-19v-291h29v233l186 -233h17v291h-29v-140zM1765 231q-55 0 -84.5 35.5t-31.5 87.5t29 87t87 34q57 1 88 -34.5t31 -86.5t-31 -87t-88 -36zM993 471h101 q32 0 49.5 -17.5t17.5 -45.5q0 -29 -17.5 -46.5t-51.5 -17.5h-99v127z" />
<glyph unicode="&#x201d;" d="M379 1008l31 -68h30l-131 289h-28l-129 -289h30l31 68h166zM594 940l121 289h-33l-104 -258l-109 258h-31l123 -289h33zM942 1008l29 -68h30l-129 289h-28l-131 -289h30l31 68h168zM1051 940h28v289h-28v-289zM1188 1229h-29v-289h191v27h-162v262zM1591 1008l31 -68h31 l-129 289h-29l-131 -289h31l30 68h166zM1825 1229h-123v-289h123q44 0 74 18.5t30 59.5q0 23 -14 42.5t-39 26.5q45 16 45 62q0 40 -27 60t-69 20zM2021 1229h-28v-289h188v27h-160v262zM2435 940v27h-178v104h168v27h-168v104h176v27h-205v-289h207zM1731 1102v100h94 q67 0 67 -53q0 -47 -65 -47h-96zM223 1032l72 166l74 -166h-146zM784 1032l74 166l72 -166h-146zM1436 1032l73 166l72 -166h-145zM1731 967v108h96q30 0 52 -14.5t22 -42.5q0 -51 -76 -51h-94zM102 575h29v289h-29v-289zM416 629l-187 235h-18v-289h29v232l186 -232h18v289 h-28v-235zM688 836v-261h29v261h102v28h-233v-28h102zM1069 575h29v289h-29v-135h-174v135h-29v-289h29v127h174v-127zM1386 575v27h-178v105h166v26h-166v103h174v28h-204v-289h208zM1556 575h29v125h164v27h-164v109h170v28h-199v-289zM2042 864h-29v-178 q0 -43 -24.5 -65.5t-61.5 -22.5q-38 0 -62 24t-24 64v178h-29v-178q0 -56 33 -85.5t82 -29.5q50 0 82.5 29.5t32.5 85.5v178zM2148 864h-30v-289h190v27h-160v262zM2384 864h-29v-289h191v27h-162v262zM1438 438l24 15q-35 51 -108 51q-43 0 -77 -20t-34 -60 q0 -20 8.5 -34.5t27 -22.5t33 -12t40.5 -9q28 -5 44 -9.5t30 -17t14 -30.5q0 -56 -86 -56q-70 0 -94 50l-27 -15q16 -32 49.5 -47.5t71.5 -15.5q48 0 82 19.5t34 64.5q0 29 -18.5 47t-39 24.5t-56.5 12.5q-28 5 -43 9t-28 15t-13 27q0 28 24.5 39.5t57.5 11.5q64 0 84 -37z M1913 354q0 61 -39 105.5t-109 44.5q-67 0 -106 -43.5t-39 -106.5q0 -62 38 -106t107 -43q69 -1 108.5 43t39.5 106zM522 209l121 291h-33l-104 -258l-109 258h-30l122 -291h33zM901 209v29h-178v104h166v27h-166v102h174v29h-203v-291h207zM1202 209l-100 108q43 3 65.5 29 t22.5 62q0 39 -25.5 65.5t-70.5 26.5h-129v-291h28v106h74l96 -106h39zM1530 209h29v291h-29v-291zM2179 264l-186 236h-19v-291h29v233l186 -233h17v291h-29v-140zM1765 231q-55 0 -84.5 35.5t-31.5 87.5t29 87t87 34q57 1 88 -34.5t31 -86.5t-31 -87t-88 -36zM993 471h101 q32 0 49.5 -17.5t17.5 -45.5q0 -29 -17.5 -46.5t-51.5 -17.5h-99v127z" />
</font>
</defs>
</svg>
